<svg width="70" height="70" viewBox="0 0 70 70" fill="none" xmlns="http://www.w3.org/2000/svg">
<path d="M44.9018 33.9838L64.336 43.6157C64.4081 43.6513 64.4214 43.7004 64.3652 43.7272L34.9856 57.7499C34.9292 57.7768 34.8244 57.7704 34.7518 57.7359L5.43066 43.7413C5.35845 43.7068 5.34546 43.6569 5.40153 43.6296L25.268 33.9925" stroke="#C43340" stroke-miterlimit="22.9256"/>
<path d="M64.3203 43.6141V49.1003C64.3203 49.1804 64.4049 49.1838 64.3494 49.2118L35.0448 64.0578C34.817 64.1731 8.04099 50.4794 5.41493 49.2259C5.34272 49.1915 5.38579 49.1768 5.38579 49.1144V43.6281" stroke="#C43340" stroke-miterlimit="22.9256"/>
<path d="M11.4681 50.2753C11.9641 50.2742 12.3652 49.8712 12.3641 49.3752C12.363 48.8792 11.96 48.478 11.464 48.4791C10.968 48.4803 10.5668 48.8833 10.568 49.3793C10.5691 49.8753 10.9721 50.2764 11.4681 50.2753Z" fill="#373435"/>
<path d="M16.2142 52.5582C16.7102 52.5571 17.1113 52.1541 17.1102 51.6581C17.1091 51.1621 16.7061 50.761 16.2101 50.7621C15.7141 50.7632 15.3129 51.1662 15.3141 51.6622C15.3152 52.1582 15.7182 52.5594 16.2142 52.5582Z" fill="#373435"/>
<path d="M20.9114 54.8179C21.4074 54.8168 21.8086 54.4138 21.8075 53.9178C21.8063 53.4218 21.4033 53.0206 20.9073 53.0218C20.4114 53.0229 20.0102 53.4259 20.0113 53.9219C20.0125 54.4179 20.4155 54.819 20.9114 54.8179Z" fill="#373435"/>
<path d="M25.7235 57.1326C26.2195 57.1315 26.6206 56.7285 26.6195 56.2325C26.6183 55.7365 26.2153 55.3353 25.7194 55.3364C25.2234 55.3376 24.8222 55.7406 24.8233 56.2366C24.8245 56.7326 25.2275 57.1337 25.7235 57.1326Z" fill="#373435"/>
<path d="M30.4639 59.413C30.9599 59.4119 31.3611 59.0089 31.36 58.5129C31.3588 58.0169 30.9558 57.6157 30.4598 57.6168C29.9638 57.618 29.5627 58.021 29.5638 58.517C29.565 59.013 29.9679 59.4141 30.4639 59.413Z" fill="#373435"/>
<path d="M58.7897 50.2753C58.2937 50.2742 57.8926 49.8712 57.8937 49.3752C57.8948 48.8792 58.2978 48.478 58.7938 48.4791C59.2898 48.4803 59.691 48.8833 59.6898 49.3793C59.6887 49.8753 59.2857 50.2764 58.7897 50.2753Z" fill="#373435"/>
<path d="M54.0436 52.5582C53.5476 52.5571 53.1465 52.1541 53.1476 51.6581C53.1487 51.1621 53.5517 50.761 54.0477 50.7621C54.5437 50.7632 54.9449 51.1662 54.9437 51.6622C54.9426 52.1582 54.5396 52.5594 54.0436 52.5582Z" fill="#373435"/>
<path d="M49.3464 54.8179C48.8504 54.8168 48.4492 54.4138 48.4503 53.9178C48.4515 53.4218 48.8545 53.0206 49.3505 53.0218C49.8465 53.0229 50.2476 53.4259 50.2465 53.9219C50.2454 54.4179 49.8424 54.819 49.3464 54.8179Z" fill="#373435"/>
<path d="M44.5344 57.1326C44.0384 57.1315 43.6372 56.7285 43.6383 56.2325C43.6395 55.7365 44.0425 55.3353 44.5385 55.3364C45.0344 55.3376 45.4356 55.7406 45.4345 56.2366C45.4333 56.7326 45.0303 57.1337 44.5344 57.1326Z" fill="#373435"/>
<path d="M39.7939 59.413C39.2979 59.4119 38.8967 59.0089 38.8979 58.5129C38.899 58.0169 39.302 57.6157 39.798 57.6168C40.294 57.618 40.6951 58.021 40.694 58.517C40.6929 59.013 40.2899 59.4141 39.7939 59.413Z" fill="#373435"/>
<path d="M44.7435 11.6502L44.9018 44.0264L34.9919 49.5432L25.082 44.0264L25.2656 11.6516M34.85 6.69409L44.0228 11.6502L34.7691 16.6467L25.919 11.6516L34.85 6.69409Z" stroke="#C43340" stroke-miterlimit="22.9256"/>
<path d="M34.9919 16.6467V49.5432" stroke="#C43340" stroke-miterlimit="22.9256"/>
<path d="M32.2421 19.367L28.815 17.8916C28.3077 17.6733 27.7753 17.7778 27.6257 18.1251C27.4762 18.4725 27.7662 18.9311 28.2735 19.1494L31.7006 20.6248C32.2078 20.8432 32.7403 20.7387 32.8898 20.3914C33.0393 20.044 32.7493 19.5854 32.2421 19.367Z" fill="#373435" stroke="#373435" stroke-width="0.3" stroke-miterlimit="22.9256"/>
<path d="M37.8705 19.367L41.2976 17.8916C41.8048 17.6733 42.3373 17.7778 42.4868 18.1251C42.6363 18.4725 42.3463 18.9311 41.8391 19.1494L38.412 20.6248C37.9047 20.8432 37.3723 20.7387 37.2227 20.3914C37.0732 20.044 37.3632 19.5854 37.8705 19.367Z" fill="#373435" stroke="#373435" stroke-width="0.3" stroke-miterlimit="22.9256"/>
<path d="M32.2421 22.9698L28.815 21.4944C28.3077 21.276 27.7753 21.3806 27.6257 21.7279C27.4762 22.0752 27.7662 22.5338 28.2735 22.7522L31.7006 24.2276C32.2078 24.446 32.7403 24.3415 32.8898 23.9941C33.0393 23.6468 32.7493 23.1882 32.2421 22.9698Z" fill="#373435" stroke="#373435" stroke-width="0.3" stroke-miterlimit="22.9256"/>
<path d="M32.2421 26.5727L28.815 25.0973C28.3077 24.8789 27.7753 24.9835 27.6257 25.3308C27.4762 25.6781 27.7662 26.1367 28.2735 26.3551L31.7006 27.8305C32.2078 28.0489 32.7403 27.9444 32.8898 27.597C33.0393 27.2497 32.7493 26.7911 32.2421 26.5727Z" fill="#373435" stroke="#373435" stroke-width="0.3" stroke-miterlimit="22.9256"/>
<path d="M32.2421 30.1756L28.815 28.7002C28.3077 28.4818 27.7753 28.5864 27.6257 28.9337C27.4762 29.281 27.7662 29.7397 28.2735 29.958L31.7006 31.4334C32.2078 31.6518 32.7403 31.5473 32.8898 31.1999C33.0393 30.8526 32.7493 30.394 32.2421 30.1756Z" fill="#373435" stroke="#373435" stroke-width="0.3" stroke-miterlimit="22.9256"/>
<path d="M32.2421 33.7784L28.815 32.303C28.3077 32.0846 27.7753 32.1892 27.6257 32.5365C27.4762 32.8838 27.7662 33.3424 28.2735 33.5608L31.7006 35.0362C32.2078 35.2546 32.7403 35.1501 32.8898 34.8027C33.0393 34.4554 32.7493 33.9968 32.2421 33.7784Z" fill="#373435" stroke="#373435" stroke-width="0.3" stroke-miterlimit="22.9256"/>
<path d="M32.2421 37.3814L28.815 35.906C28.3077 35.6877 27.7753 35.7922 27.6257 36.1395C27.4762 36.4869 27.7662 36.9455 28.2735 37.1639L31.7006 38.6392C32.2078 38.8576 32.7403 38.7531 32.8898 38.4058C33.0393 38.0584 32.7493 37.5998 32.2421 37.3814Z" fill="#373435" stroke="#373435" stroke-width="0.3" stroke-miterlimit="22.9256"/>
<path d="M32.2421 40.9842L28.815 39.5088C28.3077 39.2904 27.7753 39.395 27.6257 39.7423C27.4762 40.0896 27.7662 40.5482 28.2735 40.7666L31.7006 42.242C32.2078 42.4604 32.7403 42.3559 32.8898 42.0085C33.0393 41.6612 32.7493 41.2026 32.2421 40.9842Z" fill="#373435" stroke="#373435" stroke-width="0.3" stroke-miterlimit="22.9256"/>
<path d="M37.8705 22.9698L41.2976 21.4944C41.8048 21.276 42.3373 21.3806 42.4868 21.7279C42.6363 22.0752 42.3463 22.5338 41.8391 22.7522L38.412 24.2276C37.9047 24.446 37.3723 24.3415 37.2227 23.9941C37.0732 23.6468 37.3632 23.1882 37.8705 22.9698Z" fill="#373435" stroke="#373435" stroke-width="0.3" stroke-miterlimit="22.9256"/>
<path d="M37.8705 26.5727L41.2976 25.0973C41.8048 24.8789 42.3373 24.9835 42.4868 25.3308C42.6363 25.6781 42.3463 26.1367 41.8391 26.3551L38.412 27.8305C37.9047 28.0489 37.3723 27.9444 37.2227 27.597C37.0732 27.2497 37.3632 26.7911 37.8705 26.5727Z" fill="#373435" stroke="#373435" stroke-width="0.3" stroke-miterlimit="22.9256"/>
<path d="M37.8705 30.1756L41.2976 28.7002C41.8048 28.4818 42.3373 28.5864 42.4868 28.9337C42.6363 29.281 42.3463 29.7397 41.8391 29.958L38.412 31.4334C37.9047 31.6518 37.3723 31.5473 37.2227 31.1999C37.0732 30.8526 37.3632 30.394 37.8705 30.1756Z" fill="#373435" stroke="#373435" stroke-width="0.3" stroke-miterlimit="22.9256"/>
<path d="M37.8705 33.7784L41.2976 32.303C41.8048 32.0846 42.3373 32.1892 42.4868 32.5365C42.6363 32.8838 42.3463 33.3424 41.8391 33.5608L38.412 35.0362C37.9047 35.2546 37.3723 35.1501 37.2227 34.8027C37.0732 34.4554 37.3632 33.9968 37.8705 33.7784Z" fill="#373435" stroke="#373435" stroke-width="0.3" stroke-miterlimit="22.9256"/>
<path d="M37.8705 37.3814L41.2976 35.906C41.8048 35.6877 42.3373 35.7922 42.4868 36.1395C42.6363 36.4869 42.3463 36.9455 41.8391 37.1639L38.412 38.6392C37.9047 38.8576 37.3723 38.7531 37.2227 38.4058C37.0732 38.0584 37.3632 37.5998 37.8705 37.3814Z" fill="#373435" stroke="#373435" stroke-width="0.3" stroke-miterlimit="22.9256"/>
<path d="M37.8705 40.9842L41.2976 39.5088C41.8048 39.2904 42.3373 39.395 42.4868 39.7423C42.6363 40.0896 42.3463 40.5482 41.8391 40.7666L38.412 42.242C37.9047 42.4604 37.3723 42.3559 37.2227 42.0085C37.0732 41.6612 37.3632 41.2026 37.8705 40.9842Z" fill="#373435" stroke="#373435" stroke-width="0.3" stroke-miterlimit="22.9256"/>
<path d="M34.9919 57.5381V63.8601" stroke="#C43340" stroke-miterlimit="22.9256"/>
</svg>
