<svg width="100" height="100" viewBox="0 0 100 100" fill="none" xmlns="http://www.w3.org/2000/svg">
<g id="Banquet Hall 1">
<g id="Layer_x0020_1">
<path id="Vector" d="M18.1109 17.5321C18.1109 17.5321 17.7271 26.1499 13.125 33.1362" stroke="#373435" stroke-width="0.639874" stroke-miterlimit="22.9256"/>
<path id="Vector_2" d="M23.8968 19.5738C23.8968 19.5738 21.6681 31.0215 14.9575 35.526" stroke="#373435" stroke-width="0.639874" stroke-miterlimit="22.9256"/>
<path id="Vector_3" fill-rule="evenodd" clip-rule="evenodd" d="M17.8066 37.0015C28.2271 30.9684 30.1426 21.5408 30.1426 21.5408C30.1426 21.5408 34.7631 39.1952 17.8066 37.0015Z" stroke="#373435" stroke-width="0.639874" stroke-miterlimit="22.9256"/>
<path id="Vector_4" fill-rule="evenodd" clip-rule="evenodd" d="M17.7317 39.05C17.7317 39.05 23.9344 48.5638 23.3034 55.0816C23.3034 55.0816 22.2926 56.2556 20.5155 55.7853C20.5155 55.7853 20.6112 58.7855 16.1523 60.1681C16.1523 60.1681 16.6002 41.8055 14.374 37.3931C14.374 37.3931 15.5839 38.6975 16.6578 38.8737C17.8124 39.0626 17.7317 39.05 17.7317 39.05Z" stroke="#373435" stroke-width="0.639874" stroke-miterlimit="22.9256"/>
<path id="Vector_5" d="M16.658 38.8737C16.658 38.8737 20.7635 50.3567 20.5157 55.7853" stroke="#373435" stroke-width="0.639874" stroke-miterlimit="22.9256"/>
<path id="Vector_6" fill-rule="evenodd" clip-rule="evenodd" d="M14.2562 34.0534C14.2562 34.0534 15.1132 36.6055 18.2306 37.2072C18.2306 37.2072 18.3449 38.942 17.7317 39.05C17.1184 39.1579 14.2928 38.1918 14.001 37.189C13.7093 36.1862 13.9462 34.4727 13.9462 34.4727L14.2562 34.0534Z" stroke="#373435" stroke-width="0.639874" stroke-miterlimit="22.9256"/>
<path id="Vector_7" d="M80.8445 17.5321C80.8445 17.5321 81.2283 26.1499 85.8304 33.1362" stroke="#373435" stroke-width="0.639874" stroke-miterlimit="22.9256"/>
<path id="Vector_8" d="M75.0586 19.5738C75.0586 19.5738 77.2873 31.0215 83.9979 35.526" stroke="#373435" stroke-width="0.639874" stroke-miterlimit="22.9256"/>
<path id="Vector_9" fill-rule="evenodd" clip-rule="evenodd" d="M81.1489 37.0015C70.7285 30.9684 68.813 21.5408 68.813 21.5408C68.813 21.5408 64.1925 39.1952 81.1489 37.0015Z" stroke="#373435" stroke-width="0.639874" stroke-miterlimit="22.9256"/>
<path id="Vector_10" fill-rule="evenodd" clip-rule="evenodd" d="M81.2237 39.05C81.2237 39.05 75.0211 48.5638 75.652 55.0816C75.652 55.0816 76.6628 56.2556 78.4399 55.7853C78.4399 55.7853 78.3442 58.7855 82.8031 60.1681C82.8031 60.1681 82.3553 41.8055 84.5814 37.3931C84.5814 37.3931 83.3715 38.6975 82.2976 38.8737C81.2237 39.05 81.2237 39.05 81.2237 39.05Z" stroke="#373435" stroke-width="0.639874" stroke-miterlimit="22.9256"/>
<path id="Vector_11" d="M82.2975 38.8737C82.2975 38.8737 78.1919 50.3567 78.4397 55.7853" stroke="#373435" stroke-width="0.639874" stroke-miterlimit="22.9256"/>
<path id="Vector_12" fill-rule="evenodd" clip-rule="evenodd" d="M84.6992 34.0534C84.6992 34.0534 83.8422 36.6055 80.7247 37.2072C80.7247 37.2072 80.6104 38.942 81.2236 39.05C81.8369 39.1579 84.6625 38.1918 84.9543 37.189C85.246 36.1863 85.0091 34.4727 85.0091 34.4727L84.6992 34.0534Z" stroke="#373435" stroke-width="0.639874" stroke-miterlimit="22.9256"/>
<path id="Vector_13" d="M85.5652 13.9812H13.7407V86.0181H85.5652V13.9812Z" stroke="#C43340" stroke-width="2" stroke-miterlimit="22.9256"/>
<g id="_1700342980880">
<path id="Vector_14" d="M28.0919 63.0644H21.3176C20.7653 63.0644 20.3176 63.478 20.3176 63.9881V73.7395C20.3176 74.2496 20.7653 74.6631 21.3176 74.6631H28.0919C28.6441 74.6631 29.0918 74.2496 29.0918 73.7395V63.9881C29.0918 63.478 28.6441 63.0644 28.0919 63.0644Z" fill="#FADC5A" stroke="#C43340" stroke-miterlimit="22.9256"/>
<path id="Vector_15" d="M39.7457 63.0644H32.9714C32.4191 63.0644 31.9714 63.478 31.9714 63.9881V73.7395C31.9714 74.2496 32.4191 74.6631 32.9714 74.6631H39.7457C40.298 74.6631 40.7456 74.2496 40.7456 73.7395V63.9881C40.7456 63.478 40.298 63.0644 39.7457 63.0644Z" fill="#FADC5A" stroke="#C43340" stroke-miterlimit="22.9256"/>
<path id="Vector_16" d="M52.6454 63.0644H45.871C45.3188 63.0644 44.8711 63.478 44.8711 63.9881V73.7395C44.8711 74.2496 45.3188 74.6631 45.871 74.6631H52.6454C53.1976 74.6631 53.6453 74.2496 53.6453 73.7395V63.9881C53.6453 63.478 53.1976 63.0644 52.6454 63.0644Z" fill="#FADC5A" stroke="#C43340" stroke-miterlimit="22.9256"/>
<path id="Vector_17" d="M65.1153 63.0644H58.341C57.7887 63.0644 57.3411 63.478 57.3411 63.9881V73.7395C57.3411 74.2496 57.7887 74.6631 58.341 74.6631H65.1153C65.6676 74.6631 66.1153 74.2496 66.1153 73.7395V63.9881C66.1153 63.478 65.6676 63.0644 65.1153 63.0644Z" fill="#FADC5A" stroke="#C43340" stroke-miterlimit="22.9256"/>
<path id="Vector_18" d="M77.8783 63.0644H71.1039C70.5517 63.0644 70.104 63.478 70.104 63.9881V73.7395C70.104 74.2496 70.5517 74.6631 71.1039 74.6631H77.8783C78.4305 74.6631 78.8782 74.2496 78.8782 73.7395V63.9881C78.8782 63.478 78.4305 63.0644 77.8783 63.0644Z" fill="#FADC5A" stroke="#C43340" stroke-miterlimit="22.9256"/>
<path id="Vector_19" d="M21.8087 69.2308H15.0343C14.4821 69.2308 14.0344 69.6443 14.0344 70.1544V79.9058C14.0344 80.4159 14.4821 80.8295 15.0343 80.8295H21.8087C22.3609 80.8295 22.8086 80.4159 22.8086 79.9058V70.1544C22.8086 69.6443 22.3609 69.2308 21.8087 69.2308Z" fill="#FADC5A" stroke="#C43340" stroke-miterlimit="22.9256"/>
<path id="Vector_20" d="M33.4625 69.2308H26.6882C26.1359 69.2308 25.6882 69.6443 25.6882 70.1544V79.9058C25.6882 80.4159 26.1359 80.8295 26.6882 80.8295H33.4625C34.0148 80.8295 34.4624 80.4159 34.4624 79.9058V70.1544C34.4624 69.6443 34.0148 69.2308 33.4625 69.2308Z" fill="#FADC5A" stroke="#C43340" stroke-miterlimit="22.9256"/>
<path id="Vector_21" d="M46.3622 69.2308H39.5878C39.0356 69.2308 38.5879 69.6443 38.5879 70.1544V79.9058C38.5879 80.4159 39.0356 80.8295 39.5878 80.8295H46.3622C46.9144 80.8295 47.3621 80.4159 47.3621 79.9058V70.1544C47.3621 69.6443 46.9144 69.2308 46.3622 69.2308Z" fill="#FADC5A" stroke="#C43340" stroke-miterlimit="22.9256"/>
<path id="Vector_22" d="M58.8321 69.2308H52.0578C51.5055 69.2308 51.0579 69.6443 51.0579 70.1544V79.9058C51.0579 80.4159 51.5055 80.8295 52.0578 80.8295H58.8321C59.3844 80.8295 59.8321 80.4159 59.8321 79.9058V70.1544C59.8321 69.6443 59.3844 69.2308 58.8321 69.2308Z" fill="#FADC5A" stroke="#C43340" stroke-miterlimit="22.9256"/>
<path id="Vector_23" d="M71.5948 69.2308H64.8205C64.2682 69.2308 63.8206 69.6443 63.8206 70.1544V79.9058C63.8206 80.4159 64.2682 80.8295 64.8205 80.8295H71.5948C72.1471 80.8295 72.5948 80.4159 72.5948 79.9058V70.1544C72.5948 69.6443 72.1471 69.2308 71.5948 69.2308Z" fill="#FADC5A" stroke="#C43340" stroke-miterlimit="22.9256"/>
<path id="Vector_24" d="M84.2721 69.2308H77.4977C76.9455 69.2308 76.4978 69.6443 76.4978 70.1544V79.9058C76.4978 80.4159 76.9455 80.8295 77.4977 80.8295H84.2721C84.8243 80.8295 85.272 80.4159 85.272 79.9058V70.1544C85.272 69.6443 84.8243 69.2308 84.2721 69.2308Z" fill="#FADC5A" stroke="#C43340" stroke-miterlimit="22.9256"/>
<path id="Vector_25" d="M27.3043 74.4194H20.53C19.9777 74.4194 19.53 74.8329 19.53 75.343V85.0944C19.53 85.6045 19.9777 86.0181 20.53 86.0181H27.3043C27.8565 86.0181 28.3042 85.6045 28.3042 85.0944V75.343C28.3042 74.8329 27.8565 74.4194 27.3043 74.4194Z" fill="#FADC5A" stroke="#C43340" stroke-miterlimit="22.9256"/>
<path id="Vector_26" d="M40.171 74.4194H33.3967C32.8444 74.4194 32.3967 74.8329 32.3967 75.343V85.0944C32.3967 85.6045 32.8444 86.0181 33.3967 86.0181H40.171C40.7232 86.0181 41.1709 85.6045 41.1709 85.0944V75.343C41.1709 74.8329 40.7232 74.4194 40.171 74.4194Z" fill="#FADC5A" stroke="#C43340" stroke-miterlimit="22.9256"/>
<path id="Vector_27" d="M53.0379 74.4194H46.2636C45.7114 74.4194 45.2637 74.8329 45.2637 75.343V85.0944C45.2637 85.6045 45.7114 86.0181 46.2636 86.0181H53.0379C53.5902 86.0181 54.0379 85.6045 54.0379 85.0944V75.343C54.0379 74.8329 53.5902 74.4194 53.0379 74.4194Z" fill="#FADC5A" stroke="#C43340" stroke-miterlimit="22.9256"/>
<path id="Vector_28" d="M65.9046 74.4194H59.1303C58.578 74.4194 58.1304 74.8329 58.1304 75.343V85.0944C58.1304 85.6045 58.578 86.0181 59.1303 86.0181H65.9046C66.4569 86.0181 66.9046 85.6045 66.9046 85.0944V75.343C66.9046 74.8329 66.4569 74.4194 65.9046 74.4194Z" fill="#FADC5A" stroke="#C43340" stroke-miterlimit="22.9256"/>
<path id="Vector_29" d="M78.7713 74.4194H71.997C71.4448 74.4194 70.9971 74.8329 70.9971 75.343V85.0944C70.9971 85.6045 71.4448 86.0181 71.997 86.0181H78.7713C79.3236 86.0181 79.7713 85.6045 79.7713 85.0944V75.343C79.7713 74.8329 79.3236 74.4194 78.7713 74.4194Z" fill="#FADC5A" stroke="#C43340" stroke-miterlimit="22.9256"/>
</g>
<path id="Vector_30" fill-rule="evenodd" clip-rule="evenodd" d="M43.8535 60.4037H55.7954V50.8764C55.7954 48.6762 53.9957 46.8764 51.7955 46.8764H47.8535C45.6533 46.8764 43.8535 48.6762 43.8535 50.8764V60.4037Z" fill="#373435" stroke="#373435" stroke-width="1.59987" stroke-miterlimit="22.9256"/>
<path id="Vector_31" d="M13.7407 60.4037H85.5652" stroke="#C43340" stroke-width="1.59987" stroke-miterlimit="22.9256"/>
<path id="Vector_32" d="M22.6895 13.9815C22.6895 13.9815 47.4164 20.2612 79.8701 13.9815" stroke="#C43340" stroke-width="1.59987" stroke-miterlimit="22.9256"/>
<path id="Vector_33" d="M14.3025 14.8047C14.3025 14.8047 44.8249 23.9559 86.259 15.6388" stroke="#C43340" stroke-width="1.59987" stroke-miterlimit="22.9256"/>
<path id="Vector_34" d="M14.855 15.7671C14.855 15.7671 45.5198 32.6441 86.259 15.6385" stroke="#C43340" stroke-width="1.59987" stroke-miterlimit="22.9256"/>
</g>
</g>
</svg>
