<svg width="100" height="100" viewBox="0 0 100 100" fill="none" xmlns="http://www.w3.org/2000/svg">
<g id="bbq_8927668 1">
<g id="Vector">
<mask id="path-1-inside-1_180_3066" fill="white">
<path d="M82.8125 37.8906H7.81246C6.77677 37.8886 5.77536 38.2616 4.99345 38.9408C4.21153 39.62 3.702 40.5593 3.55908 41.5851C3.41616 42.6109 3.64952 43.6537 4.21601 44.5208C4.78249 45.3878 5.64378 46.0204 6.64059 46.3016V54.6875C6.64389 57.4837 7.75614 60.1644 9.73335 62.1416C11.7106 64.1188 14.3913 65.2311 17.1875 65.2344H17.3125L6.89996 93.8422C6.70691 94.3725 6.62023 94.9356 6.64485 95.4995C6.66947 96.0633 6.80491 96.6167 7.04345 97.1282C7.28199 97.6396 7.61894 98.0991 8.03507 98.4803C8.4512 98.8616 8.93836 99.1571 9.46871 99.35C9.99809 99.5436 10.5606 99.6306 11.1237 99.6059C11.6868 99.5813 12.2395 99.4454 12.75 99.2062C13.263 98.9694 13.724 98.6331 14.1062 98.2169C14.4884 97.8006 14.7842 97.3126 14.9765 96.7812L17.3593 90.2344H41.0156V95.3125C41.0156 96.4521 41.4683 97.545 42.2741 98.3508C43.0799 99.1567 44.1729 99.6094 45.3125 99.6094C46.4521 99.6094 47.545 99.1567 48.3508 98.3508C49.1566 97.545 49.6093 96.4521 49.6093 95.3125V90.2344H73.2656L75.6484 96.7812C75.9506 97.6099 76.5001 98.3257 77.2225 98.8318C77.945 99.3379 78.8054 99.6099 79.6875 99.6109C80.1895 99.6099 80.6875 99.5216 81.1593 99.35C81.6897 99.1571 82.1768 98.8616 82.593 98.4803C83.0091 98.0991 83.3461 97.6396 83.5846 97.1282C83.8231 96.6167 83.9586 96.0633 83.9832 95.4995C84.0078 94.9356 83.9211 94.3725 83.7281 93.8422L73.3125 65.2344H73.4375C76.2337 65.2311 78.9144 64.1188 80.8916 62.1416C82.8688 60.1644 83.981 57.4837 83.9843 54.6875V46.3016C84.9811 46.0204 85.8424 45.3878 86.4089 44.5208C86.9754 43.6537 87.2088 42.6109 87.0658 41.5851C86.9229 40.5593 86.4134 39.62 85.6315 38.9408C84.8496 38.2616 83.8482 37.8886 82.8125 37.8906ZM12.7734 95.9797C12.6882 96.224 12.5554 96.449 12.3826 96.6415C12.2097 96.8341 12.0003 96.9904 11.7666 97.1013C11.5329 97.2123 11.2794 97.2757 11.0209 97.2878C10.7625 97.3 10.5042 97.2607 10.2611 97.1722C10.0179 97.0837 9.79479 96.9478 9.60463 96.7723C9.41447 96.5969 9.26106 96.3854 9.15333 96.1501C9.04559 95.9149 8.98567 95.6606 8.97705 95.402C8.96842 95.1434 9.01126 94.8856 9.10309 94.6437L19.8078 65.2344H23.964L12.7734 95.9797ZM41.0156 87.8906H18.2125L19.0656 85.5469H41.0156V87.8906ZM41.0156 83.2031H19.9218L26.4625 65.2344H41.0156V83.2031ZM47.2656 95.3125C47.2656 95.8305 47.0598 96.3273 46.6935 96.6936C46.3272 97.0599 45.8305 97.2656 45.3125 97.2656C44.7945 97.2656 44.2977 97.0599 43.9314 96.6936C43.5651 96.3273 43.3593 95.8305 43.3593 95.3125V62.5C43.3593 61.982 43.5651 61.4852 43.9314 61.1189C44.2977 60.7526 44.7945 60.5469 45.3125 60.5469C45.8305 60.5469 46.3272 60.7526 46.6935 61.1189C47.0598 61.4852 47.2656 61.982 47.2656 62.5V95.3125ZM49.6093 87.8906V85.5469H71.5625L72.4156 87.8906H49.6093ZM49.6093 83.2031V65.2344H64.1656L70.7062 83.2031H49.6093ZM81.5218 94.6437C81.6908 95.1285 81.6621 95.6603 81.442 96.1241C81.2218 96.5878 80.828 96.9463 80.3456 97.1219C79.8632 97.2975 79.331 97.2761 78.8643 97.0623C78.3975 96.8486 78.0337 96.4596 77.8515 95.9797L66.6609 65.2344H70.8172L81.5218 94.6437ZM81.6406 54.6875C81.6381 56.8623 80.7731 58.9474 79.2352 60.4852C77.6974 62.0231 75.6123 62.8881 73.4375 62.8906H49.6093V62.5C49.6093 61.3604 49.1566 60.2675 48.3508 59.4617C47.545 58.6558 46.4521 58.2031 45.3125 58.2031C44.1729 58.2031 43.0799 58.6558 42.2741 59.4617C41.4683 60.2675 41.0156 61.3604 41.0156 62.5V62.8906H17.1875C15.0126 62.8881 12.9276 62.0231 11.3897 60.4852C9.85187 58.9474 8.98682 56.8623 8.98434 54.6875V46.4844H81.6406V54.6875ZM82.8125 44.1406H7.81246C7.29446 44.1406 6.79767 43.9348 6.43139 43.5686C6.06511 43.2023 5.85934 42.7055 5.85934 42.1875C5.85934 41.6695 6.06511 41.1727 6.43139 40.8064C6.79767 40.4401 7.29446 40.2344 7.81246 40.2344H82.8125C83.3305 40.2344 83.8272 40.4401 84.1935 40.8064C84.5598 41.1727 84.7656 41.6695 84.7656 42.1875C84.7656 42.7055 84.5598 43.2023 84.1935 43.5686C83.8272 43.9348 83.3305 44.1406 82.8125 44.1406Z"/>
</mask>
<path d="M82.8125 37.8906H7.81246C6.77677 37.8886 5.77536 38.2616 4.99345 38.9408C4.21153 39.62 3.702 40.5593 3.55908 41.5851C3.41616 42.6109 3.64952 43.6537 4.21601 44.5208C4.78249 45.3878 5.64378 46.0204 6.64059 46.3016V54.6875C6.64389 57.4837 7.75614 60.1644 9.73335 62.1416C11.7106 64.1188 14.3913 65.2311 17.1875 65.2344H17.3125L6.89996 93.8422C6.70691 94.3725 6.62023 94.9356 6.64485 95.4995C6.66947 96.0633 6.80491 96.6167 7.04345 97.1282C7.28199 97.6396 7.61894 98.0991 8.03507 98.4803C8.4512 98.8616 8.93836 99.1571 9.46871 99.35C9.99809 99.5436 10.5606 99.6306 11.1237 99.6059C11.6868 99.5813 12.2395 99.4454 12.75 99.2062C13.263 98.9694 13.724 98.6331 14.1062 98.2169C14.4884 97.8006 14.7842 97.3126 14.9765 96.7812L17.3593 90.2344H41.0156V95.3125C41.0156 96.4521 41.4683 97.545 42.2741 98.3508C43.0799 99.1567 44.1729 99.6094 45.3125 99.6094C46.4521 99.6094 47.545 99.1567 48.3508 98.3508C49.1566 97.545 49.6093 96.4521 49.6093 95.3125V90.2344H73.2656L75.6484 96.7812C75.9506 97.6099 76.5001 98.3257 77.2225 98.8318C77.945 99.3379 78.8054 99.6099 79.6875 99.6109C80.1895 99.6099 80.6875 99.5216 81.1593 99.35C81.6897 99.1571 82.1768 98.8616 82.593 98.4803C83.0091 98.0991 83.3461 97.6396 83.5846 97.1282C83.8231 96.6167 83.9586 96.0633 83.9832 95.4995C84.0078 94.9356 83.9211 94.3725 83.7281 93.8422L73.3125 65.2344H73.4375C76.2337 65.2311 78.9144 64.1188 80.8916 62.1416C82.8688 60.1644 83.981 57.4837 83.9843 54.6875V46.3016C84.9811 46.0204 85.8424 45.3878 86.4089 44.5208C86.9754 43.6537 87.2088 42.6109 87.0658 41.5851C86.9229 40.5593 86.4134 39.62 85.6315 38.9408C84.8496 38.2616 83.8482 37.8886 82.8125 37.8906ZM12.7734 95.9797C12.6882 96.224 12.5554 96.449 12.3826 96.6415C12.2097 96.8341 12.0003 96.9904 11.7666 97.1013C11.5329 97.2123 11.2794 97.2757 11.0209 97.2878C10.7625 97.3 10.5042 97.2607 10.2611 97.1722C10.0179 97.0837 9.79479 96.9478 9.60463 96.7723C9.41447 96.5969 9.26106 96.3854 9.15333 96.1501C9.04559 95.9149 8.98567 95.6606 8.97705 95.402C8.96842 95.1434 9.01126 94.8856 9.10309 94.6437L19.8078 65.2344H23.964L12.7734 95.9797ZM41.0156 87.8906H18.2125L19.0656 85.5469H41.0156V87.8906ZM41.0156 83.2031H19.9218L26.4625 65.2344H41.0156V83.2031ZM47.2656 95.3125C47.2656 95.8305 47.0598 96.3273 46.6935 96.6936C46.3272 97.0599 45.8305 97.2656 45.3125 97.2656C44.7945 97.2656 44.2977 97.0599 43.9314 96.6936C43.5651 96.3273 43.3593 95.8305 43.3593 95.3125V62.5C43.3593 61.982 43.5651 61.4852 43.9314 61.1189C44.2977 60.7526 44.7945 60.5469 45.3125 60.5469C45.8305 60.5469 46.3272 60.7526 46.6935 61.1189C47.0598 61.4852 47.2656 61.982 47.2656 62.5V95.3125ZM49.6093 87.8906V85.5469H71.5625L72.4156 87.8906H49.6093ZM49.6093 83.2031V65.2344H64.1656L70.7062 83.2031H49.6093ZM81.5218 94.6437C81.6908 95.1285 81.6621 95.6603 81.442 96.1241C81.2218 96.5878 80.828 96.9463 80.3456 97.1219C79.8632 97.2975 79.331 97.2761 78.8643 97.0623C78.3975 96.8486 78.0337 96.4596 77.8515 95.9797L66.6609 65.2344H70.8172L81.5218 94.6437ZM81.6406 54.6875C81.6381 56.8623 80.7731 58.9474 79.2352 60.4852C77.6974 62.0231 75.6123 62.8881 73.4375 62.8906H49.6093V62.5C49.6093 61.3604 49.1566 60.2675 48.3508 59.4617C47.545 58.6558 46.4521 58.2031 45.3125 58.2031C44.1729 58.2031 43.0799 58.6558 42.2741 59.4617C41.4683 60.2675 41.0156 61.3604 41.0156 62.5V62.8906H17.1875C15.0126 62.8881 12.9276 62.0231 11.3897 60.4852C9.85187 58.9474 8.98682 56.8623 8.98434 54.6875V46.4844H81.6406V54.6875ZM82.8125 44.1406H7.81246C7.29446 44.1406 6.79767 43.9348 6.43139 43.5686C6.06511 43.2023 5.85934 42.7055 5.85934 42.1875C5.85934 41.6695 6.06511 41.1727 6.43139 40.8064C6.79767 40.4401 7.29446 40.2344 7.81246 40.2344H82.8125C83.3305 40.2344 83.8272 40.4401 84.1935 40.8064C84.5598 41.1727 84.7656 41.6695 84.7656 42.1875C84.7656 42.7055 84.5598 43.2023 84.1935 43.5686C83.8272 43.9348 83.3305 44.1406 82.8125 44.1406Z" fill="#C43340" stroke="#FADC5A" stroke-width="0.6" mask="url(#path-1-inside-1_180_3066)"/>
</g>
<path id="Vector_2" d="M95.3125 26.9531H69.9219V26.5625C69.921 25.4232 69.4681 24.3307 68.6624 23.5251C67.8568 22.7194 66.7643 22.2665 65.625 22.2656H62.5C61.9133 22.2665 61.333 22.3882 60.7954 22.6232C60.2577 22.8581 59.7742 23.2013 59.375 23.6312C58.9758 23.2013 58.4923 22.8581 57.9546 22.6232C57.417 22.3882 56.8367 22.2665 56.25 22.2656H53.125C52.5383 22.2665 51.958 22.3882 51.4204 22.6232C50.8827 22.8581 50.3992 23.2013 50 23.6312C49.6008 23.2013 49.1173 22.8581 48.5796 22.6232C48.042 22.3882 47.4617 22.2665 46.875 22.2656H43.75C43.1633 22.2665 42.583 22.3882 42.0454 22.6232C41.5077 22.8581 41.0242 23.2013 40.625 23.6312C40.2258 23.2013 39.7423 22.8581 39.2046 22.6232C38.667 22.3882 38.0867 22.2665 37.5 22.2656H34.375C33.7883 22.2665 33.208 22.3882 32.6704 22.6232C32.1327 22.8581 31.6492 23.2013 31.25 23.6312C30.8508 23.2013 30.3673 22.8581 29.8296 22.6232C29.292 22.3882 28.7117 22.2665 28.125 22.2656H25C23.8607 22.2665 22.7682 22.7194 21.9626 23.5251C21.1569 24.3307 20.704 25.4232 20.7031 26.5625V26.9531H14.0625C13.7517 26.9531 13.4536 27.0766 13.2339 27.2964C13.0141 27.5161 12.8906 27.8142 12.8906 28.125C12.8906 28.4358 13.0141 28.7339 13.2339 28.9536C13.4536 29.1734 13.7517 29.2969 14.0625 29.2969H20.7031V29.6875C20.704 30.8268 21.1569 31.9193 21.9626 32.7249C22.7682 33.5306 23.8607 33.9835 25 33.9844H28.125C28.7117 33.9835 29.292 33.8618 29.8296 33.6268C30.3673 33.3919 30.8508 33.0487 31.25 32.6187C31.6492 33.0487 32.1327 33.3919 32.6704 33.6268C33.208 33.8618 33.7883 33.9835 34.375 33.9844H37.5C38.0867 33.9835 38.667 33.8618 39.2046 33.6268C39.7423 33.3919 40.2258 33.0487 40.625 32.6187C41.0242 33.0487 41.5077 33.3919 42.0454 33.6268C42.583 33.8618 43.1633 33.9835 43.75 33.9844H46.875C47.4617 33.9835 48.042 33.8618 48.5796 33.6268C49.1173 33.3919 49.6008 33.0487 50 32.6187C50.3992 33.0487 50.8827 33.3919 51.4204 33.6268C51.958 33.8618 52.5383 33.9835 53.125 33.9844H56.25C56.8367 33.9835 57.417 33.8618 57.9546 33.6268C58.4923 33.3919 58.9758 33.0487 59.375 32.6187C59.7742 33.0487 60.2577 33.3919 60.7954 33.6268C61.333 33.8618 61.9133 33.9835 62.5 33.9844H65.625C66.7643 33.9835 67.8568 33.5306 68.6624 32.7249C69.4681 31.9193 69.921 30.8268 69.9219 29.6875V29.2969H95.3125C95.6233 29.2969 95.9214 29.1734 96.1411 28.9536C96.3609 28.7339 96.4844 28.4358 96.4844 28.125C96.4844 27.8142 96.3609 27.5161 96.1411 27.2964C95.9214 27.0766 95.6233 26.9531 95.3125 26.9531ZM30.0781 29.6875C30.0773 30.2052 29.8713 30.7016 29.5052 31.0677C29.1391 31.4338 28.6427 31.6398 28.125 31.6406H25C24.4823 31.6398 23.9859 31.4338 23.6198 31.0677C23.2537 30.7016 23.0477 30.2052 23.0469 29.6875V26.5625C23.0477 26.0448 23.2537 25.5484 23.6198 25.1823C23.9859 24.8162 24.4823 24.6102 25 24.6094H28.125C28.6427 24.6102 29.1391 24.8162 29.5052 25.1823C29.8713 25.5484 30.0773 26.0448 30.0781 26.5625V29.6875ZM39.4531 29.6875C39.4523 30.2052 39.2463 30.7016 38.8802 31.0677C38.5141 31.4338 38.0177 31.6398 37.5 31.6406H34.375C33.8573 31.6398 33.3609 31.4338 32.9948 31.0677C32.6287 30.7016 32.4227 30.2052 32.4219 29.6875V26.5625C32.4227 26.0448 32.6287 25.5484 32.9948 25.1823C33.3609 24.8162 33.8573 24.6102 34.375 24.6094H37.5C38.0177 24.6102 38.5141 24.8162 38.8802 25.1823C39.2463 25.5484 39.4523 26.0448 39.4531 26.5625V29.6875ZM48.8281 29.6875C48.8273 30.2052 48.6213 30.7016 48.2552 31.0677C47.8891 31.4338 47.3927 31.6398 46.875 31.6406H43.75C43.2323 31.6398 42.7359 31.4338 42.3698 31.0677C42.0037 30.7016 41.7977 30.2052 41.7969 29.6875V26.5625C41.7977 26.0448 42.0037 25.5484 42.3698 25.1823C42.7359 24.8162 43.2323 24.6102 43.75 24.6094H46.875C47.3927 24.6102 47.8891 24.8162 48.2552 25.1823C48.6213 25.5484 48.8273 26.0448 48.8281 26.5625V29.6875ZM58.2031 29.6875C58.2023 30.2052 57.9963 30.7016 57.6302 31.0677C57.2641 31.4338 56.7677 31.6398 56.25 31.6406H53.125C52.6073 31.6398 52.1109 31.4338 51.7448 31.0677C51.3787 30.7016 51.1727 30.2052 51.1719 29.6875V26.5625C51.1727 26.0448 51.3787 25.5484 51.7448 25.1823C52.1109 24.8162 52.6073 24.6102 53.125 24.6094H56.25C56.7677 24.6102 57.2641 24.8162 57.6302 25.1823C57.9963 25.5484 58.2023 26.0448 58.2031 26.5625V29.6875ZM67.5781 29.6875C67.5773 30.2052 67.3713 30.7016 67.0052 31.0677C66.6391 31.4338 66.1427 31.6398 65.625 31.6406H62.5C61.9823 31.6398 61.4859 31.4338 61.1198 31.0677C60.7537 30.7016 60.5477 30.2052 60.5469 29.6875V26.5625C60.5477 26.0448 60.7537 25.5484 61.1198 25.1823C61.4859 24.8162 61.9823 24.6102 62.5 24.6094H65.625C66.1427 24.6102 66.6391 24.8162 67.0052 25.1823C67.3713 25.5484 67.5773 26.0448 67.5781 26.5625V29.6875Z" fill="#373435"/>
<path id="Vector_3" d="M44.3968 8.64415C43.3373 9.95815 42.7595 11.5952 42.7595 13.2832C42.7595 14.9712 43.3373 16.6083 44.3968 17.9223C44.5949 18.1533 44.8751 18.2984 45.1781 18.3268C45.4811 18.3552 45.7833 18.2648 46.0209 18.0746C46.2585 17.8845 46.413 17.6094 46.4516 17.3075C46.4903 17.0056 46.4101 16.7006 46.2281 16.4566C45.5023 15.5582 45.1064 14.4382 45.1064 13.2832C45.1064 12.1283 45.5023 11.0082 46.2281 10.1098C47.2876 8.79576 47.8654 7.15866 47.8654 5.47071C47.8654 3.78275 47.2876 2.14565 46.2281 0.831644C46.1339 0.705474 46.0153 0.599543 45.8794 0.520158C45.7434 0.440774 45.5929 0.389559 45.4367 0.369564C45.2806 0.349569 45.122 0.361203 44.9704 0.403772C44.8188 0.446341 44.6774 0.518976 44.5545 0.617351C44.4316 0.715726 44.3297 0.837829 44.2549 0.97639C44.1802 1.11495 44.1341 1.26714 44.1194 1.42388C44.1047 1.58063 44.1217 1.73874 44.1693 1.88878C44.217 2.03883 44.2944 2.17775 44.3968 2.29727C45.1226 3.19569 45.5185 4.31575 45.5185 5.47071C45.5185 6.62566 45.1226 7.74572 44.3968 8.64415Z" fill="#C43340"/>
<path id="Vector_4" d="M35.0218 8.64415C33.9623 9.95815 33.3845 11.5953 33.3845 13.2832C33.3845 14.9712 33.9623 16.6083 35.0218 17.9223C35.116 18.0484 35.2346 18.1544 35.3706 18.2338C35.5065 18.3131 35.6571 18.3644 35.8132 18.3844C35.9694 18.4043 36.128 18.3927 36.2795 18.3501C36.4311 18.3076 36.5726 18.2349 36.6955 18.1366C36.8184 18.0382 36.9203 17.9161 36.995 17.7775C37.0698 17.639 37.1159 17.4868 37.1306 17.33C37.1453 17.1733 37.1283 17.0152 37.0806 16.8651C37.0329 16.7151 36.9556 16.5762 36.8531 16.4566C36.1273 15.5582 35.7314 14.4382 35.7314 13.2832C35.7314 12.1283 36.1273 11.0082 36.8531 10.1098C37.9126 8.79576 38.4904 7.15867 38.4904 5.47071C38.4904 3.78275 37.9126 2.14565 36.8531 0.831644C36.7589 0.705474 36.6403 0.599543 36.5044 0.520158C36.3684 0.440774 36.2179 0.389559 36.0617 0.369564C35.9056 0.349569 35.747 0.361203 35.5954 0.403772C35.4438 0.446341 35.3024 0.518976 35.1795 0.617351C35.0566 0.715726 34.9547 0.837829 34.8799 0.97639C34.8052 1.11495 34.7591 1.26714 34.7444 1.42388C34.7297 1.58063 34.7467 1.73874 34.7943 1.88878C34.842 2.03883 34.9194 2.17775 35.0218 2.29727C35.7476 3.19569 36.1435 4.31575 36.1435 5.47071C36.1435 6.62566 35.7476 7.74572 35.0218 8.64415Z" fill="#C43340"/>
<path id="Vector_5" d="M53.7718 8.64421C52.7123 9.95822 52.1345 11.5953 52.1345 13.2833C52.1345 14.9712 52.7123 16.6083 53.7718 17.9223C53.9699 18.1534 54.2501 18.2984 54.5531 18.3269C54.8561 18.3553 55.1583 18.2649 55.3959 18.0747C55.6335 17.8845 55.788 17.6095 55.8266 17.3076C55.8653 17.0057 55.7851 16.7006 55.6031 16.4567C54.8773 15.5583 54.4814 14.4382 54.4814 13.2833C54.4814 12.1283 54.8773 11.0083 55.6031 10.1098C56.6626 8.79583 57.2404 7.15873 57.2404 5.47078C57.2404 3.78282 56.6626 2.14572 55.6031 0.831713C55.405 0.600658 55.1249 0.455607 54.8219 0.427177C54.5188 0.398746 54.2166 0.48916 53.979 0.679335C53.7414 0.86951 53.587 1.14457 53.5483 1.44645C53.5097 1.74834 53.5898 2.05343 53.7718 2.29734C54.4976 3.19576 54.8935 4.31582 54.8935 5.47078C54.8935 6.62573 54.4976 7.74579 53.7718 8.64421Z" fill="#C43340"/>
</g>
</svg>
