<svg width="70" height="70" viewBox="0 0 70 70" fill="none" xmlns="http://www.w3.org/2000/svg">
<path d="M35 31V63" stroke="#373435" stroke-linecap="round" stroke-linejoin="round"/>
<path d="M46 58.5C46 46.4323 46 27.0988 46 27.0988L16 14.5" stroke="#373435" stroke-linecap="round" stroke-linejoin="round"/>
<path d="M24 58.5V27.0404L35 22.5" stroke="#373435" stroke-linecap="round" stroke-linejoin="round"/>
<path d="M15 55V23.0461L26 19" stroke="#373435" stroke-linecap="round" stroke-linejoin="round"/>
<path d="M4 19L15 23" stroke="#373435" stroke-linecap="round" stroke-linejoin="round"/>
<path d="M24 27L35 31L46 27" stroke="#373435" stroke-linecap="round" stroke-linejoin="round"/>
<path d="M46 19L55 15" stroke="#C43340" stroke-linecap="round" stroke-linejoin="round"/>
<path d="M36 15L44 11" stroke="#C43340" stroke-linecap="round" stroke-linejoin="round"/>
<path d="M55 23L66 19" stroke="#C43340" stroke-linecap="round" stroke-linejoin="round"/>
<path d="M66 19.019V51.0052L35 63L4 51.0052V19.019L35 7L66 19.019Z" stroke="#C43340" stroke-linecap="round" stroke-linejoin="round"/>
<path d="M55 55V23.099L26 11" stroke="#C43340" stroke-linecap="round" stroke-linejoin="round"/>
</svg>
