<svg width="84" height="84" viewBox="0 0 84 84" fill="none" xmlns="http://www.w3.org/2000/svg">
<g clip-path="url(#clip0_180_3264)">
<path d="M13.7578 57.8615H2.14097C1.50667 57.8615 0.993408 58.3755 0.993408 59.009V81.4769C0.993408 82.1105 1.50667 82.6245 2.14097 82.6245H13.7578C14.3913 82.6245 14.9054 82.1105 14.9054 81.4769V71.0584L39.9911 61.2377C40.4311 61.0651 40.7203 60.6415 40.7203 60.1693V42.9544H46.027C46.6605 42.9544 47.1746 42.4404 47.1746 41.8068V34.9947H49.2538C49.8873 34.9947 50.4013 34.4807 50.4013 33.8471V30.2617H65.6035C66.0727 30.2617 66.4948 29.9763 66.6689 29.5408L68.3596 25.3136H77.6499C78.2842 25.3136 78.7975 24.7996 78.7975 24.166V11.9037C78.7975 11.2702 78.2842 10.7562 77.6499 10.7562H74.1826L77.8547 1.57416C77.9966 1.22003 77.9533 0.81958 77.7396 0.5043C77.5267 0.189019 77.1703 0 76.7893 0H21.5016C17.781 0.00448266 14.7656 3.01982 14.7612 6.74118V23.5213C14.7656 27.2419 17.781 30.258 21.5016 30.2617H28.7448V33.8471C28.7448 34.4807 29.2588 34.9947 29.8924 34.9947H31.9716V41.8068C31.9716 42.4404 32.4856 42.9544 33.1192 42.9544H38.4259V59.3863L14.9054 68.5945V59.009C14.9054 58.3755 14.3913 57.8615 13.7578 57.8615ZM12.6102 80.3293H3.28853V60.1566H12.6102V80.3293ZM76.5024 13.0513V23.0185H69.2778L73.2644 13.0513H76.5024ZM21.5016 27.9666C19.0481 27.9636 17.0593 25.9748 17.0563 23.5213V6.74118C17.0593 4.28692 19.0481 2.29811 21.5016 2.29512H75.0948L64.8265 27.9666H21.5016ZM31.04 32.6995V30.2617H48.107V32.6995H31.04ZM34.2667 40.6593V34.9947H44.8794V40.6593H34.2667Z" fill="#C43340"/>
<path d="M22.7926 6.66871C22.159 6.66871 21.645 7.18272 21.645 7.81627V9.07366C21.645 9.70721 22.159 10.2212 22.7926 10.2212C23.4269 10.2212 23.9401 9.70721 23.9401 9.07366V7.81627C23.9401 7.18272 23.4269 6.66871 22.7926 6.66871Z" fill="#C43340"/>
<path d="M29.0294 6.66871C28.3958 6.66871 27.8818 7.18272 27.8818 7.81627V9.07366C27.8818 9.70721 28.3958 10.2212 29.0294 10.2212C29.6637 10.2212 30.177 9.70721 30.177 9.07366V7.81627C30.177 7.18272 29.6637 6.66871 29.0294 6.66871Z" fill="#C43340"/>
<path d="M35.2669 6.66871C34.6326 6.66871 34.1194 7.18272 34.1194 7.81627V9.07366C34.1194 9.70721 34.6326 10.2212 35.2669 10.2212C35.9005 10.2212 36.4145 9.70721 36.4145 9.07366V7.81627C36.4145 7.18272 35.9005 6.66871 35.2669 6.66871Z" fill="#C43340"/>
<path d="M41.504 6.66871C40.8705 6.66871 40.3564 7.18272 40.3564 7.81627V9.07366C40.3564 9.70721 40.8705 10.2212 41.504 10.2212C42.1383 10.2212 42.6516 9.70721 42.6516 9.07366V7.81627C42.6516 7.18272 42.1383 6.66871 41.504 6.66871Z" fill="#C43340"/>
<path d="M47.7416 6.66871C47.1073 6.66871 46.594 7.18272 46.594 7.81627V9.07366C46.594 9.70721 47.1073 10.2212 47.7416 10.2212C48.3751 10.2212 48.8891 9.70721 48.8891 9.07366V7.81627C48.8891 7.18272 48.3751 6.66871 47.7416 6.66871Z" fill="#C43340"/>
<path d="M53.9784 6.66871C53.3448 6.66871 52.8308 7.18272 52.8308 7.81627V9.07366C52.8308 9.70721 53.3448 10.2212 53.9784 10.2212C54.6119 10.2212 55.1259 9.70721 55.1259 9.07366V7.81627C55.1259 7.18272 54.6119 6.66871 53.9784 6.66871Z" fill="#C43340"/>
<path d="M60.2152 6.66871C59.5816 6.66871 59.0676 7.18272 59.0676 7.81627V9.07366C59.0676 9.70721 59.5816 10.2212 60.2152 10.2212C60.8487 10.2212 61.3628 9.70721 61.3628 9.07366V7.81627C61.3628 7.18272 60.8487 6.66871 60.2152 6.66871Z" fill="#C43340"/>
<path d="M66.453 10.2212C67.0865 10.2212 67.6005 9.70721 67.6005 9.07366V7.81627C67.6005 7.18272 67.0865 6.66871 66.453 6.66871C65.8187 6.66871 65.3054 7.18272 65.3054 7.81627V9.07366C65.3054 9.70721 65.8187 10.2212 66.453 10.2212Z" fill="#C43340"/>
<path d="M55.4383 79.4888C58.095 81.4283 61.0416 82.9352 64.169 83.9536C64.376 84.0141 64.5956 84.0156 64.8033 83.9565C68.0219 82.9457 71.0649 81.4425 73.8239 79.5C79.8135 75.2654 82.9798 69.6397 82.9798 63.2317V54.3859C82.9805 53.2757 82.3276 52.2686 81.3145 51.8151C75.7044 49.3377 70.3917 46.2372 65.475 42.5719C65.0671 42.2655 64.506 42.2655 64.0981 42.5719C59.1813 46.2372 53.8686 49.3377 48.2586 51.8151C47.2447 52.2686 46.5925 53.2757 46.5933 54.3859V63.231C46.5933 69.6322 49.6519 75.2542 55.4383 79.4888ZM48.8884 54.3859C48.8876 54.1819 49.0064 53.9967 49.1917 53.913C54.6957 51.4789 59.924 48.4643 64.7869 44.9185C69.6491 48.4636 74.8774 51.4789 80.3813 53.9122C80.5666 53.9967 80.6854 54.1819 80.6847 54.3859V63.231C80.6847 67.5037 79.1426 71.2908 76.0914 74.5355C76.0309 73.9273 75.5042 73.4723 74.8938 73.5022C74.2827 73.5314 73.803 74.0349 73.8015 74.6461V75.6883C73.8015 75.958 73.8964 76.2187 74.0697 76.4249C73.5886 76.8216 73.0828 77.2101 72.5516 77.5882C70.0764 79.3222 67.3637 80.6902 64.497 81.6487C61.7267 80.6864 59.1126 79.3215 56.7398 77.5971C56.2706 77.252 55.8223 76.8986 55.395 76.537C55.6348 76.3196 55.7715 76.0118 55.7715 75.689V74.6468C55.7715 74.0133 55.2575 73.4992 54.624 73.4992C53.9897 73.4992 53.4764 74.0133 53.4764 74.6468V74.7096C50.4297 71.4275 48.8884 67.5821 48.8884 63.231V54.3859Z" fill="#373435"/>
<path d="M64.787 73.4992C64.1527 73.4992 63.6394 74.0133 63.6394 74.6468V75.689C63.6394 76.3226 64.1527 76.8366 64.787 76.8366C65.4205 76.8366 65.9345 76.3226 65.9345 75.689V74.6468C65.9345 74.0133 65.4205 73.4992 64.787 73.4992Z" fill="#373435"/>
<path d="M68.1742 73.4992C67.5399 73.4992 67.0266 74.0133 67.0266 74.6468V75.689C67.0266 76.3226 67.5399 76.8366 68.1742 76.8366C68.8077 76.8366 69.3217 76.3226 69.3217 75.689V74.6468C69.3217 74.0133 68.8077 73.4992 68.1742 73.4992Z" fill="#373435"/>
<path d="M70.4141 74.6468V75.689C70.4141 76.3226 70.9281 76.8366 71.5616 76.8366C72.1952 76.8366 72.7092 76.3226 72.7092 75.689V74.6468C72.7092 74.0133 72.1952 73.4992 71.5616 73.4992C70.9281 73.4992 70.4141 74.0133 70.4141 74.6468Z" fill="#373435"/>
<path d="M61.3988 73.4992C60.7652 73.4992 60.2512 74.0133 60.2512 74.6468V75.689C60.2512 76.3226 60.7652 76.8366 61.3988 76.8366C62.0331 76.8366 62.5463 76.3226 62.5463 75.689V74.6468C62.5463 74.0133 62.0331 73.4992 61.3988 73.4992Z" fill="#373435"/>
<path d="M58.0113 76.8366C58.6449 76.8366 59.1589 76.3226 59.1589 75.689V74.6468C59.1589 74.0133 58.6449 73.4992 58.0113 73.4992C57.3778 73.4992 56.8638 74.0133 56.8638 74.6468V75.689C56.8638 76.3226 57.3778 76.8366 58.0113 76.8366Z" fill="#373435"/>
<path d="M62.5119 67.3752C62.9602 67.8234 63.6871 67.8234 64.1354 67.3752L70.9199 60.5914C71.3622 60.1424 71.3592 59.4207 70.9132 58.9747C70.4679 58.5294 69.7462 58.5264 69.2972 58.9687L63.3248 64.9403L60.2773 61.8929C59.829 61.4446 59.1021 61.4446 58.6538 61.8929C58.2056 62.3411 58.2056 63.0673 58.6538 63.5156L62.5119 67.3752Z" fill="#373435"/>
</g>
<defs>
<clipPath id="clip0_180_3264">
<rect width="84" height="84" fill="white"/>
</clipPath>
</defs>
</svg>
