<svg width="100" height="100" viewBox="0 0 100 100" fill="none" xmlns="http://www.w3.org/2000/svg">
<g id="cinema-screen_4998762 1">
<path id="Vector" d="M50 44.25H50.0006C53.0328 44.2465 55.9398 43.0405 58.0839 40.8964C60.228 38.7523 61.434 35.8453 61.4375 32.8131V32.8125C61.4375 30.5504 60.7667 28.3391 59.5099 26.4582C58.2532 24.5773 56.4669 23.1113 54.3769 22.2456C52.287 21.38 49.9873 21.1535 47.7687 21.5948C45.55 22.0361 43.512 23.1254 41.9125 24.725C40.3129 26.3245 39.2236 28.3625 38.7823 30.5812C38.341 32.7998 38.5675 35.0995 39.4331 37.1894C40.2988 39.2794 41.7648 41.0657 43.6457 42.3224C45.5266 43.5792 47.7379 44.25 50 44.25ZM42.4651 21.5357C44.6953 20.0455 47.3174 19.2501 49.9997 19.25C53.5955 19.2541 57.0429 20.6843 59.5856 23.2269C62.1283 25.7696 63.5585 29.2171 63.5625 32.8131C63.5624 35.4953 62.767 38.1172 61.2768 40.3474C59.7865 42.5778 57.6684 44.3161 55.1901 45.3426C52.7119 46.3691 49.985 46.6377 47.3541 46.1144C44.7232 45.5911 42.3066 44.2994 40.4099 42.4026C38.5131 40.5059 37.2214 38.0893 36.6981 35.4584C36.1748 32.8275 36.4434 30.1006 37.4699 27.6224C38.4964 25.1441 40.2347 23.026 42.4651 21.5357Z" fill="#C43340" stroke="#FADC5A"/>
<path id="Vector_2" d="M44.7547 25.6584L44.7549 25.6582C44.9089 25.5631 45.0845 25.5089 45.2652 25.5008C45.4459 25.4926 45.6257 25.5306 45.7875 25.6114C45.7876 25.6114 45.7876 25.6114 45.7877 25.6115L58.2873 31.8613L58.2879 31.8616C58.4647 31.9497 58.6134 32.0853 58.7174 32.2533C58.8214 32.4213 58.8765 32.615 58.8765 32.8125C58.8765 33.01 58.8214 33.2037 58.7174 33.3717C58.6134 33.5396 58.4647 33.6753 58.2879 33.7634L58.2873 33.7637L45.7874 40.0137C45.6254 40.0946 45.4454 40.1328 45.2644 40.1246C45.0835 40.1164 44.9076 40.0621 44.7536 39.9668L44.4926 40.3888L44.7536 39.9668C44.5995 39.8716 44.4724 39.7385 44.3843 39.5802C44.2961 39.422 44.2499 39.2439 44.25 39.0627V39.0625V26.5625C44.25 26.5625 44.25 26.5625 44.25 26.5625C44.25 26.3813 44.2964 26.2031 44.3847 26.0448C44.4731 25.8865 44.6004 25.7535 44.7547 25.6584ZM47.0986 28.6434L46.375 28.2816V29.0906V36.5344V37.3434L47.0986 36.9816L54.5424 33.2597L55.4368 32.8125L54.5424 32.3653L47.0986 28.6434Z" fill="#C43340" stroke="#FADC5A"/>
<g id="Vector_3">
<mask id="path-3-inside-1_180_3453" fill="white">
<path d="M96.875 10.9375V4.6875C96.875 4.2731 96.7104 3.87567 96.4174 3.58265C96.1243 3.28962 95.7269 3.125 95.3125 3.125H4.6875C4.2731 3.125 3.87567 3.28962 3.58265 3.58265C3.28962 3.87567 3.125 4.2731 3.125 4.6875V10.9375C3.125 11.3519 3.28962 11.7493 3.58265 12.0424C3.87567 12.3354 4.2731 12.5 4.6875 12.5V35.9375C4.2731 35.9375 3.87567 36.1021 3.58265 36.3951C3.28962 36.6882 3.125 37.0856 3.125 37.5V45.3125C3.125 45.7269 3.28962 46.1243 3.58265 46.4174C3.87567 46.7104 4.2731 46.875 4.6875 46.875V51.5625C4.6875 51.9769 4.85212 52.3743 5.14515 52.6674C5.43817 52.9604 5.8356 53.125 6.25 53.125H7.8125V57.8125C7.8125 58.2269 7.97712 58.6243 8.27015 58.9174C8.56317 59.2104 8.9606 59.375 9.375 59.375H90.625C91.0394 59.375 91.4368 59.2104 91.7299 58.9174C92.0229 58.6243 92.1875 58.2269 92.1875 57.8125V53.125H93.75C94.1644 53.125 94.5618 52.9604 94.8549 52.6674C95.1479 52.3743 95.3125 51.9769 95.3125 51.5625V46.875C95.7269 46.875 96.1243 46.7104 96.4174 46.4174C96.7104 46.1243 96.875 45.7269 96.875 45.3125V37.5C96.875 37.0856 96.7104 36.6882 96.4174 36.3951C96.1243 36.1021 95.7269 35.9375 95.3125 35.9375V12.5C95.7269 12.5 96.1243 12.3354 96.4174 12.0424C96.7104 11.7493 96.875 11.3519 96.875 10.9375ZM6.25 43.75V39.0625H15.625C16.0394 39.0625 16.4368 39.2271 16.7299 39.5201C17.0229 39.8132 17.1875 40.2106 17.1875 40.625V42.1875C17.1875 42.6019 17.0229 42.9993 16.7299 43.2924C16.4368 43.5854 16.0394 43.75 15.625 43.75H6.25ZM7.8125 35.9375V12.5H17.1719C16.9632 20.41 15.8678 28.2717 13.9062 35.9375H7.8125ZM7.8125 50V46.875H11.6875L12.2188 50H7.8125ZM89.0625 56.25H10.9375V53.125H14.0625C14.288 53.1239 14.5107 53.0745 14.7155 52.9802C14.9203 52.8858 15.1026 52.7488 15.25 52.5781C15.3983 52.4029 15.5072 52.1977 15.5692 51.9766C15.6312 51.7556 15.6449 51.5237 15.6094 51.2969L14.8594 46.875H15.625C16.8671 46.8713 18.0572 46.3762 18.9355 45.498C19.8137 44.6197 20.3088 43.4296 20.3125 42.1875V40.625C20.3074 39.6372 19.9904 38.6763 19.4068 37.8795C18.8231 37.0826 18.0027 36.4904 17.0625 36.1875C19.0175 28.4364 20.1024 20.4915 20.2969 12.5H79.7031C79.8976 20.4915 80.9825 28.4364 82.9375 36.1875C81.9973 36.4904 81.1769 37.0826 80.5932 37.8795C80.0096 38.6763 79.6926 39.6372 79.6875 40.625V42.1875C79.6912 43.4296 80.1863 44.6197 81.0645 45.498C81.9428 46.3762 83.1329 46.8713 84.375 46.875H85.1406L84.3906 51.2969C84.3551 51.5237 84.3688 51.7556 84.4308 51.9766C84.4928 52.1977 84.6017 52.4029 84.75 52.5781C84.8974 52.7488 85.0797 52.8858 85.2845 52.9802C85.4893 53.0745 85.712 53.1239 85.9375 53.125H89.0625V56.25ZM82.8281 12.5H92.1875V35.9375H86.0938C84.1322 28.2717 83.0368 20.41 82.8281 12.5ZM92.1875 50H87.7812L88.3125 46.875H92.1875V50ZM93.75 43.75H84.375C83.9606 43.75 83.5632 43.5854 83.2701 43.2924C82.9771 42.9993 82.8125 42.6019 82.8125 42.1875V40.625C82.8125 40.2106 82.9771 39.8132 83.2701 39.5201C83.5632 39.2271 83.9606 39.0625 84.375 39.0625H93.75V43.75ZM93.75 9.375H6.25V6.25H93.75V9.375Z"/>
</mask>
<path d="M96.875 10.9375V4.6875C96.875 4.2731 96.7104 3.87567 96.4174 3.58265C96.1243 3.28962 95.7269 3.125 95.3125 3.125H4.6875C4.2731 3.125 3.87567 3.28962 3.58265 3.58265C3.28962 3.87567 3.125 4.2731 3.125 4.6875V10.9375C3.125 11.3519 3.28962 11.7493 3.58265 12.0424C3.87567 12.3354 4.2731 12.5 4.6875 12.5V35.9375C4.2731 35.9375 3.87567 36.1021 3.58265 36.3951C3.28962 36.6882 3.125 37.0856 3.125 37.5V45.3125C3.125 45.7269 3.28962 46.1243 3.58265 46.4174C3.87567 46.7104 4.2731 46.875 4.6875 46.875V51.5625C4.6875 51.9769 4.85212 52.3743 5.14515 52.6674C5.43817 52.9604 5.8356 53.125 6.25 53.125H7.8125V57.8125C7.8125 58.2269 7.97712 58.6243 8.27015 58.9174C8.56317 59.2104 8.9606 59.375 9.375 59.375H90.625C91.0394 59.375 91.4368 59.2104 91.7299 58.9174C92.0229 58.6243 92.1875 58.2269 92.1875 57.8125V53.125H93.75C94.1644 53.125 94.5618 52.9604 94.8549 52.6674C95.1479 52.3743 95.3125 51.9769 95.3125 51.5625V46.875C95.7269 46.875 96.1243 46.7104 96.4174 46.4174C96.7104 46.1243 96.875 45.7269 96.875 45.3125V37.5C96.875 37.0856 96.7104 36.6882 96.4174 36.3951C96.1243 36.1021 95.7269 35.9375 95.3125 35.9375V12.5C95.7269 12.5 96.1243 12.3354 96.4174 12.0424C96.7104 11.7493 96.875 11.3519 96.875 10.9375ZM6.25 43.75V39.0625H15.625C16.0394 39.0625 16.4368 39.2271 16.7299 39.5201C17.0229 39.8132 17.1875 40.2106 17.1875 40.625V42.1875C17.1875 42.6019 17.0229 42.9993 16.7299 43.2924C16.4368 43.5854 16.0394 43.75 15.625 43.75H6.25ZM7.8125 35.9375V12.5H17.1719C16.9632 20.41 15.8678 28.2717 13.9062 35.9375H7.8125ZM7.8125 50V46.875H11.6875L12.2188 50H7.8125ZM89.0625 56.25H10.9375V53.125H14.0625C14.288 53.1239 14.5107 53.0745 14.7155 52.9802C14.9203 52.8858 15.1026 52.7488 15.25 52.5781C15.3983 52.4029 15.5072 52.1977 15.5692 51.9766C15.6312 51.7556 15.6449 51.5237 15.6094 51.2969L14.8594 46.875H15.625C16.8671 46.8713 18.0572 46.3762 18.9355 45.498C19.8137 44.6197 20.3088 43.4296 20.3125 42.1875V40.625C20.3074 39.6372 19.9904 38.6763 19.4068 37.8795C18.8231 37.0826 18.0027 36.4904 17.0625 36.1875C19.0175 28.4364 20.1024 20.4915 20.2969 12.5H79.7031C79.8976 20.4915 80.9825 28.4364 82.9375 36.1875C81.9973 36.4904 81.1769 37.0826 80.5932 37.8795C80.0096 38.6763 79.6926 39.6372 79.6875 40.625V42.1875C79.6912 43.4296 80.1863 44.6197 81.0645 45.498C81.9428 46.3762 83.1329 46.8713 84.375 46.875H85.1406L84.3906 51.2969C84.3551 51.5237 84.3688 51.7556 84.4308 51.9766C84.4928 52.1977 84.6017 52.4029 84.75 52.5781C84.8974 52.7488 85.0797 52.8858 85.2845 52.9802C85.4893 53.0745 85.712 53.1239 85.9375 53.125H89.0625V56.25ZM82.8281 12.5H92.1875V35.9375H86.0938C84.1322 28.2717 83.0368 20.41 82.8281 12.5ZM92.1875 50H87.7812L88.3125 46.875H92.1875V50ZM93.75 43.75H84.375C83.9606 43.75 83.5632 43.5854 83.2701 43.2924C82.9771 42.9993 82.8125 42.6019 82.8125 42.1875V40.625C82.8125 40.2106 82.9771 39.8132 83.2701 39.5201C83.5632 39.2271 83.9606 39.0625 84.375 39.0625H93.75V43.75ZM93.75 9.375H6.25V6.25H93.75V9.375Z" fill="#C43340" stroke="#FADC5A" mask="url(#path-3-inside-1_180_3453)"/>
</g>
<g id="Vector_4">
<mask id="path-4-inside-2_180_3453" fill="white">
<path d="M92.1875 70.3125H84.375V67.1875C84.3713 65.9454 83.8762 64.7553 82.998 63.877C82.1197 62.9988 80.9296 62.5037 79.6875 62.5H70.3125C69.0704 62.5037 67.8803 62.9988 67.002 63.877C66.1238 64.7553 65.6287 65.9454 65.625 67.1875V70.3125H59.375V67.1875C59.3713 65.9454 58.8762 64.7553 57.998 63.877C57.1197 62.9988 55.9296 62.5037 54.6875 62.5H45.3125C44.0704 62.5037 42.8803 62.9988 42.002 63.877C41.1238 64.7553 40.6287 65.9454 40.625 67.1875V70.3125H34.375V67.1875C34.3713 65.9454 33.8762 64.7553 32.998 63.877C32.1197 62.9988 30.9296 62.5037 29.6875 62.5H20.3125C19.0704 62.5037 17.8803 62.9988 17.002 63.877C16.1238 64.7553 15.6287 65.9454 15.625 67.1875V70.3125H7.8125C6.57044 70.3162 5.38031 70.8113 4.50203 71.6895C3.62376 72.5678 3.12871 73.7579 3.125 75V95.3125C3.125 95.7269 3.28962 96.1243 3.58265 96.4174C3.87567 96.7104 4.2731 96.875 4.6875 96.875H20.3125C20.7269 96.875 21.1243 96.7104 21.4174 96.4174C21.7104 96.1243 21.875 95.7269 21.875 95.3125V89.0625H28.125V95.3125C28.125 95.7269 28.2896 96.1243 28.5826 96.4174C28.8757 96.7104 29.2731 96.875 29.6875 96.875H45.3125C45.7269 96.875 46.1243 96.7104 46.4174 96.4174C46.7104 96.1243 46.875 95.7269 46.875 95.3125V89.0625H53.125V95.3125C53.125 95.7269 53.2896 96.1243 53.5826 96.4174C53.8757 96.7104 54.2731 96.875 54.6875 96.875H70.3125C70.7269 96.875 71.1243 96.7104 71.4174 96.4174C71.7104 96.1243 71.875 95.7269 71.875 95.3125V89.0625H78.125V95.3125C78.125 95.7269 78.2896 96.1243 78.5826 96.4174C78.8757 96.7104 79.2731 96.875 79.6875 96.875H95.3125C95.7269 96.875 96.1243 96.7104 96.4174 96.4174C96.7104 96.1243 96.875 95.7269 96.875 95.3125V75C96.8713 73.7579 96.3762 72.5678 95.498 71.6895C94.6197 70.8113 93.4296 70.3162 92.1875 70.3125ZM18.75 93.75H6.25V90.625H18.75V93.75ZM18.75 87.5H6.25V75C6.25 74.5856 6.41462 74.1882 6.70765 73.8951C7.00067 73.6021 7.3981 73.4375 7.8125 73.4375H17.1875C17.6019 73.4375 17.9993 73.6021 18.2924 73.8951C18.5854 74.1882 18.75 74.5856 18.75 75V87.5ZM28.125 85.9375H21.875V82.8125H28.125V85.9375ZM28.125 75V79.6875H21.875V75C21.8723 74.031 21.5708 73.0864 21.0115 72.295C20.4523 71.5037 19.6625 70.9041 18.75 70.5781V67.1875C18.75 66.7731 18.9146 66.3757 19.2076 66.0826C19.5007 65.7896 19.8981 65.625 20.3125 65.625H29.6875C30.1019 65.625 30.4993 65.7896 30.7924 66.0826C31.0854 66.3757 31.25 66.7731 31.25 67.1875V70.5781C30.3375 70.9041 29.5477 71.5037 28.9885 72.295C28.4292 73.0864 28.1277 74.031 28.125 75ZM43.75 93.75H31.25V90.625H43.75V93.75ZM43.75 87.5H31.25V75C31.25 74.5856 31.4146 74.1882 31.7076 73.8951C32.0007 73.6021 32.3981 73.4375 32.8125 73.4375H42.1875C42.6019 73.4375 42.9993 73.6021 43.2924 73.8951C43.5854 74.1882 43.75 74.5856 43.75 75V87.5ZM53.125 85.9375H46.875V82.8125H53.125V85.9375ZM53.125 75V79.6875H46.875V75C46.87 74.0334 46.5674 73.0919 46.0082 72.3035C45.449 71.5151 44.6605 70.9181 43.75 70.5938V67.1875C43.75 66.7731 43.9146 66.3757 44.2076 66.0826C44.5007 65.7896 44.8981 65.625 45.3125 65.625H54.6875C55.1019 65.625 55.4993 65.7896 55.7924 66.0826C56.0854 66.3757 56.25 66.7731 56.25 67.1875V70.5938C55.3395 70.9181 54.551 71.5151 53.9918 72.3035C53.4326 73.0919 53.13 74.0334 53.125 75ZM68.75 93.75H56.25V90.625H68.75V93.75ZM68.75 87.5H56.25V75C56.25 74.5856 56.4146 74.1882 56.7076 73.8951C57.0007 73.6021 57.3981 73.4375 57.8125 73.4375H67.1875C67.6019 73.4375 67.9993 73.6021 68.2924 73.8951C68.5854 74.1882 68.75 74.5856 68.75 75V87.5ZM78.125 85.9375H71.875V82.8125H78.125V85.9375ZM78.125 75V79.6875H71.875V75C71.87 74.0334 71.5674 73.0919 71.0082 72.3035C70.449 71.5151 69.6605 70.9181 68.75 70.5938V67.1875C68.75 66.7731 68.9146 66.3757 69.2076 66.0826C69.5007 65.7896 69.8981 65.625 70.3125 65.625H79.6875C80.1019 65.625 80.4993 65.7896 80.7924 66.0826C81.0854 66.3757 81.25 66.7731 81.25 67.1875V70.5938C80.3395 70.9181 79.551 71.5151 78.9918 72.3035C78.4326 73.0919 78.13 74.0334 78.125 75ZM93.75 93.75H81.25V90.625H93.75V93.75ZM93.75 87.5H81.25V75C81.25 74.5856 81.4146 74.1882 81.7076 73.8951C82.0007 73.6021 82.3981 73.4375 82.8125 73.4375H92.1875C92.6019 73.4375 92.9993 73.6021 93.2924 73.8951C93.5854 74.1882 93.75 74.5856 93.75 75V87.5Z"/>
</mask>
<path d="M92.1875 70.3125H84.375V67.1875C84.3713 65.9454 83.8762 64.7553 82.998 63.877C82.1197 62.9988 80.9296 62.5037 79.6875 62.5H70.3125C69.0704 62.5037 67.8803 62.9988 67.002 63.877C66.1238 64.7553 65.6287 65.9454 65.625 67.1875V70.3125H59.375V67.1875C59.3713 65.9454 58.8762 64.7553 57.998 63.877C57.1197 62.9988 55.9296 62.5037 54.6875 62.5H45.3125C44.0704 62.5037 42.8803 62.9988 42.002 63.877C41.1238 64.7553 40.6287 65.9454 40.625 67.1875V70.3125H34.375V67.1875C34.3713 65.9454 33.8762 64.7553 32.998 63.877C32.1197 62.9988 30.9296 62.5037 29.6875 62.5H20.3125C19.0704 62.5037 17.8803 62.9988 17.002 63.877C16.1238 64.7553 15.6287 65.9454 15.625 67.1875V70.3125H7.8125C6.57044 70.3162 5.38031 70.8113 4.50203 71.6895C3.62376 72.5678 3.12871 73.7579 3.125 75V95.3125C3.125 95.7269 3.28962 96.1243 3.58265 96.4174C3.87567 96.7104 4.2731 96.875 4.6875 96.875H20.3125C20.7269 96.875 21.1243 96.7104 21.4174 96.4174C21.7104 96.1243 21.875 95.7269 21.875 95.3125V89.0625H28.125V95.3125C28.125 95.7269 28.2896 96.1243 28.5826 96.4174C28.8757 96.7104 29.2731 96.875 29.6875 96.875H45.3125C45.7269 96.875 46.1243 96.7104 46.4174 96.4174C46.7104 96.1243 46.875 95.7269 46.875 95.3125V89.0625H53.125V95.3125C53.125 95.7269 53.2896 96.1243 53.5826 96.4174C53.8757 96.7104 54.2731 96.875 54.6875 96.875H70.3125C70.7269 96.875 71.1243 96.7104 71.4174 96.4174C71.7104 96.1243 71.875 95.7269 71.875 95.3125V89.0625H78.125V95.3125C78.125 95.7269 78.2896 96.1243 78.5826 96.4174C78.8757 96.7104 79.2731 96.875 79.6875 96.875H95.3125C95.7269 96.875 96.1243 96.7104 96.4174 96.4174C96.7104 96.1243 96.875 95.7269 96.875 95.3125V75C96.8713 73.7579 96.3762 72.5678 95.498 71.6895C94.6197 70.8113 93.4296 70.3162 92.1875 70.3125ZM18.75 93.75H6.25V90.625H18.75V93.75ZM18.75 87.5H6.25V75C6.25 74.5856 6.41462 74.1882 6.70765 73.8951C7.00067 73.6021 7.3981 73.4375 7.8125 73.4375H17.1875C17.6019 73.4375 17.9993 73.6021 18.2924 73.8951C18.5854 74.1882 18.75 74.5856 18.75 75V87.5ZM28.125 85.9375H21.875V82.8125H28.125V85.9375ZM28.125 75V79.6875H21.875V75C21.8723 74.031 21.5708 73.0864 21.0115 72.295C20.4523 71.5037 19.6625 70.9041 18.75 70.5781V67.1875C18.75 66.7731 18.9146 66.3757 19.2076 66.0826C19.5007 65.7896 19.8981 65.625 20.3125 65.625H29.6875C30.1019 65.625 30.4993 65.7896 30.7924 66.0826C31.0854 66.3757 31.25 66.7731 31.25 67.1875V70.5781C30.3375 70.9041 29.5477 71.5037 28.9885 72.295C28.4292 73.0864 28.1277 74.031 28.125 75ZM43.75 93.75H31.25V90.625H43.75V93.75ZM43.75 87.5H31.25V75C31.25 74.5856 31.4146 74.1882 31.7076 73.8951C32.0007 73.6021 32.3981 73.4375 32.8125 73.4375H42.1875C42.6019 73.4375 42.9993 73.6021 43.2924 73.8951C43.5854 74.1882 43.75 74.5856 43.75 75V87.5ZM53.125 85.9375H46.875V82.8125H53.125V85.9375ZM53.125 75V79.6875H46.875V75C46.87 74.0334 46.5674 73.0919 46.0082 72.3035C45.449 71.5151 44.6605 70.9181 43.75 70.5938V67.1875C43.75 66.7731 43.9146 66.3757 44.2076 66.0826C44.5007 65.7896 44.8981 65.625 45.3125 65.625H54.6875C55.1019 65.625 55.4993 65.7896 55.7924 66.0826C56.0854 66.3757 56.25 66.7731 56.25 67.1875V70.5938C55.3395 70.9181 54.551 71.5151 53.9918 72.3035C53.4326 73.0919 53.13 74.0334 53.125 75ZM68.75 93.75H56.25V90.625H68.75V93.75ZM68.75 87.5H56.25V75C56.25 74.5856 56.4146 74.1882 56.7076 73.8951C57.0007 73.6021 57.3981 73.4375 57.8125 73.4375H67.1875C67.6019 73.4375 67.9993 73.6021 68.2924 73.8951C68.5854 74.1882 68.75 74.5856 68.75 75V87.5ZM78.125 85.9375H71.875V82.8125H78.125V85.9375ZM78.125 75V79.6875H71.875V75C71.87 74.0334 71.5674 73.0919 71.0082 72.3035C70.449 71.5151 69.6605 70.9181 68.75 70.5938V67.1875C68.75 66.7731 68.9146 66.3757 69.2076 66.0826C69.5007 65.7896 69.8981 65.625 70.3125 65.625H79.6875C80.1019 65.625 80.4993 65.7896 80.7924 66.0826C81.0854 66.3757 81.25 66.7731 81.25 67.1875V70.5938C80.3395 70.9181 79.551 71.5151 78.9918 72.3035C78.4326 73.0919 78.13 74.0334 78.125 75ZM93.75 93.75H81.25V90.625H93.75V93.75ZM93.75 87.5H81.25V75C81.25 74.5856 81.4146 74.1882 81.7076 73.8951C82.0007 73.6021 82.3981 73.4375 82.8125 73.4375H92.1875C92.6019 73.4375 92.9993 73.6021 93.2924 73.8951C93.5854 74.1882 93.75 74.5856 93.75 75V87.5Z" fill="#373435" stroke="#FADC5A" mask="url(#path-4-inside-2_180_3453)"/>
</g>
</g>
</svg>
