<svg width="100" height="100" viewBox="0 0 100 100" fill="none" xmlns="http://www.w3.org/2000/svg">
<g id="compass_1897400 1">
<g id="Compass">
<path id="Vector" d="M47.2258 14.4667L52.9658 22.12C53.0931 22.2897 53.2581 22.4275 53.4479 22.5224C53.6377 22.6173 53.8469 22.6667 54.0591 22.6667C54.2058 22.6663 54.3516 22.6428 54.491 22.597C54.7632 22.5063 55 22.3322 55.1678 22.0994C55.3356 21.8666 55.4258 21.587 55.4258 21.3V9H52.6924V17.2L46.9524 9.54667C46.7803 9.3172 46.5404 9.14769 46.2666 9.06216C45.9928 8.97664 45.699 8.97943 45.4269 9.07013C45.1548 9.16084 44.9181 9.33487 44.7504 9.56756C44.5827 9.80026 44.4924 10.0798 44.4924 10.3667V22.6667H47.2258V14.4667Z" fill="#C43340"/>
<path id="Vector_2" d="M48.5924 80.0667H51.3258C51.6882 80.0667 52.0358 80.2107 52.2921 80.467C52.5484 80.7233 52.6924 81.0709 52.6924 81.4333H55.4258C55.4258 80.346 54.9938 79.3031 54.2249 78.5342C53.456 77.7653 52.4132 77.3333 51.3258 77.3333H48.5924C47.505 77.3333 46.4622 77.7653 45.6933 78.5342C44.9244 79.3031 44.4924 80.346 44.4924 81.4333C44.4924 82.5207 44.9244 83.5636 45.6933 84.3325C46.4622 85.1014 47.505 85.5333 48.5924 85.5333H51.3258C51.6882 85.5333 52.0358 85.6773 52.2921 85.9336C52.5484 86.1899 52.6924 86.5375 52.6924 86.9C52.6924 87.2625 52.5484 87.6101 52.2921 87.8664C52.0358 88.1227 51.6882 88.2667 51.3258 88.2667H48.5924C48.23 88.2667 47.8824 88.1227 47.6261 87.8664C47.3698 87.6101 47.2258 87.2625 47.2258 86.9H44.4924C44.4924 87.9874 44.9244 89.0302 45.6933 89.7991C46.4622 90.568 47.505 91 48.5924 91H51.3258C52.4132 91 53.456 90.568 54.2249 89.7991C54.9938 89.0302 55.4258 87.9874 55.4258 86.9C55.4258 85.8126 54.9938 84.7698 54.2249 84.0009C53.456 83.232 52.4132 82.8 51.3258 82.8H48.5924C48.23 82.8 47.8824 82.656 47.6261 82.3997C47.3698 82.1434 47.2258 81.7958 47.2258 81.4333C47.2258 81.0709 47.3698 80.7233 47.6261 80.467C47.8824 80.2107 48.23 80.0667 48.5924 80.0667Z" fill="#C43340"/>
<path id="Vector_3" d="M90.959 45.9V43.1667H82.759C82.3965 43.1667 82.0489 43.3106 81.7926 43.5669C81.5363 43.8232 81.3923 44.1709 81.3923 44.5333V55.4667C81.3923 55.8291 81.5363 56.1767 81.7926 56.433C82.0489 56.6893 82.3965 56.8333 82.759 56.8333H90.959V54.1H84.1257V51.3667H88.2257V48.6333H84.1257V45.9H90.959Z" fill="#C43340"/>
<path id="Vector_4" d="M17.2123 55.8425C17.2939 56.1279 17.4662 56.3789 17.7032 56.5577C17.9401 56.7365 18.2288 56.8332 18.5257 56.8334H18.5489C18.8496 56.8282 19.1402 56.7241 19.3756 56.537C19.6111 56.35 19.7783 56.0905 19.8513 55.7988L22.5847 44.8655L19.9333 44.2013L18.4382 50.1845L17.1057 45.5242C17.0237 45.2392 16.8512 44.9886 16.6143 44.8103C16.3774 44.6319 16.0889 44.5355 15.7923 44.5355C15.4958 44.5355 15.2073 44.6319 14.9704 44.8103C14.7335 44.9886 14.561 45.2392 14.479 45.5242L13.1465 50.1845L11.6513 44.2013L9 44.8655L11.7333 55.7988C11.8066 56.0903 11.974 56.3495 12.2095 56.5363C12.445 56.7231 12.7355 56.827 13.0361 56.832C13.3366 56.837 13.6304 56.7427 13.872 56.5638C14.1136 56.385 14.2894 56.1315 14.3724 55.8425L15.7923 50.8747L17.2123 55.8425Z" fill="#C43340"/>
<path id="Vector_5" d="M48.5923 65.5335V55.2725C48.1029 55.1457 47.6341 54.9501 47.1996 54.6917L45.3123 56.5804L48.5923 65.5335Z" fill="#373435"/>
<path id="Vector_6" d="M49.9589 52.7333C51.4685 52.7333 52.6923 51.5096 52.6923 50C52.6923 48.4904 51.4685 47.2667 49.9589 47.2667C48.4493 47.2667 47.2256 48.4904 47.2256 50C47.2256 51.5096 48.4493 52.7333 49.9589 52.7333Z" fill="#C43340"/>
<path id="Vector_7" d="M48.5923 44.7274V34.4664L45.3123 43.4195L47.201 45.3082C47.635 45.0499 48.1034 44.8543 48.5923 44.7274Z" fill="#373435"/>
<path id="Vector_8" d="M58.0496 57.007L57.2556 57.2967L56.9658 58.0907L59.1593 59.2005L58.0496 57.007Z" fill="#C43340"/>
<path id="Vector_9" d="M55.2317 51.3667C55.1049 51.856 54.9093 52.3249 54.6509 52.7593L56.5396 54.6467L65.4926 51.3667H55.2317Z" fill="#373435"/>
<path id="Vector_10" d="M54.6509 47.2407C54.9093 47.6751 55.1049 48.144 55.2317 48.6333H65.4926L56.5396 45.3533L54.6509 47.2407Z" fill="#373435"/>
<path id="Vector_11" d="M59.1867 40.7722L56.9604 41.8984L57.2556 42.7033L58.0606 42.9985L59.1867 40.7722Z" fill="#C43340"/>
<path id="Vector_12" d="M42.6623 42.7033L42.9575 41.8984L40.7312 40.7722L41.8573 42.9985L42.6623 42.7033Z" fill="#C43340"/>
<path id="Vector_13" d="M45.2673 52.7593C45.0089 52.3249 44.8133 51.856 44.6865 51.3667H34.4255L43.3786 54.6467L45.2673 52.7593Z" fill="#373435"/>
<path id="Vector_14" d="M43.3786 45.3533L34.4255 48.6333H44.6865C44.8133 48.144 45.0089 47.6751 45.2673 47.2407L43.3786 45.3533Z" fill="#373435"/>
<path id="Vector_15" d="M42.6623 57.2967L41.8683 57.007L40.7585 59.2005L42.952 58.0907L42.6623 57.2967Z" fill="#C43340"/>
<path id="Vector_16" d="M52.7183 54.6917C52.2839 54.9501 51.815 55.1457 51.3257 55.2725V65.5335L54.6057 56.5804L52.7183 54.6917Z" fill="#373435"/>
<path id="Vector_17" d="M51.3257 34.4664V44.7274C51.815 44.8542 52.2839 45.0498 52.7183 45.3082L54.6057 43.4195L51.3257 34.4664Z" fill="#373435"/>
<path id="Vector_18" d="M17.0457 59.1991L14.4121 59.9343C16.1832 66.2862 19.6253 72.0467 24.3799 76.6158C29.1345 81.1848 35.0275 84.395 41.4448 85.9119L42.0734 83.2524C36.1319 81.8477 30.6758 78.8752 26.2738 74.6446C21.8719 70.414 18.6851 65.0802 17.0457 59.1991Z" fill="#C43340"/>
<path id="Vector_19" d="M57.8447 83.2524L58.4734 85.9119C64.8906 84.395 70.7836 81.1848 75.5382 76.6158C80.2928 72.0467 83.735 66.2862 85.5061 59.9343L82.8725 59.1991C81.2333 65.0803 78.0466 70.4143 73.6446 74.6449C69.2426 78.8755 63.7864 81.848 57.8447 83.2524Z" fill="#C43340"/>
<path id="Vector_20" d="M82.8725 40.8009L85.5061 40.0656C83.735 33.7138 80.2928 27.9532 75.5382 23.3842C70.7836 18.8152 64.8906 15.605 58.4734 14.088L57.8447 16.7476C63.7863 18.1523 69.2424 21.1248 73.6443 25.3554C78.0463 29.586 81.2331 34.9198 82.8725 40.8009Z" fill="#C43340"/>
<path id="Vector_21" d="M42.0734 16.7476L41.4447 14.088C34.7984 15.6902 28.7235 19.096 23.8893 23.9302C19.0551 28.7644 15.6492 34.8394 14.0471 41.4856L16.7067 42.1143C18.1903 35.9608 21.3438 30.3364 25.8196 25.8605C30.2954 21.3847 35.9199 18.2312 42.0734 16.7476Z" fill="#C43340"/>
</g>
</g>
</svg>
