<svg width="100" height="100" viewBox="0 0 100 100" fill="none" xmlns="http://www.w3.org/2000/svg">
<g id="cricket_3933304 1">
<g id="_x30_3_Cricket">
<g id="Group">
<path id="Vector" d="M68.8376 40.1019C68.6969 39.5919 68.1693 39.2929 67.6592 39.4336C67.1491 39.5743 66.8501 40.1019 66.9908 40.612C78.9334 84.5129 71.599 57.5849 77.2449 78.4097C78.2826 82.2088 78.1243 86.1662 76.8052 89.8774C76.6293 90.3698 76.8931 90.9151 77.3856 91.091C77.8781 91.2668 78.4233 91.003 78.5992 90.5105C80.0591 86.43 80.235 82.0681 79.0917 77.8996C72.3377 52.9943 77.0339 69.9144 68.8376 40.1019Z" fill="#373435"/>
<path id="Vector_2" d="M84.1571 76.5453C84.122 76.4398 74.0086 39.117 73.903 38.7476C73.7623 38.2376 73.2347 37.9385 72.7246 38.0793C72.2146 38.22 71.9155 38.7476 72.0563 39.2577C81.5189 74.1181 66.7445 19.6993 82.3103 77.0378C83.4536 81.2238 85.7929 84.8998 89.1171 87.6612C89.5216 87.9954 90.1196 87.9426 90.4538 87.5381C90.788 87.1336 90.7352 86.5355 90.3307 86.2014C87.3231 83.6862 85.1773 80.3444 84.1571 76.5453Z" fill="#373435"/>
</g>
</g>
<path id="Vector_3" d="M93 85.5C93 85.5 79.3506 35.8005 79 34.5C78.6494 33.1995 78.1952 32.8174 76.9507 32.2726L71.421 29.0213L65.5 8.50001C66.2888 7.93763 66.2274 7.65084 65.9645 6.6491C65.6139 5.38374 65.3736 4.73348 64.0765 5.08497L58.3447 6.64909C57.0651 7.00058 56.6494 8.21708 57 9.50001C57.2629 10.5017 58.3797 10.9021 59.3438 10.99L61 18.6876H56.8197C56.4341 17.6858 55.47 16.9653 54.3482 16.9653H52.0695C50.9301 16.9653 49.966 17.6858 49.5979 18.6876C49.4577 18.6876 40.3779 18.6876 40.7285 18.6876C40.3429 17.6858 39.3788 16.9653 38.2394 16.9653H35.9607C34.8214 16.9653 33.8573 17.6858 33.4717 18.6876H29.037C29.0194 18.6876 29.0019 18.7051 28.9844 18.7051C26.8985 18.7403 25.2157 20.4274 25.2157 22.5188V75.6813C20.7635 71.2526 13.6644 71.3405 9.2998 75.7165C4.86508 80.1628 4.93519 87.3156 9.2998 91.6916C13.717 96.1204 20.8511 96.0852 25.2333 91.6916C25.6014 91.3225 25.9344 90.9183 26.2499 90.4966C27.0212 92.957 27.8976 94.0641 29.0194 94.0641C32.0168 94.0641 32.8406 85.1539 32.8406 85.0661V22.5012C32.8406 21.7982 32.6303 21.148 32.3148 20.5856H33.4717C33.8573 21.5873 34.8214 22.3079 35.9607 22.3079H38.2394C39.3788 22.3079 40.3429 21.5873 40.7285 20.5856H41.8854C41.5523 21.148 41.3595 21.7982 41.3595 22.5012V85.0661C41.3595 85.1539 42.1834 94.0641 45.1807 94.0641C48.1781 94.0641 49.002 85.1539 49.002 85.0661V22.5012C49.002 21.7982 48.7916 21.148 48.4761 20.5856H49.633C50.0186 21.5873 50.9827 22.3079 52.1221 22.3079H54.4008C55.5401 22.3079 56.5042 21.5873 56.8898 20.5856H58.0467C57.7137 21.148 57.5208 21.7982 57.5208 22.5012V85.0661C57.5208 85.9448 57.8539 88.0186 58.3973 89.9517C59.2211 92.7988 60.1326 94.0641 61.3421 94.0641C64.3395 94.0641 65.1633 85.1539 65.1633 85.0661V60.3565L74 91.5C74.5259 93.4508 75.9667 94.5 78 94.5H78.0876C82.9431 94.4121 87.299 92.9121 91.5409 90.5396C93.2937 89.5378 93.5434 87.4859 93 85.5ZM65.7593 29.8649L60.6585 10.99L64.3044 10.0058L69.4052 28.8807L65.7593 29.8649ZM58.3447 8.14839L64.5 6.00001C64.7629 5.92971 65.1282 7.00058 65.1983 7.2642C65.2685 7.52781 65.1107 7.809 64.8478 7.8793C64.5323 7.96717 59.0283 9.461 59.1159 9.44342C58.853 9.51372 58.5726 9.35555 58.5024 9.09193C58.4499 8.82832 58.0818 8.21869 58.3447 8.14839ZM23.9361 77.0346C26.6881 79.7937 27.4243 83.9062 25.8993 87.4035L13.5768 75.0487C17.1351 73.5197 21.2192 74.3105 23.9361 77.0346ZM10.6846 90.3208C7.9501 87.5792 7.2139 83.4844 8.6863 80.0046L20.9738 92.3243C17.4856 93.8005 13.419 93.0624 10.6846 90.3208ZM22.6916 91.3401L9.65037 78.2823C9.96589 77.843 10.2989 77.4036 10.667 77.0346C11.0351 76.6655 11.4383 76.3492 11.859 76.0504L24.9002 89.1258C24.6022 89.5475 24.2867 89.9517 23.9186 90.3208C23.5505 90.6899 23.1298 91.0238 22.6916 91.3401ZM30.9826 85.0661C30.9826 86.7181 29.8958 91.1468 29.072 92.0607C28.8792 91.8146 28.4585 91.1468 27.9502 89.4245C27.8275 89.0203 27.7398 88.5985 27.6347 88.1767C29.0545 84.9255 28.8441 81.2348 27.1439 78.1769V22.4836C27.1439 21.4292 28.0028 20.568 29.0545 20.568C30.1062 20.568 30.9651 21.4292 30.9651 22.4836L30.9826 85.0661ZM38.257 20.3923H35.9783C35.5576 20.3923 35.2245 20.0584 35.2245 19.6366C35.2245 19.2148 35.5576 18.8809 35.9783 18.8809H38.257C38.6777 18.8809 39.0107 19.2148 39.0107 19.6366C39.0107 20.0408 38.6777 20.3923 38.257 20.3923ZM47.0738 85.0485C47.0738 86.7181 45.9871 91.1819 45.1632 92.0607C44.3394 91.1819 43.2526 86.7181 43.2526 85.0485V22.4836C43.2526 21.4292 44.1115 20.568 45.1632 20.568C46.2149 20.568 47.0738 21.4292 47.0738 22.4836V85.0485ZM54.3657 20.3923H52.087C51.6663 20.3923 51.3333 20.0584 51.3333 19.6366C51.3333 19.2148 51.6838 18.8809 52.087 18.8809H54.3657C54.7864 18.8809 55.1194 19.2148 55.1194 19.6366C55.1194 20.0408 54.7864 20.3923 54.3657 20.3923ZM63.1826 85.0661C63.1826 86.7181 62.0958 91.1468 61.272 92.0607C61.0791 91.8146 60.6585 91.1468 60.1501 89.4245C59.6418 87.5968 59.3438 85.6987 59.3438 85.0661V22.5012C59.3438 21.4467 60.4483 20.568 61.5 20.568L65 29.5L63.165 32.2726L60.5 36.5C59.7112 37.6072 59.2386 38.7927 59.5892 40.0932L63.165 53.3267V85.0661H63.1826ZM90.7725 89.5827C86.8111 91.8146 82.6275 93.4297 78.0876 93.5C76.8782 93.5176 75.7155 92.3067 75.4 91.1644L60.5 39.5C60.2897 38.7443 61.3946 38.0545 61.8329 37.4394L65 31L70 29.5L76.6094 33.4149C77.3106 33.7312 77.8364 34.3463 78.0468 35.0845L91.9995 86.6478C92.315 87.7901 91.8067 89.0027 90.7725 89.5827Z" fill="#C43340"/>
<rect id="Rectangle 176" x="59.9116" y="11.2685" width="5.4898" height="19.4595" transform="rotate(-15.2252 59.9116 11.2685)" stroke="#373435" stroke-width="2"/>
<g id="Rectangle 177">
<mask id="path-5-inside-1_180_3281" fill="white">
<rect x="65.877" y="4" width="4.71812" height="10.3273" rx="1" transform="rotate(73.0171 65.877 4)"/>
</mask>
<rect x="65.877" y="4" width="4.71812" height="10.3273" rx="1" transform="rotate(73.0171 65.877 4)" stroke="#373435" stroke-width="4" mask="url(#path-5-inside-1_180_3281)"/>
</g>
<path id="Vector 1" d="M76.9432 32.8681L69.9251 29L64.5114 30.7902L60.5636 38.2315C60.2019 38.9134 60.1169 39.7085 60.3263 40.4515L74.8876 92.1062C74.8876 92.1062 75.3387 95.6867 84.8127 93.0013C94.2866 90.3159 92.9332 86.7355 92.9332 86.7355L78.3844 34.6878C78.1677 33.9124 77.6484 33.2567 76.9432 32.8681Z" stroke="#373435" stroke-width="2"/>
</g>
</svg>
