<svg width="100" height="100" viewBox="0 0 100 100" fill="none" xmlns="http://www.w3.org/2000/svg">
<g id="fountain_2983531 1" clip-path="url(#clip0_218_33384)">
<g id="Group">
<g id="Vector">
<mask id="path-1-inside-1_218_33384" fill="white">
<path d="M97.5545 64.8789H56.4891V58.373C56.4891 55.0295 58.0986 51.8527 60.7947 49.8752L67.2137 45.1664H70.992C73.6064 45.1664 75.7336 43.0393 75.7336 40.4248C75.7336 37.8104 73.6064 35.6832 70.992 35.6832H70.8912L74.9986 33.3711C75.9154 32.8551 76.9561 32.5822 78.0084 32.5822C81.3916 32.5822 84.1439 35.3346 84.1439 38.718V50.7896C84.1439 54.4199 84.8387 57.9656 86.209 61.3277C86.5146 62.0857 87.39 62.4367 88.1215 62.1328C88.8719 61.827 89.2324 60.9705 88.9266 60.2201C87.7004 57.2115 87.0787 54.0385 87.0787 50.7896V38.718C87.0787 33.7166 83.0098 29.6475 78.0082 29.6475C76.4527 29.6475 74.9141 30.0508 73.559 30.8137L64.8559 35.683H54.9658V32.2096C54.9658 30.3826 55.8453 28.6467 57.3186 27.566L60.4959 25.2354H61.69C64.0621 25.2354 65.992 23.3055 65.992 20.9332C65.992 18.5609 64.0621 16.6311 61.69 16.6311H38.31C35.9379 16.6311 34.008 18.5609 34.008 20.9332C34.008 23.3055 35.9379 25.2354 38.31 25.2354H39.5037L42.6814 27.566C44.1545 28.6469 45.034 30.3826 45.034 32.2096V35.683H35.0713L26.4232 30.8139C25.068 30.0508 23.5293 29.6475 21.9738 29.6475C16.9725 29.6475 12.9033 33.7164 12.9033 38.718V50.7896C12.9033 54.0387 12.2816 57.2115 11.0555 60.2201C10.7496 60.9707 11.11 61.827 11.8605 62.1328C12.592 62.4365 13.4674 62.0857 13.7732 61.3279C15.1434 57.966 15.8383 54.4205 15.8383 50.7896V38.718C15.8383 35.3346 18.5908 32.5822 21.974 32.5822C23.0262 32.5822 24.067 32.8551 24.9838 33.3713L29.0908 35.6832H29.008C26.3936 35.6832 24.2664 37.8104 24.2664 40.4248C24.2664 43.0393 26.3936 45.1664 29.008 45.1664H32.7863L39.2055 49.8752C41.9014 51.8527 43.5109 55.0295 43.5109 58.373V64.8789H2.44551C1.09707 64.8789 0 65.9762 0 67.3246V71.6779C0 74.6447 2.41367 77.0582 5.38027 77.0582H12.7951C13.3564 77.0582 13.8678 77.3865 14.1293 77.9147C16.1115 81.9195 20.1162 84.4072 24.5807 84.4072H28.8947C29.7051 84.4072 30.3621 83.7504 30.3621 82.9398C30.3621 82.1293 29.7051 81.4725 28.8947 81.4725H24.5807C21.24 81.4725 18.2432 79.6104 16.7594 76.6127C15.9992 75.0771 14.4803 74.1234 12.7951 74.1234H5.38027C4.03184 74.1234 2.93477 73.0264 2.93477 71.6779V67.8137H97.0654V71.6779C97.0654 73.0264 95.9684 74.1234 94.6199 74.1234H87.2051C85.5199 74.1234 84.0008 75.0771 83.2408 76.6127C81.757 79.6105 78.76 81.4725 75.4195 81.4725H36.4025C35.5922 81.4725 34.9352 82.1293 34.9352 82.9398C34.9352 83.7504 35.5922 84.4072 36.4025 84.4072H40.01V85.5992C40.01 88.1281 38.7926 90.5309 36.7535 92.0268L34.2734 93.8461C33.4951 94.417 33.174 95.417 33.4744 96.3346C33.7748 97.252 34.6252 97.8682 35.5906 97.8682H64.4096C65.3748 97.8682 66.2254 97.2518 66.5258 96.3346C66.8262 95.4172 66.5051 94.417 65.7268 93.8461L63.2467 92.0266C61.2076 90.5309 59.9902 88.1281 59.9902 85.5992V84.4072H75.4195C79.8838 84.4072 83.8887 81.9193 85.8709 77.9147C86.1324 77.3863 86.6436 77.0582 87.2051 77.0582H94.6197C97.5865 77.0582 100 74.6447 100 71.6779V67.3246C100 65.9762 98.9029 64.8789 97.5545 64.8789ZM36.9426 20.9336C36.9426 20.1797 37.5561 19.5662 38.31 19.5662H61.69C62.4439 19.5662 63.0572 20.1797 63.0572 20.9336C63.0572 21.6875 62.4439 22.301 61.69 22.301H38.31C37.5561 22.301 36.9426 21.6875 36.9426 20.9336ZM44.4629 25.2357H55.5371C53.3414 26.8695 52.0312 29.4713 52.0312 32.21V35.6834H47.9688V32.21C47.9688 29.4713 46.6586 26.8695 44.4629 25.2357ZM40.9412 47.5088L37.7482 45.1666H49.8961C50.7066 45.1666 51.3635 44.5098 51.3635 43.6992C51.3635 42.8887 50.7066 42.2318 49.8961 42.2318H29.0078C28.0115 42.2318 27.201 41.4213 27.201 40.425C27.201 39.4287 28.0115 38.6182 29.0078 38.6182H70.9922C71.9887 38.6182 72.799 39.4287 72.799 40.425C72.799 41.4215 71.9885 42.2318 70.9922 42.2318H57.6119C56.8014 42.2318 56.1445 42.8887 56.1445 43.6992C56.1445 44.5098 56.8014 45.1666 57.6119 45.1666H62.252L59.0592 47.5088C55.6123 50.0371 53.5545 54.0984 53.5545 58.373V64.8789H46.4457V58.373C46.4455 54.0986 44.3879 50.0371 40.9412 47.5088ZM61.5107 94.393L62.2475 94.9334H37.7525L38.4893 94.3932C41.2791 92.3467 42.9445 89.0594 42.9445 85.5994V84.4074H57.0553V85.5994C57.0553 89.0594 58.7209 92.3467 61.5107 94.393Z"/>
</mask>
<path d="M97.5545 64.8789H56.4891V58.373C56.4891 55.0295 58.0986 51.8527 60.7947 49.8752L67.2137 45.1664H70.992C73.6064 45.1664 75.7336 43.0393 75.7336 40.4248C75.7336 37.8104 73.6064 35.6832 70.992 35.6832H70.8912L74.9986 33.3711C75.9154 32.8551 76.9561 32.5822 78.0084 32.5822C81.3916 32.5822 84.1439 35.3346 84.1439 38.718V50.7896C84.1439 54.4199 84.8387 57.9656 86.209 61.3277C86.5146 62.0857 87.39 62.4367 88.1215 62.1328C88.8719 61.827 89.2324 60.9705 88.9266 60.2201C87.7004 57.2115 87.0787 54.0385 87.0787 50.7896V38.718C87.0787 33.7166 83.0098 29.6475 78.0082 29.6475C76.4527 29.6475 74.9141 30.0508 73.559 30.8137L64.8559 35.683H54.9658V32.2096C54.9658 30.3826 55.8453 28.6467 57.3186 27.566L60.4959 25.2354H61.69C64.0621 25.2354 65.992 23.3055 65.992 20.9332C65.992 18.5609 64.0621 16.6311 61.69 16.6311H38.31C35.9379 16.6311 34.008 18.5609 34.008 20.9332C34.008 23.3055 35.9379 25.2354 38.31 25.2354H39.5037L42.6814 27.566C44.1545 28.6469 45.034 30.3826 45.034 32.2096V35.683H35.0713L26.4232 30.8139C25.068 30.0508 23.5293 29.6475 21.9738 29.6475C16.9725 29.6475 12.9033 33.7164 12.9033 38.718V50.7896C12.9033 54.0387 12.2816 57.2115 11.0555 60.2201C10.7496 60.9707 11.11 61.827 11.8605 62.1328C12.592 62.4365 13.4674 62.0857 13.7732 61.3279C15.1434 57.966 15.8383 54.4205 15.8383 50.7896V38.718C15.8383 35.3346 18.5908 32.5822 21.974 32.5822C23.0262 32.5822 24.067 32.8551 24.9838 33.3713L29.0908 35.6832H29.008C26.3936 35.6832 24.2664 37.8104 24.2664 40.4248C24.2664 43.0393 26.3936 45.1664 29.008 45.1664H32.7863L39.2055 49.8752C41.9014 51.8527 43.5109 55.0295 43.5109 58.373V64.8789H2.44551C1.09707 64.8789 0 65.9762 0 67.3246V71.6779C0 74.6447 2.41367 77.0582 5.38027 77.0582H12.7951C13.3564 77.0582 13.8678 77.3865 14.1293 77.9147C16.1115 81.9195 20.1162 84.4072 24.5807 84.4072H28.8947C29.7051 84.4072 30.3621 83.7504 30.3621 82.9398C30.3621 82.1293 29.7051 81.4725 28.8947 81.4725H24.5807C21.24 81.4725 18.2432 79.6104 16.7594 76.6127C15.9992 75.0771 14.4803 74.1234 12.7951 74.1234H5.38027C4.03184 74.1234 2.93477 73.0264 2.93477 71.6779V67.8137H97.0654V71.6779C97.0654 73.0264 95.9684 74.1234 94.6199 74.1234H87.2051C85.5199 74.1234 84.0008 75.0771 83.2408 76.6127C81.757 79.6105 78.76 81.4725 75.4195 81.4725H36.4025C35.5922 81.4725 34.9352 82.1293 34.9352 82.9398C34.9352 83.7504 35.5922 84.4072 36.4025 84.4072H40.01V85.5992C40.01 88.1281 38.7926 90.5309 36.7535 92.0268L34.2734 93.8461C33.4951 94.417 33.174 95.417 33.4744 96.3346C33.7748 97.252 34.6252 97.8682 35.5906 97.8682H64.4096C65.3748 97.8682 66.2254 97.2518 66.5258 96.3346C66.8262 95.4172 66.5051 94.417 65.7268 93.8461L63.2467 92.0266C61.2076 90.5309 59.9902 88.1281 59.9902 85.5992V84.4072H75.4195C79.8838 84.4072 83.8887 81.9193 85.8709 77.9147C86.1324 77.3863 86.6436 77.0582 87.2051 77.0582H94.6197C97.5865 77.0582 100 74.6447 100 71.6779V67.3246C100 65.9762 98.9029 64.8789 97.5545 64.8789ZM36.9426 20.9336C36.9426 20.1797 37.5561 19.5662 38.31 19.5662H61.69C62.4439 19.5662 63.0572 20.1797 63.0572 20.9336C63.0572 21.6875 62.4439 22.301 61.69 22.301H38.31C37.5561 22.301 36.9426 21.6875 36.9426 20.9336ZM44.4629 25.2357H55.5371C53.3414 26.8695 52.0312 29.4713 52.0312 32.21V35.6834H47.9688V32.21C47.9688 29.4713 46.6586 26.8695 44.4629 25.2357ZM40.9412 47.5088L37.7482 45.1666H49.8961C50.7066 45.1666 51.3635 44.5098 51.3635 43.6992C51.3635 42.8887 50.7066 42.2318 49.8961 42.2318H29.0078C28.0115 42.2318 27.201 41.4213 27.201 40.425C27.201 39.4287 28.0115 38.6182 29.0078 38.6182H70.9922C71.9887 38.6182 72.799 39.4287 72.799 40.425C72.799 41.4215 71.9885 42.2318 70.9922 42.2318H57.6119C56.8014 42.2318 56.1445 42.8887 56.1445 43.6992C56.1445 44.5098 56.8014 45.1666 57.6119 45.1666H62.252L59.0592 47.5088C55.6123 50.0371 53.5545 54.0984 53.5545 58.373V64.8789H46.4457V58.373C46.4455 54.0986 44.3879 50.0371 40.9412 47.5088ZM61.5107 94.393L62.2475 94.9334H37.7525L38.4893 94.3932C41.2791 92.3467 42.9445 89.0594 42.9445 85.5994V84.4074H57.0553V85.5994C57.0553 89.0594 58.7209 92.3467 61.5107 94.393Z" fill="#C43340" stroke="#FADC5A" mask="url(#path-1-inside-1_218_33384)"/>
</g>
<path id="Vector_2" d="M79.8571 61.0199L79.8571 61.0199L79.8565 61.0173C79.1911 57.7517 78.8538 54.4065 78.8538 51.0746V38.7184C78.8538 38.0459 79.3987 37.501 80.0711 37.501C80.7436 37.501 81.2885 38.0459 81.2883 38.7185V38.7186V51.0748C81.2883 54.2437 81.6094 57.4253 82.242 60.5313L82.242 60.5313L82.2428 60.5349C82.3289 60.9282 82.238 61.2383 82.0618 61.4669C81.8813 61.7014 81.5991 61.8649 81.2867 61.9293C80.9742 61.9938 80.6508 61.9552 80.3925 61.8108C80.1406 61.6699 79.934 61.4195 79.8571 61.0199Z" fill="#373435" stroke="#FADC5A" stroke-width="0.5"/>
<path id="Vector_3" d="M18.9343 61.992L18.9318 61.992C18.176 61.9996 17.5795 61.2729 17.7394 60.5341L17.74 60.5312C18.3728 57.4255 18.6937 54.2439 18.6937 51.0746V38.7184C18.6937 38.0459 19.2387 37.501 19.911 37.501C20.5833 37.501 21.1284 38.0459 21.1284 38.7184V51.0746C21.1284 54.4069 20.791 57.7523 20.1256 61.0173L20.1256 61.0173C20.0082 61.5938 19.5008 61.992 18.9343 61.992Z" fill="#373435" stroke="#FADC5A" stroke-width="0.5"/>
<path id="Vector_4" d="M26.9509 49.7463V60.7742C26.9509 61.4467 26.406 61.9916 25.7335 61.9916C25.0612 61.9916 24.5161 61.4467 24.5161 60.7742V49.7463C24.5161 49.0738 25.0612 48.5289 25.7335 48.5289C26.4058 48.5289 26.9509 49.0738 26.9509 49.7463Z" fill="#373435" stroke="#FADC5A" stroke-width="0.5"/>
<path id="Vector_5" d="M73.0491 49.7463V60.7742C73.0491 61.4467 73.594 61.9916 74.2665 61.9916C74.9389 61.9916 75.4838 61.4467 75.4838 60.7742V49.7463C75.4838 49.0738 74.939 48.5289 74.2665 48.5289L73.0491 49.7463ZM73.0491 49.7463C73.0491 49.0741 73.5939 48.5291 74.2665 48.5289L73.0491 49.7463Z" fill="#373435" stroke="#FADC5A" stroke-width="0.5"/>
<path id="Vector_6" d="M43.2966 5.48766L43.2966 5.48765L42.8661 5.11948L42.8661 5.11947C42.3553 4.68249 41.5867 4.74242 41.1497 5.25366L41.1497 5.25371C40.7129 5.76433 40.7729 6.53289 41.2839 6.96997L43.2966 5.48766ZM43.2966 5.48766C45.1841 7.10169 46.2665 9.45141 46.2665 11.935V13.0881C46.2665 13.7605 45.7214 14.3055 45.0491 14.3055C44.3768 14.3055 43.8318 13.7605 43.8318 13.0881V11.935C43.8318 10.1644 43.06 8.48876 41.7144 7.33813C41.7144 7.33813 41.7144 7.33812 41.7144 7.33812L41.2839 6.96998L43.2966 5.48766Z" fill="#373435" stroke="#FADC5A" stroke-width="0.5"/>
<path id="Vector_7" d="M26.4958 27.0906L26.4973 27.0912C27.1077 27.3266 27.8281 27.0166 28.0645 26.3831L28.0649 26.3821L28.8459 24.3159C29.7366 21.9594 30.1882 19.4874 30.1882 16.968V14.0928C30.1882 11.8903 31.9796 10.0988 34.1819 10.0988C35.4542 10.0988 36.6603 10.7122 37.4096 11.7407L26.4958 27.0906ZM26.4958 27.0906C25.8668 26.8527 25.5497 26.1502 25.7871 25.5213L26.5681 23.4552L26.5681 23.4552C27.3544 21.3748 27.7532 19.1919 27.7532 16.968V14.0928C27.7532 10.5484 30.6372 7.66426 34.1817 7.66426C36.2288 7.66426 38.1715 8.65243 39.3772 10.3068L41.024 12.5668L41.024 12.5668C41.42 13.11 41.3005 13.8714 40.7572 14.2675C40.2139 14.6633 39.4523 14.5437 39.0564 14.0006C39.0564 14.0006 39.0564 14.0006 39.0564 14.0006L37.4096 11.7407L26.4958 27.0906Z" fill="#373435" stroke="#FADC5A" stroke-width="0.5"/>
<path id="Vector_8" d="M58.9226 5.25332L58.9226 5.25328C58.4857 4.74239 57.7172 4.68231 57.2064 5.11944L57.2063 5.11948L56.7761 5.48745L56.776 5.48746C54.8884 7.10148 53.8062 9.45119 53.8062 11.9348V13.0879V13.0879C53.806 13.7604 54.3509 14.3053 55.0233 14.3053C55.6958 14.3053 56.2407 13.7604 56.2407 13.0879V11.9348C56.2407 10.1642 57.0125 8.48856 58.3583 7.33774L58.9226 5.25332ZM58.9226 5.25332C59.3596 5.76419 59.2997 6.53255 58.7888 6.96957C58.7888 6.96958 58.7888 6.96958 58.7888 6.96958L58.3583 7.33772L58.9226 5.25332Z" fill="#373435" stroke="#FADC5A" stroke-width="0.5"/>
<path id="Vector_9" d="M58.9676 14.2675L58.9677 14.2675C59.5109 14.6637 60.2726 14.5441 60.6683 14.0007L60.6683 14.0006L62.315 11.7407C63.0642 10.7124 64.2705 10.0988 65.5426 10.0988C67.7451 10.0988 69.5366 11.8903 69.5366 14.0928V16.968C69.5366 19.4876 69.9883 21.9596 70.879 24.3159L70.879 24.3159L71.6599 26.3821L71.6608 26.3845C71.8009 26.7669 72.0451 26.9812 72.3164 27.0801C72.5944 27.1815 72.9198 27.1678 73.2178 27.0542C73.5158 26.9407 73.7681 26.7341 73.9088 26.4738C74.0461 26.2198 74.0863 25.8992 73.9386 25.5248L73.9373 25.5214L73.9373 25.5214L73.1564 23.455C72.37 21.3748 71.9711 19.1921 71.9711 16.968V14.0928C71.9711 10.5484 69.087 7.66426 65.5426 7.66426C63.4956 7.66426 61.5529 8.65242 60.3472 10.3068L58.9676 14.2675ZM58.9676 14.2675C58.4243 13.8714 58.3047 13.11 58.7005 12.5668C58.7005 12.5668 58.7005 12.5668 58.7005 12.5668L60.3472 10.3068L58.9676 14.2675Z" fill="#373435" stroke="#FADC5A" stroke-width="0.5"/>
<path id="Vector_10" d="M51.2175 13.0879C51.2175 13.7604 50.6726 14.3053 50.0001 14.3053C49.3278 14.3053 48.7827 13.7603 48.7827 13.0879V3.59902C48.7827 2.92657 49.3278 2.38164 50.0001 2.38164C50.6726 2.38164 51.2175 2.92654 51.2175 3.59902V13.0879Z" fill="#373435" stroke="#FADC5A" stroke-width="0.5"/>
</g>
</g>
<defs>
<clipPath id="clip0_218_33384">
<rect width="100" height="100" fill="white"/>
</clipPath>
</defs>
</svg>
