<svg width="98" height="96" viewBox="0 0 98 96" fill="none" xmlns="http://www.w3.org/2000/svg">
<path d="M96.9688 93.4297L84.0977 60.6953C83.9219 60.2461 83.4923 59.9531 83.004 59.9531L65.3868 59.9141L72.8477 49.9922C77.3985 43.957 79.6446 36.6914 79.1563 29.543C78.668 22.0234 75.4649 14.9336 70.1524 9.58203C58.629 -1.92187 39.9766 -1.92187 28.4532 9.58203C23.1212 14.9141 19.918 22.0039 19.4298 29.543C18.961 36.5352 21.1876 43.8008 25.7383 49.9922L33.2383 59.9727H16.1876C15.7188 59.9727 15.2891 60.2461 15.1133 60.6758L1.05085 93.3906C0.8946 93.7617 0.933662 94.1719 1.14851 94.5234C1.36335 94.8555 1.73444 95.0703 2.12507 95.0703H95.8751C96.5391 95.0508 97.0665 94.5039 97.0469 93.8398C97.0469 93.7031 97.0079 93.5664 96.9688 93.4297ZM82.2227 62.3164L86.5001 73.1953L70.1133 73.2148L68.1993 62.2773L82.2227 62.3164ZM21.7735 29.6992C22.2227 22.7461 25.1915 16.1836 30.1133 11.2422C40.7188 0.65625 57.8868 0.65625 68.4923 11.2422C73.4141 16.1836 76.3829 22.7461 76.8321 29.6992C77.2618 36.2812 75.1915 42.9805 70.9923 48.5859L49.3321 77.3945C49.3126 77.4141 49.293 77.4141 49.293 77.3945L27.6133 48.5859C23.4141 42.8438 21.3243 36.1445 21.7735 29.6992ZM30.504 92.7266H3.90241L8.74616 81.418L31.461 81.3984L30.504 92.7266ZM47.7891 84.3867L47.7696 92.7266H32.8673L33.9219 80.3242C33.9805 79.6797 33.4923 79.1133 32.8477 79.0547C32.8087 79.0547 32.7891 79.0547 32.7501 79.0547L9.76179 79.0742L16.9493 62.3164H34.9962L47.3985 78.8008C47.8477 79.4062 48.5508 79.7578 49.293 79.7383C50.0352 79.7383 50.7384 79.3867 51.1876 78.8008L63.629 62.2578H65.8165L67.9844 74.582C68.0821 75.1484 68.5704 75.5391 69.1368 75.5391L87.418 75.5L90.4258 83.1758L48.961 83.1953C48.3165 83.1953 47.7891 83.7422 47.7891 84.3867ZM50.1134 92.7266L50.1329 85.5586H91.3438L94.1563 92.7266H50.1134Z" fill="#C43340"/>
<path d="M63.491 16.0078C60.3168 14.5473 56.1951 16.6935 54.3028 20.7917C53.2311 23.1125 53.0546 25.6311 53.8188 27.7017C54.3656 29.1832 55.3368 30.2802 56.628 30.8742C57.2947 31.1794 58.0198 31.3358 58.753 31.3325C61.4561 31.3325 64.3267 29.3161 65.8162 26.0903C66.8878 23.7695 67.0642 21.2509 66.3001 19.1803C65.7535 17.6991 64.7822 16.6021 63.491 16.0078ZM63.5119 17.0795C64.1684 17.486 64.7062 18.0585 65.0708 18.7392L64.9253 19.0541L63.0078 18.1719L63.5119 17.0795ZM56.8874 24.1543L57.6113 22.5865L59.529 23.4688L58.8051 25.0366L56.8874 24.1543ZM58.4121 25.8878L57.6882 27.4555L55.7704 26.5732L56.4943 25.0055L58.4121 25.8878ZM58.0042 21.7354L58.7282 20.1676L60.646 21.0499L59.9219 22.618L58.0042 21.7354ZM60.3807 23.8604L62.2985 24.7427L61.5746 26.3105L59.6568 25.4282L60.3807 23.8604ZM60.7738 23.0088L61.4977 21.4411L63.4155 22.3234L62.6915 23.8912L60.7738 23.0088ZM61.8906 20.5909L62.6145 19.0234L64.5324 19.9058L63.8085 21.4735L61.8906 20.5909ZM60.3828 16.5841C60.7004 16.518 61.0238 16.4841 61.3482 16.483C61.7936 16.4817 62.2363 16.551 62.6599 16.6883L62.1563 17.7802L60.2381 16.8978L60.3828 16.5841ZM59.8449 17.749L61.7628 18.6313L61.0391 20.1991L59.1212 19.3168L59.8449 17.749ZM58.6953 17.2199L58.9935 17.3571L58.2696 18.9249L57.119 18.3955C57.5913 17.9371 58.1212 17.5419 58.6953 17.2199ZM56.449 19.1193L57.8765 19.7761L57.1526 21.3437L55.4666 20.568C55.748 20.0555 56.0769 19.5704 56.449 19.1193ZM55.0536 21.4101L56.7595 22.1953L56.0356 23.7631L54.5097 23.061C54.6407 22.4954 54.8227 21.9428 55.0536 21.4101ZM54.3458 25.9179C54.268 25.2864 54.2672 24.6477 54.3435 24.016L55.6427 24.6137L54.9188 26.1816L54.3458 25.9179ZM56.6051 29.8014C55.9487 29.3944 55.4113 28.8216 55.0469 28.1406L55.3775 27.4247L57.2953 28.307L56.6051 29.8014ZM59.7327 30.3001C58.9777 30.4634 58.1931 30.4266 57.4567 30.1934L58.1469 28.6987L60.0646 29.5811L59.7327 30.3001ZM60.4577 28.7298L58.5399 27.8477L59.2638 26.2799L61.1816 27.1623L60.4577 28.7298ZM61.8817 29.385L61.3093 29.1216L62.0332 27.5538L63.3308 28.1508C62.8986 28.6185 62.4122 29.0329 61.8817 29.3853V29.385ZM63.952 27.4048L62.4263 26.7031L63.1502 25.1353L64.8581 25.9211C64.6021 26.4424 64.2989 26.9391 63.9524 27.4052L63.952 27.4048ZM65.2319 25.0611L63.5428 24.2839L64.2667 22.7161L65.6999 23.3755C65.5969 23.9508 65.4404 24.5152 65.2323 25.0612L65.2319 25.0611ZM65.8166 22.397L64.6597 21.8648L65.3836 20.297L65.6846 20.4355C65.8149 21.0808 65.8594 21.7405 65.817 22.3974L65.8166 22.397Z" fill="#373435"/>
<path d="M64.3818 14.0788C60.3168 12.2086 55.0707 14.8866 52.6874 20.0488C51.3521 22.9409 51.1384 26.0965 52.1015 28.7061C52.5966 30.0477 53.3649 31.1446 54.3573 31.9463L52.4949 35.98L52.2927 35.9368C52.0727 35.8897 51.8493 35.8605 51.6246 35.8494L51.283 35.3542C51.0062 34.9538 50.8875 34.4649 50.9499 33.9821C51.042 33.2698 50.8669 32.5486 50.4586 31.9577L40.1526 17.0246C39.7 16.3713 39.0071 15.9239 38.2254 15.7802C37.4438 15.6365 36.637 15.8082 35.9817 16.2578C35.6573 16.4806 35.3802 16.7652 35.166 17.0952C34.9518 17.4252 34.8048 17.7943 34.7334 18.1812C34.662 18.5681 34.6676 18.9654 34.7499 19.3501C34.8322 19.7349 34.9896 20.0996 35.2131 20.4234L41.2399 29.1563C39.5469 28.8453 37.8023 28.9767 36.175 29.5375C34.5476 30.0984 33.0925 31.0698 31.9506 32.3578C30.8086 33.6458 30.0184 35.2067 29.6565 36.8895C29.2945 38.5724 29.373 40.3201 29.8844 41.9637C30.3959 43.6073 31.3228 45.0911 32.5757 46.2715C33.8286 47.4518 35.3649 48.2889 37.036 48.7015C38.7071 49.1142 40.4565 49.0885 42.1148 48.6271C43.7731 48.1656 45.2842 47.2839 46.5019 46.0673C46.5734 45.996 46.6431 45.9235 46.712 45.8505C46.4908 46.4809 46.4541 47.1613 46.6062 47.8118C46.7583 48.4624 47.0929 49.056 47.5707 49.523C48.0485 49.9899 48.6496 50.3108 49.3035 50.448C49.9573 50.5852 50.6367 50.5329 51.2619 50.2973C51.8871 50.0617 52.432 49.6526 52.8327 49.118C53.2334 48.5835 53.4733 47.9457 53.5241 47.2795C53.5748 46.6134 53.4345 45.9466 53.1194 45.3574C52.8044 44.7683 52.3277 44.2813 51.7455 43.9537L52.5027 44.1099L53.347 44.5673L55.4504 47.6152L55.3888 47.6575C55.2727 47.7373 55.1735 47.8393 55.0968 47.9575C55.0201 48.0758 54.9675 48.208 54.9419 48.3466C54.9164 48.4852 54.9184 48.6274 54.9479 48.7652C54.9774 48.9031 55.0337 49.0337 55.1138 49.1497C55.4438 49.6263 55.9492 49.9528 56.5194 50.0577C57.0896 50.1626 57.6781 50.0374 58.1561 49.7094L59.3889 48.8616C59.6469 48.684 59.8638 48.4529 60.0248 48.1842L60.5482 48.4677C61.0809 48.7571 61.7045 48.8302 62.2896 48.6718L64.3267 48.1236C64.4489 48.0908 64.5615 48.0289 64.6547 47.9432C64.7479 47.8576 64.8191 47.7507 64.8622 47.6316C64.9053 47.5126 64.9189 47.3848 64.9021 47.2594C64.8852 47.1339 64.8383 47.0143 64.7653 46.9109L63.2187 44.7181L66.1121 43.4956C66.1153 43.4942 66.1185 43.4927 66.1217 43.4913C66.2403 43.4382 66.3438 43.3565 66.423 43.2536C66.5022 43.1506 66.5547 43.0297 66.5758 42.9015C66.5969 42.7733 66.5858 42.6419 66.5437 42.5191C66.5016 42.3962 66.4297 42.2857 66.3345 42.1974L64.2701 40.1809L66.5361 38.7366C66.6437 38.6681 66.733 38.5744 66.7963 38.4637C66.8596 38.3529 66.895 38.2284 66.8995 38.101C66.9039 37.9735 66.8773 37.8468 66.8219 37.7319C66.7665 37.617 66.684 37.5173 66.5814 37.4414L64.9113 36.2048C64.4566 35.8677 63.8959 35.7052 63.3314 35.747L55.933 36.2247L57.2871 33.2918C57.687 33.3641 58.0926 33.4004 58.499 33.4C61.9371 33.4 65.5643 30.8797 67.4324 26.8339C68.7679 23.9417 68.9815 20.7862 68.0184 18.1766C67.3124 16.2656 66.0554 14.8488 64.3818 14.0788ZM51.6654 36.7919L50.389 42.7427C49.9615 42.6958 49.3481 42.5786 48.9531 42.0805C49.2755 41.0825 49.4392 40.0401 49.4381 38.9913C49.4379 38.628 49.4183 38.2649 49.3792 37.9037C49.6228 37.1689 50.5992 36.7109 51.6654 36.7919ZM49.5537 43.5333C49.0008 43.6077 48.4738 43.8137 48.017 44.1339C48.2297 43.7813 48.4202 43.4158 48.5873 43.0395C48.8734 43.2667 49.2019 43.4346 49.5537 43.5333ZM40.9101 30.0499C41.486 30.145 42.0515 30.2952 42.5988 30.4984C42.699 30.5361 42.8091 30.5384 42.9107 30.5049C43.0124 30.4713 43.0995 30.404 43.1576 30.3141V30.3135C43.1954 30.2547 43.2197 30.1883 43.2285 30.1189C43.2373 30.0496 43.2305 29.9791 43.2086 29.9127C43.1867 29.8464 43.1502 29.7857 43.1018 29.7353C43.0534 29.6848 42.9943 29.6459 42.9289 29.6212C42.8285 29.5838 42.7274 29.5486 42.626 29.5145L35.9847 19.8906C35.8312 19.6682 35.7232 19.4177 35.6666 19.1535C35.6101 18.8892 35.6063 18.6165 35.6553 18.3507C35.7044 18.085 35.8054 17.8316 35.9525 17.6049C36.0997 17.3783 36.2901 17.1829 36.5128 17.0299C36.9635 16.7208 37.5182 16.6027 38.0557 16.7015C38.5932 16.8003 39.0697 17.108 39.381 17.5571L49.6864 32.4903C49.9633 32.8908 50.0819 33.3797 50.0195 33.8625C49.9274 34.5748 50.1025 35.2959 50.5108 35.8867L50.5488 35.9414C50.0357 36.0519 49.5579 36.2872 49.1575 36.6265C48.7249 34.8407 47.8056 33.2098 46.5019 31.915C46.3076 31.721 46.1074 31.5368 45.9012 31.3624C45.8544 31.3207 45.7998 31.2887 45.7405 31.2685C45.6812 31.2482 45.6184 31.2401 45.5559 31.2445C45.4934 31.2489 45.4324 31.2658 45.3765 31.2942C45.3207 31.3226 45.2711 31.3619 45.2307 31.4098C45.1903 31.4577 45.1599 31.5133 45.1413 31.5731C45.1227 31.633 45.1163 31.6959 45.1225 31.7583C45.1287 31.8207 45.1473 31.8812 45.1773 31.9362C45.2072 31.9912 45.2479 32.0397 45.297 32.0788C45.3648 32.1363 45.4312 32.1959 45.4977 32.2563L42.3734 35.375C41.7442 34.6549 41.2858 33.802 41.0324 32.8799C40.779 31.9578 40.7372 30.9904 40.9101 30.0499ZM48.3779 37.4964C47.4353 37.6702 46.4656 37.6292 45.5409 37.3767C44.6162 37.1241 43.7604 36.6664 43.037 36.0375L46.162 32.9178C47.3265 34.1986 48.096 35.7885 48.3779 37.4964ZM39.414 29.9264C39.6018 29.9264 39.7895 29.9323 39.9771 29.9441C39.7875 31.0248 39.8447 32.1344 40.1445 33.1899C40.4442 34.2453 40.9788 35.2194 41.7081 36.0391L39.414 38.329L33.3296 32.2556C34.9993 30.7524 37.1674 29.9224 39.414 29.9264ZM30.3281 38.9913C30.322 36.7459 31.1561 34.5794 32.6664 32.9178L38.7508 38.9913L36.4695 41.2684C35.6402 40.5452 34.6606 40.0154 33.6014 39.7171C32.5423 39.4188 31.4301 39.3596 30.3453 39.5438C30.3342 39.3606 30.3281 39.1764 30.3281 38.9913ZM30.4491 40.4757C31.3938 40.2992 32.3662 40.3385 33.2936 40.5907C34.221 40.8429 35.0794 41.3015 35.8046 41.9321L32.6663 45.0649C31.4995 43.7815 30.7294 42.1876 30.4491 40.4759V40.4757ZM37.9288 47.9347C36.2157 47.6555 34.6192 46.889 33.3299 45.7269L36.4684 42.5941C37.0995 43.3161 37.5588 44.1718 37.8118 45.0968C38.0647 46.0219 38.1048 46.9922 37.9288 47.9349V47.9347ZM38.861 48.0387C39.0442 46.9562 38.9842 45.8464 38.6853 44.79C38.3864 43.7335 37.856 42.7569 37.1328 41.9309L39.414 39.6537L45.4984 45.7271C44.6012 46.5343 43.5521 47.1545 42.4125 47.5514C41.2728 47.9484 40.0654 48.1142 38.861 48.0391V48.0387ZM46.1623 45.0645L40.0781 38.9913L42.373 36.7006C43.7078 37.8848 45.4304 38.5389 47.2149 38.5391C47.6399 38.5387 48.0641 38.5019 48.4828 38.4291C48.4942 38.6156 48.5006 38.803 48.5006 38.9916C48.5066 41.2369 47.6725 43.4032 46.1623 45.0648V45.0645ZM52.5967 47.0108C52.5967 47.5196 52.4458 48.017 52.1631 48.44C51.8805 48.8631 51.4787 49.1928 51.0086 49.3875C50.5385 49.5822 50.0213 49.6331 49.5223 49.5339C49.0232 49.4346 48.5648 49.1896 48.2051 48.8298C47.8453 48.47 47.6003 48.0116 47.501 47.5126C47.4017 47.0136 47.4527 46.4963 47.6474 46.0263C47.8421 45.5562 48.1718 45.1544 48.5949 44.8717C49.0179 44.589 49.5153 44.4381 50.0241 44.4381C50.7062 44.4389 51.3602 44.7102 51.8425 45.1926C52.3248 45.6749 52.5961 46.3289 52.5967 47.011V47.0108ZM52.3064 43.1094L51.3146 42.8974L52.5881 36.959L53.5799 37.171L52.3064 43.1094ZM55.1662 45.5526L57.0031 46.5476L56.2229 47.084L55.1662 45.5526ZM58.8578 48.0892L57.6249 48.9369C57.3516 49.1244 57.0152 49.196 56.6892 49.1361C56.3632 49.0762 56.0742 48.8897 55.8854 48.6173C55.8753 48.6027 55.8682 48.5863 55.8645 48.569C55.8607 48.5516 55.8605 48.5337 55.8637 48.5163C55.8669 48.4989 55.8736 48.4822 55.8832 48.4674C55.8929 48.4525 55.9055 48.4398 55.9201 48.4298L57.9286 47.0487L59.1985 47.7362C59.1093 47.8751 58.9935 47.995 58.8578 48.0889V48.0892ZM63.8744 47.2745L62.0458 47.7667C61.6926 47.8625 61.3161 47.8183 60.9946 47.6435L53.1985 43.4208L53.55 41.7802L61.9103 44.8114C62.1081 44.8828 62.2791 45.0133 62.4001 45.1853L63.8744 47.2745ZM65.5306 42.7236L62.4485 44.0258L53.7488 40.8549L53.9498 39.9174L63.0641 40.5814C63.1499 40.5812 63.2355 40.5753 63.3206 40.5639L65.5306 42.7236ZM63.3962 36.6825C63.7379 36.6565 64.0776 36.7545 64.353 36.9586L65.8463 38.0644L63.6205 39.4831C63.4331 39.6021 63.2124 39.6577 62.991 39.6418L54.1484 38.9922L54.521 37.2551L63.3962 36.6825ZM54.8679 36.2934L54.1713 36.3384L53.4342 36.1809L55.1382 32.4902C55.3323 32.6049 55.5322 32.7096 55.737 32.8039C55.9415 32.8979 56.1508 32.981 56.3641 33.0531L54.8679 36.2934ZM66.5806 26.4409C64.4135 31.1342 59.725 33.6066 56.1288 31.9522C54.6862 31.2881 53.5976 30.0538 52.9804 28.3819C52.103 26.0039 52.3062 23.1099 53.5381 20.442C55.2486 16.7375 58.5299 14.4167 61.6051 14.4167C62.4279 14.413 63.2416 14.5883 63.9898 14.9307C65.4324 15.5948 66.521 16.8291 67.1382 18.501C68.0156 20.879 67.8124 23.773 66.5806 26.4409Z" fill="#373435"/>
<path d="M37.4549 18.6635L37.3656 18.5294C37.332 18.4772 37.2882 18.4322 37.237 18.3971C37.1858 18.3619 37.1281 18.3372 37.0673 18.3246C37.0064 18.3119 36.9437 18.3115 36.8827 18.3233C36.8217 18.335 36.7636 18.3588 36.7119 18.3933C36.6602 18.4277 36.6158 18.4721 36.5814 18.5238C36.547 18.5755 36.5232 18.6336 36.5114 18.6946C36.4997 18.7556 36.5001 18.8183 36.5128 18.8792C36.5255 18.94 36.5501 18.9977 36.5853 19.0489L36.6745 19.183C36.7084 19.2348 36.7522 19.2794 36.8033 19.3142C36.8545 19.349 36.9121 19.3733 36.9727 19.3858C37.0334 19.3982 37.0959 19.3985 37.1566 19.3867C37.2174 19.3749 37.2752 19.3511 37.3267 19.3168C37.3782 19.2825 37.4224 19.2383 37.4568 19.1869C37.4912 19.1354 37.515 19.0776 37.5269 19.0169C37.5389 18.9561 37.5386 18.8936 37.5263 18.833C37.5139 18.7723 37.4897 18.7147 37.4549 18.6635Z" fill="#373435"/>
<path d="M38.2467 19.8532C38.1772 19.7512 38.0702 19.6808 37.9491 19.6572C37.8279 19.6335 37.7023 19.6587 37.5996 19.7271C37.4969 19.7955 37.4252 19.9016 37.4003 20.0225C37.3754 20.1434 37.3991 20.2692 37.4664 20.3727L40.8075 25.3918C40.8411 25.444 40.8849 25.489 40.9361 25.5242C40.9873 25.5594 41.045 25.584 41.1058 25.5967C41.1666 25.6093 41.2294 25.6098 41.2904 25.598C41.3514 25.5862 41.4094 25.5624 41.4612 25.528C41.5129 25.4935 41.5572 25.4492 41.5917 25.3974C41.6261 25.3457 41.6499 25.2876 41.6617 25.2266C41.6734 25.1656 41.673 25.1029 41.6603 25.0421C41.6476 24.9813 41.623 24.9236 41.5878 24.8723L38.2467 19.8532Z" fill="#373435"/>
<path d="M20.2109 65.1875H19.0781C18.4336 65.1875 17.9062 65.7148 17.9062 66.3594C17.9062 67.0039 18.4336 67.5312 19.0781 67.5312H20.2109C20.8555 67.5312 21.3828 67.0039 21.3828 66.3594C21.3828 65.7148 20.8555 65.1875 20.2109 65.1875Z" fill="#C43340"/>
<path d="M33.1016 65.1875H23.9219C23.2773 65.1875 22.75 65.7148 22.75 66.3594C22.75 67.0039 23.2773 67.5312 23.9219 67.5312H33.1016C33.7461 67.5312 34.2734 67.0039 34.2734 66.3594C34.2734 65.7148 33.7461 65.1875 33.1016 65.1875Z" fill="#C43340"/>
</svg>
