<svg width="86" height="86" viewBox="0 0 86 86" fill="none" xmlns="http://www.w3.org/2000/svg">
<g id="GuestSuites 1" clip-path="url(#clip0_180_3431)">
<g id="Group">
<g id="Group_2">
<path id="Vector" d="M54.4667 54.6114V41.5667C54.4667 39.1959 52.5374 37.2667 50.1667 37.2667H10.0333C7.6626 37.2667 5.73333 39.1959 5.73333 41.5667V54.6114C2.46677 55.2779 0 58.1733 0 61.6333V70.2333V84.5667C0 85.3579 0.642133 86 1.43333 86H7.16667C7.95787 86 8.6 85.3579 8.6 84.5667V80.2667H51.6V84.5667C51.6 85.3579 52.2421 86 53.0333 86H58.7667C59.5579 86 60.2 85.3579 60.2 84.5667V70.2333V61.6333C60.2 58.1733 57.7332 55.2779 54.4667 54.6114ZM8.6 41.5667C8.6 40.7769 9.24357 40.1333 10.0333 40.1333H50.1667C50.9564 40.1333 51.6 40.7769 51.6 41.5667V54.4667H48.7333V48.7333C48.7333 46.3626 46.8041 44.4333 44.4333 44.4333H35.8333C33.4626 44.4333 31.5333 46.3626 31.5333 48.7333V54.4667H28.6667V48.7333C28.6667 46.3626 26.7374 44.4333 24.3667 44.4333H15.7667C13.3959 44.4333 11.4667 46.3626 11.4667 48.7333V54.4667H8.6V41.5667ZM45.8667 48.7333V54.4667H34.4V48.7333C34.4 47.9436 35.0436 47.3 35.8333 47.3H44.4333C45.2231 47.3 45.8667 47.9436 45.8667 48.7333ZM25.8 48.7333V54.4667H14.3333V48.7333C14.3333 47.9436 14.9769 47.3 15.7667 47.3H24.3667C25.1564 47.3 25.8 47.9436 25.8 48.7333ZM57.3333 83.1333H54.4667V78.8333C54.4667 78.0421 53.8245 77.4 53.0333 77.4H7.16667C6.37547 77.4 5.73333 78.0421 5.73333 78.8333V83.1333H2.86667V71.6667H57.3333V83.1333ZM57.3333 68.8H2.86667V61.6333C2.86667 59.2626 4.79593 57.3333 7.16667 57.3333H12.9H27.2333H32.9667H47.3H53.0333C55.4041 57.3333 57.3333 59.2626 57.3333 61.6333V68.8Z" fill="#373435"/>
</g>
</g>
<g id="Group_3">
<g id="Group_4">
<path id="Vector_2" d="M65.9333 68.7H65.8333V68.8V75.9667C65.8333 76.7031 65.2364 77.3 64.5 77.3C63.7636 77.3 63.1667 76.7031 63.1667 75.9667V67.3667V55.9C63.1667 55.164 63.764 54.5667 64.5 54.5667H84.5667C85.3026 54.5667 85.9 55.164 85.9 55.9V67.3667V75.9667C85.9 76.7031 85.303 77.3 84.5667 77.3C83.8303 77.3 83.2333 76.7031 83.2333 75.9667V68.8V68.7H83.1333H65.9333ZM83.1333 66.0333H83.2333V65.9333V57.3333V57.2333H83.1333H65.9333H65.8333V57.3333V65.9333V66.0333H65.9333H83.1333Z" fill="#C43340" stroke="#FADC5A" stroke-width="0.2"/>
</g>
</g>
<g id="Group_5">
<g id="Group_6">
<path id="Vector_3" d="M72.6667 60.3H76.4001C76.8971 60.3 77.3001 60.7029 77.3001 61.2V62.0667C77.3001 62.5637 76.8971 62.9667 76.4001 62.9667H72.6667C72.1697 62.9667 71.7667 62.5637 71.7667 62.0667V61.2C71.7667 60.7029 72.1697 60.3 72.6667 60.3Z" fill="#C43340" stroke="#FADC5A" stroke-width="0.2"/>
</g>
</g>
<g id="Group_7">
<g id="Group_8">
<path id="Vector_4" d="M67.5347 45.4453L67.5346 45.4454C67.3987 45.8518 67.4679 46.2985 67.7187 46.6467C67.9694 46.9946 68.372 47.2 68.8 47.2H73.1H73.2V47.3V51.6V51.7H73.1H71.2334C70.7363 51.7 70.3334 52.1029 70.3334 52.6V53.4667C70.3334 53.9637 70.7363 54.3667 71.2334 54.3667H77.8334C78.3304 54.3667 78.7334 53.9637 78.7334 53.4667V52.6C78.7334 52.1029 78.3304 51.7 77.8334 51.7H75.9667H75.8667V51.6V47.3V47.2H75.9667H80.2667C80.6947 47.2 81.0973 46.9947 81.3479 46.6454L81.348 46.6453C81.5986 46.2973 81.6667 45.8506 81.5321 45.4439C81.532 45.4438 81.532 45.4438 81.532 45.4437L78.6655 36.8441L67.5347 45.4453ZM67.5347 45.4453L70.4013 36.8455C70.4013 36.8455 70.4013 36.8454 70.4013 36.8454C70.5841 36.2998 71.0921 35.9333 71.6667 35.9333H77.4C77.9746 35.9333 78.4826 36.2998 78.6654 36.8439L67.5347 45.4453ZM70.6932 44.4017L70.6493 44.5333H70.7881H78.2787H78.4174L78.3735 44.4017L76.4629 38.6684L76.4401 38.6H76.368H72.7001H72.6281L72.6053 38.6684L70.6932 44.4017Z" fill="#C43340" stroke="#FADC5A" stroke-width="0.2"/>
</g>
</g>
<g id="Group_9">
<g id="Group_10">
<path id="Vector_5" d="M85.1529 18.758L43.5862 0.1247C43.2121 -0.0415667 42.7864 -0.0415667 42.4138 0.1247L0.8471 18.758C0.3311 18.9902 0 19.5019 0 20.0667V35.8333C0 36.6249 0.641725 37.2667 1.43333 37.2667C2.22494 37.2667 2.86667 36.6249 2.86667 35.8333V20.994L43 3.00427L83.1333 20.9955V35.8333C83.1333 36.6249 83.7751 37.2667 84.5667 37.2667C85.3583 37.2667 86 36.6249 86 35.8333V20.0667C86 19.5019 85.6689 18.9902 85.1529 18.758Z" fill="#C43340"/>
</g>
</g>
<g id="Group_11">
<g id="Group_12">
<path id="Vector_6" d="M51.9239 20.0934C52.4173 20.0104 52.878 20.3433 52.9106 20.829C52.9256 21.052 52.9332 21.276 52.9332 21.5C52.9332 26.9774 48.4773 31.4333 42.9999 31.4333C37.5224 31.4333 33.0666 26.9774 33.0666 21.5C33.0666 16.0226 37.5224 11.5667 42.9999 11.5667C43.8023 11.5667 44.5939 11.6616 45.3643 11.85C45.8365 11.9655 46.0847 12.4763 45.9182 12.9476L45.6296 13.7649C45.465 14.2311 44.9482 14.4787 44.4468 14.3773C43.973 14.2816 43.4889 14.2333 42.9999 14.2333C38.993 14.2333 35.7332 17.4931 35.7332 21.5C35.7332 25.5069 38.993 28.7667 42.9999 28.7667C47.0068 28.7667 50.2666 25.5069 50.2666 21.5C50.2666 21.4333 50.2657 21.3666 50.2639 21.3001C50.2501 20.7875 50.584 20.3189 51.0727 20.2366L51.9239 20.0934Z" fill="#373435" stroke="#FADC5A" stroke-width="0.2"/>
</g>
</g>
<g id="Group_13">
<g id="Group_14">
<path id="Vector_7" d="M42.9292 20.9773L42.9999 21.048L43.0706 20.9773L51.3835 12.6644C51.7349 12.313 52.3048 12.313 52.6563 12.6644L53.2688 13.277C53.6203 13.6284 53.6203 14.1983 53.2688 14.5498L43.9426 23.876C43.6825 24.136 43.3413 24.2667 42.9999 24.2667C42.6585 24.2667 42.3173 24.136 42.0573 23.876L39.8977 21.7164C39.5462 21.365 39.5462 20.7951 39.8977 20.4436L40.5102 19.8311C40.8617 19.4796 41.4315 19.4796 41.783 19.8311L42.9292 20.9773Z" fill="#373435" stroke="#FADC5A" stroke-width="0.2"/>
</g>
</g>
</g>
<defs>
<clipPath id="clip0_180_3431">
<rect width="86" height="86" fill="white"/>
</clipPath>
</defs>
</svg>
