<svg width="100" height="100" viewBox="0 0 100 100" fill="none" xmlns="http://www.w3.org/2000/svg">
<g id="Infinity Swimming Pool 1">
<g id="Layer_x0020_1">
<g id="_1661836836624">
<path id="Vector" fill-rule="evenodd" clip-rule="evenodd" d="M14.014 79.6301L85.7534 79.6062L85.8047 86.1675L14.0303 86.1954L14.014 79.6301ZM12.0347 87.9819L87.6982 88.0858L87.6306 77.0694L69.8522 48.4756L58.2719 48.5703L58.3536 50.8586L68.5225 50.9001L84.7247 77.1899L15.0807 77.1327C16.0223 75.1402 17.7975 72.5557 19.0129 70.6045C20.3749 68.4178 21.6654 66.2077 23.0492 63.9922L31.2853 50.8763L40.2721 50.8692L40.3455 48.4557L29.9556 48.6062L12.1887 77.1745L12.0347 87.9819Z" fill="#C43340"/>
<path id="Vector_2" d="M20.1581 23.0543L20.165 23.3179L20.4278 23.297C21.4447 23.2161 22.1483 23.126 22.7003 23.0498C22.7873 23.0378 22.8701 23.0262 22.9495 23.0151C23.3769 22.9553 23.7044 22.9095 24.0416 22.889C24.8304 22.8409 25.677 22.9314 27.9029 23.3594L28.1945 23.4155L28.2 23.1186C28.2408 20.9373 28.0457 19.0763 27.4322 17.5893C26.8139 16.0906 25.774 14.9812 24.1568 14.3083L24.0488 14.2634L23.9452 14.3174C21.1985 15.7484 20.0507 18.9596 20.1581 23.0543ZM30.1296 22.7589L30.1291 23.0332L30.4023 23.0083L34.1291 22.6693L34.4044 22.6443L34.3519 22.3729C33.7015 19.011 31.6075 16.5763 29.0039 15.4048L28.44 15.1511L28.6692 15.7254C29.1875 17.0247 29.5516 17.9815 29.7875 19.0132C30.0228 20.0419 30.1326 21.1543 30.1296 22.7589ZM13.9755 22.3799L13.9191 22.6624L14.2067 22.6785L17.9723 22.8887L18.2392 22.9036L18.2363 22.6364C18.2192 21.0793 18.3231 20.0176 18.5573 19.0201C18.7926 18.0181 19.1611 17.0725 19.6872 15.7394L19.8889 15.2284L19.3711 15.4121C17.9269 15.9243 17.0909 16.7391 15.9584 18.0259L15.9583 18.026C15.1206 18.9791 14.3227 20.6408 13.9755 22.3799ZM15.3704 39.1588L22.9611 39.1648L23.2114 39.1649L23.2113 38.9146L23.2057 25.0622L23.2055 24.7679L22.9152 24.8156C21.9651 24.9715 21.3454 25.1903 20.8999 25.4051C20.6778 25.5121 20.5024 25.6165 20.356 25.7069C20.3259 25.7255 20.2976 25.7431 20.2708 25.7598C20.1631 25.8269 20.0794 25.8789 19.9974 25.9203C19.9015 25.9686 19.8223 25.9942 19.7372 26.0011C19.6507 26.0082 19.5414 25.9974 19.3851 25.9493C19.0628 25.8501 18.5906 25.6094 17.7924 25.1357C16.6451 24.4547 15.6698 24.4235 14.8806 24.5796C14.4918 24.6566 14.1516 24.7783 13.8707 24.8807L13.8611 24.8842C13.5713 24.9898 13.373 25.0621 13.2202 25.0774L13.2202 25.0774C12.6619 25.1333 12.299 25.0451 12.0681 24.8884C11.8429 24.7357 11.7043 24.4913 11.6495 24.1446C11.5362 23.4285 11.7974 22.3773 12.2615 21.2258C12.7202 20.0879 13.357 18.8994 13.9418 17.9305C14.5312 16.9542 15.053 16.2256 15.278 15.9937L15.278 15.9937C20.2237 10.8928 28.4805 11.1393 33.0748 15.9122C35.0716 17.9866 36.2664 20.9065 36.5151 24.9179C35.5439 25.2387 34.8887 25.062 34.1714 24.8685C34.0759 24.8428 33.9792 24.8167 33.8806 24.7915C33.4364 24.6779 32.9542 24.5839 32.3774 24.64C31.8007 24.6961 31.1477 24.9001 30.3512 25.3547C29.6443 25.7579 29.2042 25.9289 28.8924 25.9752C28.6026 26.0183 28.4126 25.9556 28.1877 25.8308C28.1076 25.7863 28.0299 25.7379 27.9413 25.6828C27.8935 25.6531 27.8426 25.6214 27.7865 25.5873C27.632 25.4935 27.4541 25.3919 27.2389 25.2951C26.8062 25.1005 26.2371 24.9318 25.4087 24.8655L25.1377 24.8438L25.1387 25.1157L25.1933 38.9146L25.1943 39.1637L25.4434 39.1636L40.0308 39.1587L40.0141 41.048L15.3767 41.0059L15.3704 39.1588Z" fill="#373435" stroke="#FADC5A" stroke-width="0.5"/>
<path id="Vector_3" fill-rule="evenodd" clip-rule="evenodd" d="M49.904 72.7858C44.1869 72.787 42.8424 70.4845 35.8812 72.273C30.2286 73.725 25.1846 70.6988 21.9205 71.912C21.6522 74.0236 22.4404 73.9119 24.2853 74.0583C27.8145 74.339 30.2738 75.8789 35.4664 74.8577C46.1988 72.7471 43.0302 75.1882 49.904 75.1846C52.9874 75.183 54.6078 74.2894 57.2427 74.0453C62.8886 73.5228 64.8953 76.396 72.4451 74.5931C73.8594 74.2556 74.3892 74.1635 75.8524 74.0402C77.65 73.888 78.0597 73.8358 77.8846 71.9108C74.7252 70.7323 69.5828 73.679 63.9131 72.2621C56.9006 70.5101 55.6453 72.7842 49.904 72.7858Z" fill="#C43340"/>
<path id="Vector_4" fill-rule="evenodd" clip-rule="evenodd" d="M75.52 68.7734C75.858 63.7232 70.2083 69.4005 62.9882 67.5807C54.9369 65.5515 55.0222 67.9813 49.9035 67.9834C47.1947 67.9841 45.638 67.0709 43.2113 66.8578C40.3878 66.6101 39.004 67.027 36.5492 67.6343C29.7937 69.3063 23.8993 63.812 24.2853 68.7774C25.7659 69.5057 33.3942 70.8923 36.9373 70.0142C44.1921 68.2171 43.9835 70.3894 49.904 70.3927C55.8496 70.396 55.5277 68.244 62.8687 70.0168C66.3846 70.8658 74.08 69.491 75.52 68.7734Z" fill="#C43340"/>
<path id="Vector_5" fill-rule="evenodd" clip-rule="evenodd" d="M73.0419 62.4948C70.67 61.0759 66.1827 64.0988 61.0014 62.5737C55.0961 60.8354 53.2754 63.7407 48.562 63.1237C46.292 62.8272 45.2523 62.0252 42.5901 62.0106C39.9246 61.9957 38.8552 62.7934 36.6085 63.1036C33.6773 63.5082 32.8292 62.797 30.3898 62.2539C27.6399 61.6423 21.4441 63.6119 33.1741 65.4693C35.4241 65.8256 37.1941 65.5104 39.1857 64.9402C44.542 63.4069 46.1145 65.9408 51.1756 65.548C53.3654 65.3777 54.5826 64.4869 56.8955 64.4241C61.1007 64.3092 62.3179 66.7723 68.7698 64.9315C71.0959 64.2677 73.5594 65.0044 73.0419 62.4948Z" fill="#C43340"/>
<path id="Vector_6" fill-rule="evenodd" clip-rule="evenodd" d="M29.9448 57.7246C28.1176 59.7204 31.7847 59.6224 33.0218 59.9689C35.0542 60.5382 35.8 61.0187 38.2775 60.7673C40.1321 60.5793 41.354 59.6958 43.2518 59.624C45.4697 59.5397 46.557 60.4791 48.5729 60.7383C53.3267 61.3494 54.1395 58.4741 59.3446 60.2488C61.152 60.8649 62.8282 61.0222 64.7723 60.6015C65.2136 60.5058 69.8106 59.3176 69.8409 59.2907C71.8618 57.4938 68.5355 57.0218 66.6564 57.5103C58.6478 59.5928 61.8209 57.3506 56.5617 57.2191C53.8938 57.1522 53.2556 57.9776 51.1792 58.3116C47.0831 58.9706 45.4246 56.0011 40.308 57.7468C34.1564 59.8458 31.8986 55.5908 29.9448 57.7246Z" fill="#C43340"/>
<path id="Vector_7" fill-rule="evenodd" clip-rule="evenodd" d="M62.9856 39.2551H67.9458V34.9772H64.53V32.927H81.6409V34.9772H78.2252V39.2551H83.1853V41.3055H62.9856V39.2551ZM76.175 34.9772H69.9959V39.2551H76.175V34.9772Z" fill="#C43340"/>
<path id="Vector_8" d="M85.6298 22.8271H39.5005V24.8773H85.6298V22.8271Z" fill="#C43340"/>
<path id="Vector_9" d="M55.3168 52.4033L53.3539 52.4143L53.3854 45.1133L53.3854 45.1123L53.387 39.954V39.9539C53.387 39.5657 53.6928 39.2274 54.3216 38.978C54.9371 38.7338 55.7765 38.6153 56.6324 38.6253C57.4877 38.6353 58.332 38.7733 58.9553 39.0212C59.6018 39.2782 59.9039 39.6053 59.9097 39.9365C59.9097 39.9365 59.9097 39.9365 59.9097 39.9365L59.979 43.9191C59.4562 44.5474 58.4231 44.5005 57.9988 43.8313L57.9983 41.0013L57.9983 40.7539L57.7509 40.7513L55.6542 40.7298L55.4035 40.7273L55.4016 40.978L55.3168 52.4033Z" fill="#373435" stroke="#FADC5A" stroke-width="0.5"/>
<path id="Vector_10" d="M44.3321 52.4033L42.3693 52.4143L42.4008 45.1133L42.4008 45.1123L42.4024 39.954V39.9539C42.4024 39.5657 42.7082 39.2274 43.337 38.978C43.9525 38.7338 44.7919 38.6153 45.6478 38.6253C46.503 38.6353 47.3474 38.7733 47.9707 39.0212C48.6171 39.2782 48.9193 39.6053 48.9251 39.9365C48.9251 39.9365 48.9251 39.9365 48.9251 39.9365L48.9944 43.919C48.4713 44.5474 47.4385 44.5005 47.0142 43.8313L47.0137 41.0013L47.0137 40.7539L46.7663 40.7513L44.6696 40.7298L44.4189 40.7273L44.417 40.978L44.3321 52.4033Z" fill="#373435" stroke="#FADC5A" stroke-width="0.5"/>
<path id="Vector_11" d="M54.9999 47.5429H43.3333V49.2096H54.9999V47.5429Z" fill="#373435"/>
<path id="Vector_12" fill-rule="evenodd" clip-rule="evenodd" d="M32.327 52.4431C30.6864 54.439 33.9791 54.3412 35.0898 54.6877C36.9148 55.2568 37.5845 55.7372 39.809 55.4859C41.4744 55.2979 42.5716 54.4144 44.2757 54.3426C46.2673 54.2583 47.2436 55.1979 49.0538 55.4568C53.3221 56.0682 54.052 53.1929 58.7256 54.9676C60.3487 55.5837 61.8537 55.741 63.5993 55.3201C63.9957 55.2244 68.1235 54.0364 68.1506 54.0095C69.9653 52.2126 66.9785 51.7406 65.2912 52.2291C58.1001 54.3116 60.9492 52.0692 56.2269 51.9379C53.8314 51.8708 53.2583 52.6961 51.3938 53.0304C47.7161 53.6894 46.2267 50.7199 41.6322 52.4656C36.1089 54.5644 34.0811 50.3096 32.327 52.4431Z" fill="#C43340"/>
<path id="Vector_13" fill-rule="evenodd" clip-rule="evenodd" d="M87.1872 70.001L71.3852 46.0219L61.3621 46.0118V43.6956H73.0111L88.6265 69.4971L87.1872 70.001Z" fill="#C43340"/>
<path id="Vector_14" fill-rule="evenodd" clip-rule="evenodd" d="M13.0291 70.001L28.8312 46.0219L38.8543 46.0118V43.6956H27.2052L11.5898 69.4971L13.0291 70.001Z" fill="#C43340"/>
</g>
</g>
</g>
</svg>
