<svg width="70" height="70" viewBox="0 0 70 70" fill="none" xmlns="http://www.w3.org/2000/svg">
<path d="M60.7599 37.6001L60.7598 37.6001C59.2512 36.5583 57.2871 36.5352 55.842 37.4752L55.8324 37.4815L55.8223 37.487L47.3115 42.1389L46.8965 42.3657L46.8682 41.8936C46.7295 39.5856 44.8266 37.7484 42.488 37.7484H32.8605H32.7897L32.7264 37.7168L29.7754 36.2419L29.7753 36.2419C27.7241 35.2159 26.1517 34.5184 24.4947 34.1876C22.844 33.8581 21.0891 33.889 18.6765 34.3558C18.6765 34.3558 18.6765 34.3558 18.6764 34.3558L17.4078 34.6016L17.0508 34.6708V34.3071V33.3754C17.0508 32.8104 16.5932 32.3538 16.0292 32.3538H8.32058C7.75657 32.3538 7.29902 32.8104 7.29902 33.3754V56.1999C7.29902 56.7649 7.75657 57.2215 8.32058 57.2215H16.0292C16.5932 57.2215 17.0508 56.7649 17.0508 56.1999V55.1784V54.9794L17.2341 54.902L17.9477 54.6007L17.9479 54.6006C19.8464 53.8005 22.0278 53.7895 23.9346 54.5716L60.7599 37.6001ZM60.7599 37.6001C61.9449 38.4183 62.6515 39.7126 62.6974 41.1543L62.6974 41.1549M60.7599 37.6001L62.6974 41.1549M62.6974 41.1549C62.7456 42.5937 62.1284 43.9288 61.0007 44.8252L44.636 56.2721C44.6353 56.2726 44.6345 56.2731 44.6337 56.2737M62.6974 41.1549L44.6337 56.2737M44.6337 56.2737C42.2376 57.8833 39.4752 58.7109 36.6798 58.7122L44.6337 56.2737ZM32.5839 58.1092L23.9349 54.5718L36.6797 58.7122C35.3103 58.7122 33.9314 58.5117 32.5839 58.1092ZM9.34213 54.8771V55.177L9.64205 55.1771L14.7076 55.1784L15.0076 55.1785V54.8784V34.6969V34.3969H14.7076H9.64213H9.34213V34.6969V54.8771ZM59.7754 43.1919L59.7832 43.1865L60.3568 41.2294L60.6566 41.2196C60.6566 41.2194 60.6566 41.2192 60.6566 41.2191C60.6309 40.436 60.2449 39.7271 59.5984 39.2818C58.7806 38.7161 57.7131 38.7012 56.8772 39.2347L45.155 45.6471L45.136 45.6575L45.1187 45.6705C44.3784 46.227 43.4746 46.5658 42.4867 46.5658H34.4741C33.9101 46.5658 33.4526 46.1092 33.4526 45.5443C33.4526 44.9793 33.9101 44.5227 34.4741 44.5227H42.4867C43.7916 44.5227 44.8523 43.462 44.8523 42.1571C44.8523 40.8521 43.7901 39.7915 42.4867 39.7915H32.5473C32.3891 39.7915 32.2327 39.7548 32.0904 39.6843C32.0903 39.6842 32.0901 39.6841 32.09 39.684L28.8609 38.0695C26.9722 37.1252 25.5726 36.4884 24.1169 36.196C22.653 35.9019 21.1541 35.9596 19.0638 36.3609L19.0633 36.3609L17.2938 36.7032L17.0508 36.7502V36.9978V52.3251V52.7609L17.4578 52.6054C19.781 51.7177 22.4059 51.7348 24.7102 52.6806L24.7104 52.6807L33.2529 56.1802L33.2665 56.1857L33.2805 56.1899C36.6721 57.2074 40.4349 56.6354 43.4774 54.5895L43.4775 54.5895L43.482 54.5864L59.7754 43.1919Z" fill="#C43340" stroke="#FADC5A" stroke-width="0.6"/>
<path d="M26.2685 20.4716C26.2685 18.0828 28.2117 16.1396 30.6005 16.1396C32.9894 16.1396 34.9326 18.0828 34.9326 20.4716C34.9326 22.8605 32.9894 24.8037 30.6005 24.8037C28.2117 24.8037 26.2685 22.8605 26.2685 20.4716ZM28.3116 20.4716C28.3116 21.7342 29.338 22.7606 30.6005 22.7606C31.8617 22.7606 32.8895 21.7343 32.8895 20.4716C32.8895 19.2091 31.8631 18.1827 30.6005 18.1827C29.338 18.1827 28.3116 19.2091 28.3116 20.4716Z" fill="#C43340" stroke="#FADC5A" stroke-width="0.6"/>
<path d="M59.6366 23.9558L59.4342 24.0254V24.2394V27.9213C59.4342 28.4862 58.9767 28.9428 58.4127 28.9428H53.8613C53.2974 28.9428 52.8397 28.4851 52.8397 27.9213V24.4549V24.1549H52.5397H51.2221H50.9221V24.4549V27.9213C50.9221 28.4862 50.4646 28.9428 49.9006 28.9428H45.3491C44.7851 28.9428 44.3276 28.4862 44.3276 27.9213V24.4549V24.1549H44.0276H39.196H39.0042L38.9237 24.3289C37.4354 27.5462 34.1975 29.6512 30.6006 29.6512C25.5395 29.6512 21.4211 25.5327 21.4211 20.4717C21.4211 15.4106 25.5395 11.2922 30.6006 11.2922C34.1961 11.2922 37.434 13.3959 38.9237 16.6158L39.0042 16.7898H39.196H58.4418C60.4712 16.7898 62.1236 18.4423 62.1236 20.4717C62.1236 22.084 61.0829 23.4582 59.6366 23.9558ZM48.579 26.8997H48.879V26.5997V23.1333C48.879 22.5684 49.3366 22.1117 49.9006 22.1117H53.8613C54.4253 22.1117 54.8828 22.5684 54.8828 23.1333V26.5997V26.8997H55.1828H57.0911H57.3911V26.5997V23.1333C57.3911 22.5684 57.8487 22.1117 58.4127 22.1117C59.3408 22.1117 60.0805 21.3801 60.0805 20.4717C60.0805 19.5673 59.3462 18.833 58.4418 18.833H38.3053C37.8704 18.833 37.482 18.5561 37.34 18.1444L37.34 18.1443C36.3468 15.2682 33.6389 13.3353 30.6006 13.3353C26.6645 13.3353 23.4642 16.5356 23.4642 20.4717C23.4642 24.4078 26.6645 27.6081 30.6006 27.6081C33.6388 27.6081 36.3468 25.6765 37.34 22.8004L37.34 22.8003C37.482 22.3886 37.8704 22.1117 38.3053 22.1117H45.3491C45.9131 22.1117 46.3707 22.5684 46.3707 23.1333V26.5997V26.8997H46.6707H48.579Z" fill="#373435" stroke="#FADC5A" stroke-width="0.6"/>
</svg>
