<svg width="100" height="100" viewBox="0 0 100 100" fill="none" xmlns="http://www.w3.org/2000/svg">
<g id="Large balconies">
<g id="Group">
<g id="Group_2">
<path id="Vector" d="M21.3 46.3984C20.5313 46.3984 20.0188 45.8859 20.0188 45.1172V15.6484C20.0188 12.0609 22.8376 9.24216 26.4251 9.24216H73.7032C77.2907 9.24216 80.1095 12.0609 80.1095 15.6484V44.989C80.1095 45.7578 79.597 46.2703 78.8282 46.2703C78.0595 46.2703 77.547 45.7578 77.547 44.989V15.6484C77.547 13.4703 75.8813 11.8047 73.7032 11.8047H26.4251C24.2469 11.8047 22.5813 13.4703 22.5813 15.6484V45.1172C22.5813 45.8859 22.0688 46.3984 21.3 46.3984Z" fill="#C43340"/>
</g>
<g id="Group_3">
<g id="Vector_2">
<path d="M43.7671 82H37.2329C36.4932 82 36 81.4906 36 81.7264V58.2736C36 57.5094 36.4932 57 37.2329 57H43.7671C44.5068 57 45 57.5094 45 58.2736V81.7264C45 81.4906 44.5068 82 43.7671 82ZM38.4658 80.4528H42.5342V58.5472H38.4658V80.4528Z" fill="#373435"/>
<path d="M62.7671 82H56.2329C55.4931 82 55 81.4906 55 81.7264V58.2736C55 57.5094 55.4931 57 56.2329 57H62.7671C63.5068 57 64 57.5094 64 58.2736V81.7264C64 81.4906 63.5068 82 62.7671 82ZM57.4657 80.4528H61.5342V58.5472H57.4657V80.4528Z" fill="#373435"/>
<path d="M24.7671 82H18.2329C17.4932 82 17 81.4906 17 81.7264V58.2736C17 57.5094 17.4932 57 18.2329 57H24.7671C25.5068 57 26 57.5094 26 58.2736V81.7264C26 81.4906 25.5068 82 24.7671 82ZM19.4658 80.4528H23.5342V58.5472H19.4658V80.4528Z" fill="#373435"/>
<path d="M81.7671 82H75.2329C74.4932 82 74 81.4906 74 81.7264V58.2736C74 57.5094 74.4932 57 75.2329 57H81.7671C82.5069 57 83 57.5094 83 58.2736V81.7264C83 81.4906 82.5069 82 81.7671 82ZM76.4658 80.4528H80.5342V58.5472H76.4658V80.4528Z" fill="#373435"/>
</g>
</g>
<g id="Group_4">
<path id="Vector_3" d="M86.1313 58.8265H13.9969C11.1781 58.8265 9 56.6484 9 53.8297C9 52.5484 9.5125 51.2672 10.4094 50.3703C11.3063 49.4734 12.5875 48.9609 13.8688 48.9609H86.0032C88.8219 48.9609 91 51.139 91 53.9578C91 55.239 90.4875 56.5203 89.5907 57.4172C88.6938 58.314 87.4125 58.8265 86.1313 58.8265ZM13.8688 51.5234C13.2281 51.5234 12.5875 51.7797 12.2031 52.164C11.8188 52.5484 11.5625 53.189 11.5625 53.8297C11.5625 55.1109 12.7156 56.264 13.9969 56.264H86.1313C86.7719 56.264 87.4125 56.0078 87.7969 55.6234C88.1813 55.239 88.4375 54.5984 88.4375 53.9578C88.4375 52.6765 87.2844 51.5234 86.0032 51.5234H13.8688Z" fill="#C43340"/>
</g>
<g id="Group_5">
<path id="Vector_4" d="M86.1313 90.6016H13.9969C11.1781 90.6016 9 88.4235 9 85.6047C9 84.3235 9.5125 83.0422 10.4094 82.1453C11.3063 81.2485 12.5875 80.736 13.8688 80.736H86.0032C88.95 80.8641 91 83.0422 91 85.7328C91 87.0141 90.4875 88.2953 89.5907 89.1922C88.6938 90.0891 87.4125 90.6016 86.1313 90.6016ZM85.875 83.2985H13.8688C13.2281 83.2985 12.5875 83.5547 12.2031 83.9391C11.8188 84.3235 11.5625 84.9641 11.5625 85.6047C11.5625 86.886 12.7156 88.0391 13.9969 88.0391H86.1313C86.7719 88.0391 87.4125 87.7828 87.7969 87.3985C88.1813 87.0141 88.4375 86.3735 88.4375 85.7328C88.4375 84.4516 87.4125 83.4266 85.875 83.2985Z" fill="#C43340"/>
</g>
</g>
</g>
</svg>
