<svg width="100" height="100" viewBox="0 0 100 100" fill="none" xmlns="http://www.w3.org/2000/svg">
<g id="massage_6244463 1" clip-path="url(#clip0_180_3060)">
<g id="Vector">
<mask id="path-1-inside-1_180_3060" fill="white">
<path d="M73.7402 82.3945L59.6875 77.6602C58.7383 76.3555 58.2148 74.2891 58.1543 71.6289C59.8932 70.5598 61.5079 69.3008 62.9688 67.875C66.7773 64.1211 68.9121 59.5879 69.3184 54.3984C69.3184 54.3613 69.3184 54.3223 69.3184 54.2852V52.2734C73.0506 50.603 75.9868 47.5463 77.5059 43.75C79.6328 38.5273 79.2109 32.2715 76.3164 26.1348C74.1328 21.5 70.3203 18.1406 65.0996 16.1738C65.1231 15.8301 65.1367 15.4844 65.1367 15.1426C65.1367 11.1281 63.542 7.27799 60.7033 4.4393C57.8646 1.60062 54.0145 0.00585938 50 0.00585938C45.9855 0.00585938 42.1354 1.60062 39.2967 4.4393C36.458 7.27799 34.8633 11.1281 34.8633 15.1426C34.8633 15.4844 34.877 15.8301 34.9004 16.1738C29.6797 18.127 25.8672 21.4961 23.6836 26.1348C20.7891 32.2715 20.3633 38.5273 22.4941 43.75C24.0094 47.5508 26.9444 50.6126 30.6777 52.2871V54.2969V54.4102C31.084 59.5957 33.2168 64.1289 37.0273 67.8867C38.4882 69.3125 40.1029 70.5715 41.8418 71.6406C41.7813 74.3008 41.2559 76.3672 40.3086 77.6719L26.2461 82.4062C23.6291 83.2867 21.3547 84.967 19.7444 87.21C18.134 89.4529 17.269 92.1451 17.2715 94.9062V98.5352C17.2715 98.7287 17.3098 98.9203 17.3843 99.0989C17.4588 99.2775 17.5679 99.4396 17.7054 99.5758C17.8428 99.712 18.0059 99.8196 18.1852 99.8924C18.3645 99.9652 18.5565 100.002 18.75 100H81.25C81.6385 100 82.0111 99.8457 82.2858 99.571C82.5605 99.2962 82.7149 98.9237 82.7149 98.5352V94.8887C82.7161 92.1285 81.8505 89.4376 80.2403 87.1959C78.63 84.9541 76.3563 83.2746 73.7402 82.3945ZM73.668 27.375C76.207 32.7617 76.6074 38.1816 74.793 42.6348C73.727 45.3071 71.7988 47.5468 69.3145 48.998C69.3145 44.2812 67.0859 39.8477 63.3731 37.1348C61.3672 35.6699 59.2715 34.9277 57.1348 34.9277H54.9863C54.3291 34.9264 53.6741 34.8524 53.0332 34.707C54.2266 33.6045 55.1794 32.2675 55.832 30.7796C56.4847 29.2918 56.8231 27.6852 56.826 26.0605C56.8289 24.4358 56.4964 22.8281 55.8491 21.3379C55.2018 19.8477 54.2538 18.5072 53.0645 17.4004L53.0352 17.373C53.8818 17.1827 54.7516 17.1169 55.6172 17.1777C61.8691 17.625 70.0742 19.7539 73.668 27.375ZM37.793 15.1367C37.793 11.8992 39.0791 8.79431 41.3683 6.50504C43.6576 4.21578 46.7625 2.92969 50 2.92969C53.2375 2.92969 56.3424 4.21578 58.6317 6.50504C60.9209 8.79431 62.207 11.8992 62.207 15.1367V15.2617C60.1152 14.7364 57.9802 14.4004 55.8281 14.2578C53.8253 14.1154 51.8193 14.4865 50 15.3359C48.1794 14.4905 46.1744 14.1197 44.1719 14.2578C42.0204 14.4005 39.8862 14.7365 37.7949 15.2617C37.7949 15.2207 37.793 15.1777 37.793 15.1367ZM25.207 42.6348C23.3926 38.1816 23.793 32.7617 26.332 27.375C29.9258 19.7578 38.1309 17.625 44.3789 17.1816C44.5977 17.166 44.8145 17.1582 45.0313 17.1582C47.3856 17.1618 49.6424 18.0994 51.3063 19.7651C52.9702 21.4308 53.9052 23.6886 53.9063 26.043C53.9032 28.3984 52.9661 30.6565 51.3005 32.322C49.635 33.9876 47.3769 34.9246 45.0215 34.9277H42.8731C40.7402 34.9277 38.6406 35.6699 36.6348 37.1348C32.9238 39.8496 30.7012 44.2812 30.6934 48.998C28.2061 47.5481 26.275 45.3083 25.207 42.6348ZM33.6055 54.2305V51.4297C33.6055 51.3867 33.6055 51.3457 33.6055 51.3027V49.0234C33.6055 45.2285 35.377 41.6699 38.3457 39.502C39.8398 38.4102 41.3555 37.8574 42.8555 37.8574H45.0039C46.725 37.8583 48.4253 37.4809 49.9844 36.752C51.5468 37.4793 53.2492 37.8566 54.9727 37.8574H57.1211C58.6211 37.8574 60.1367 38.4102 61.6309 39.502C64.5996 41.6699 66.3711 45.2285 66.3711 49.0234V51.3027V51.4297V54.2305C65.5527 64.3164 57.293 69.2402 52.4356 71.2793C51.657 71.6038 50.822 71.7708 49.9785 71.7708C49.1351 71.7708 48.3 71.6038 47.5215 71.2793C42.6856 69.2402 34.4258 64.3164 33.6074 54.2305H33.6055ZM79.7852 97.0703H20.2148V94.8887C20.2135 92.7419 20.8866 90.6489 22.1392 88.9053C23.3917 87.1618 25.1604 85.8558 27.1953 85.1719L41.6484 80.2988C41.8987 80.2147 42.1215 80.0641 42.293 79.8633C43.6289 78.3008 44.4277 76.0684 44.6836 73.1992C45.2949 73.498 45.8731 73.7598 46.3984 73.9805C47.5365 74.4549 48.7573 74.6992 49.9902 74.6992C51.2232 74.6992 52.444 74.4549 53.582 73.9805C54.1074 73.7598 54.6856 73.498 55.2969 73.1992C55.5527 76.0684 56.3516 78.3047 57.6875 79.8633C57.859 80.0641 58.0817 80.2147 58.332 80.2988L72.7949 85.1719C74.8299 85.8558 76.5985 87.1618 77.8511 88.9053C79.1036 90.6489 79.7768 92.7419 79.7754 94.8887L79.7852 97.0703Z"/>
</mask>
<path d="M73.7402 82.3945L59.6875 77.6602C58.7383 76.3555 58.2148 74.2891 58.1543 71.6289C59.8932 70.5598 61.5079 69.3008 62.9688 67.875C66.7773 64.1211 68.9121 59.5879 69.3184 54.3984C69.3184 54.3613 69.3184 54.3223 69.3184 54.2852V52.2734C73.0506 50.603 75.9868 47.5463 77.5059 43.75C79.6328 38.5273 79.2109 32.2715 76.3164 26.1348C74.1328 21.5 70.3203 18.1406 65.0996 16.1738C65.1231 15.8301 65.1367 15.4844 65.1367 15.1426C65.1367 11.1281 63.542 7.27799 60.7033 4.4393C57.8646 1.60062 54.0145 0.00585938 50 0.00585938C45.9855 0.00585938 42.1354 1.60062 39.2967 4.4393C36.458 7.27799 34.8633 11.1281 34.8633 15.1426C34.8633 15.4844 34.877 15.8301 34.9004 16.1738C29.6797 18.127 25.8672 21.4961 23.6836 26.1348C20.7891 32.2715 20.3633 38.5273 22.4941 43.75C24.0094 47.5508 26.9444 50.6126 30.6777 52.2871V54.2969V54.4102C31.084 59.5957 33.2168 64.1289 37.0273 67.8867C38.4882 69.3125 40.1029 70.5715 41.8418 71.6406C41.7813 74.3008 41.2559 76.3672 40.3086 77.6719L26.2461 82.4062C23.6291 83.2867 21.3547 84.967 19.7444 87.21C18.134 89.4529 17.269 92.1451 17.2715 94.9062V98.5352C17.2715 98.7287 17.3098 98.9203 17.3843 99.0989C17.4588 99.2775 17.5679 99.4396 17.7054 99.5758C17.8428 99.712 18.0059 99.8196 18.1852 99.8924C18.3645 99.9652 18.5565 100.002 18.75 100H81.25C81.6385 100 82.0111 99.8457 82.2858 99.571C82.5605 99.2962 82.7149 98.9237 82.7149 98.5352V94.8887C82.7161 92.1285 81.8505 89.4376 80.2403 87.1959C78.63 84.9541 76.3563 83.2746 73.7402 82.3945ZM73.668 27.375C76.207 32.7617 76.6074 38.1816 74.793 42.6348C73.727 45.3071 71.7988 47.5468 69.3145 48.998C69.3145 44.2812 67.0859 39.8477 63.3731 37.1348C61.3672 35.6699 59.2715 34.9277 57.1348 34.9277H54.9863C54.3291 34.9264 53.6741 34.8524 53.0332 34.707C54.2266 33.6045 55.1794 32.2675 55.832 30.7796C56.4847 29.2918 56.8231 27.6852 56.826 26.0605C56.8289 24.4358 56.4964 22.8281 55.8491 21.3379C55.2018 19.8477 54.2538 18.5072 53.0645 17.4004L53.0352 17.373C53.8818 17.1827 54.7516 17.1169 55.6172 17.1777C61.8691 17.625 70.0742 19.7539 73.668 27.375ZM37.793 15.1367C37.793 11.8992 39.0791 8.79431 41.3683 6.50504C43.6576 4.21578 46.7625 2.92969 50 2.92969C53.2375 2.92969 56.3424 4.21578 58.6317 6.50504C60.9209 8.79431 62.207 11.8992 62.207 15.1367V15.2617C60.1152 14.7364 57.9802 14.4004 55.8281 14.2578C53.8253 14.1154 51.8193 14.4865 50 15.3359C48.1794 14.4905 46.1744 14.1197 44.1719 14.2578C42.0204 14.4005 39.8862 14.7365 37.7949 15.2617C37.7949 15.2207 37.793 15.1777 37.793 15.1367ZM25.207 42.6348C23.3926 38.1816 23.793 32.7617 26.332 27.375C29.9258 19.7578 38.1309 17.625 44.3789 17.1816C44.5977 17.166 44.8145 17.1582 45.0313 17.1582C47.3856 17.1618 49.6424 18.0994 51.3063 19.7651C52.9702 21.4308 53.9052 23.6886 53.9063 26.043C53.9032 28.3984 52.9661 30.6565 51.3005 32.322C49.635 33.9876 47.3769 34.9246 45.0215 34.9277H42.8731C40.7402 34.9277 38.6406 35.6699 36.6348 37.1348C32.9238 39.8496 30.7012 44.2812 30.6934 48.998C28.2061 47.5481 26.275 45.3083 25.207 42.6348ZM33.6055 54.2305V51.4297C33.6055 51.3867 33.6055 51.3457 33.6055 51.3027V49.0234C33.6055 45.2285 35.377 41.6699 38.3457 39.502C39.8398 38.4102 41.3555 37.8574 42.8555 37.8574H45.0039C46.725 37.8583 48.4253 37.4809 49.9844 36.752C51.5468 37.4793 53.2492 37.8566 54.9727 37.8574H57.1211C58.6211 37.8574 60.1367 38.4102 61.6309 39.502C64.5996 41.6699 66.3711 45.2285 66.3711 49.0234V51.3027V51.4297V54.2305C65.5527 64.3164 57.293 69.2402 52.4356 71.2793C51.657 71.6038 50.822 71.7708 49.9785 71.7708C49.1351 71.7708 48.3 71.6038 47.5215 71.2793C42.6856 69.2402 34.4258 64.3164 33.6074 54.2305H33.6055ZM79.7852 97.0703H20.2148V94.8887C20.2135 92.7419 20.8866 90.6489 22.1392 88.9053C23.3917 87.1618 25.1604 85.8558 27.1953 85.1719L41.6484 80.2988C41.8987 80.2147 42.1215 80.0641 42.293 79.8633C43.6289 78.3008 44.4277 76.0684 44.6836 73.1992C45.2949 73.498 45.8731 73.7598 46.3984 73.9805C47.5365 74.4549 48.7573 74.6992 49.9902 74.6992C51.2232 74.6992 52.444 74.4549 53.582 73.9805C54.1074 73.7598 54.6856 73.498 55.2969 73.1992C55.5527 76.0684 56.3516 78.3047 57.6875 79.8633C57.859 80.0641 58.0817 80.2147 58.332 80.2988L72.7949 85.1719C74.8299 85.8558 76.5985 87.1618 77.8511 88.9053C79.1036 90.6489 79.7768 92.7419 79.7754 94.8887L79.7852 97.0703Z" fill="#C43340" stroke="#FADC5A" mask="url(#path-1-inside-1_180_3060)"/>
</g>
<path id="Vector_2" d="M79.3163 80.7402L88.9882 73.2109C91.3837 71.3489 93.001 68.6623 93.5253 65.6738L99.9706 29.0918C100.039 28.7098 99.9528 28.3164 99.7312 27.9978C99.5097 27.6792 99.1708 27.4616 98.7889 27.3926M79.3163 80.7402L79.1945 80.5816L88.8653 73.0531L88.8654 73.053C91.2218 71.2215 92.8126 68.5789 93.3283 65.6393L93.3283 65.6391L99.7736 29.0571L99.7737 29.0566C99.8327 28.7268 99.7583 28.387 99.567 28.112C99.3758 27.837 99.0833 27.6491 98.7538 27.5895L98.7542 27.5895L98.7889 27.3926M79.3163 80.7402C78.6448 81.2556 77.8098 81.5114 76.9649 81.4607C76.1199 81.4099 75.3216 81.0559 74.7166 80.4638C74.1117 79.8716 73.7407 79.0811 73.6718 78.2374C73.6029 77.3937 73.8408 76.5535 74.3417 75.8711M79.3163 80.7402L79.1934 80.5824L79.194 80.582C78.5608 81.0678 77.7735 81.3089 76.9769 81.261C76.1799 81.2131 75.4271 80.8793 74.8565 80.3208C74.286 79.7624 73.9361 79.0169 73.8712 78.2212C73.8062 77.4257 74.0304 76.6336 74.5024 75.9901L74.5021 75.9905L74.3417 75.8711M98.7889 27.3926L98.7534 27.5894L91.5181 26.3142M98.7889 27.3926L91.5526 26.1172M91.5526 26.1172C90.1507 25.8712 88.7083 26.1911 87.5419 27.0068C86.3754 27.8225 85.58 29.0675 85.33 30.4688M91.5526 26.1172L91.5181 26.3142M91.5526 26.1172L91.5179 26.3142L91.5181 26.3142M85.33 30.4688L83.5722 40.4297L81.537 41.8555C80.3197 42.7029 79.2824 43.7833 78.4852 45.0341C77.688 46.2849 77.1467 47.6813 76.8925 49.1426L74.6347 61.9512M85.33 30.4688L85.5269 30.5039M85.33 30.4688L85.5269 30.5035L85.5269 30.5039M74.6347 61.9512C74.4891 62.7806 74.6588 63.6345 75.1106 64.3452C75.5624 65.0559 76.2635 65.572 77.0763 65.7922C77.8891 66.0124 78.7549 65.9208 79.5036 65.5353C80.2523 65.1499 80.8299 64.4985 81.1229 63.709M74.6347 61.9512L74.8316 61.9858M74.6347 61.9512L74.8316 61.9859L74.8316 61.9858M81.1229 63.709L83.2793 57.8641C83.2527 57.8046 83.2252 57.7454 83.1968 57.6866L83.3768 57.5996L83.5645 57.6688L83.4949 57.8575C83.9505 58.9107 84.1334 60.0635 84.0243 61.2088C83.9062 62.4485 83.4505 63.632 82.7069 64.6309M81.1229 63.709L80.9354 63.6394L83.1892 57.5304L83.3522 57.0887L83.5569 57.5126C84.1145 58.6668 84.3449 59.9518 84.2234 61.2278C84.1018 62.5038 83.6328 63.7221 82.8674 64.7503L82.7069 64.6309M81.1229 63.709L80.9353 63.6398C80.6596 64.3823 80.1163 64.995 79.4121 65.3575C78.7077 65.7201 77.8932 65.8063 77.1286 65.5992C76.3639 65.392 75.7044 64.9065 75.2794 64.2379C74.8544 63.5693 74.6947 62.766 74.8316 61.9858M82.7069 64.6309L74.3417 75.8711M82.7069 64.6309L82.8673 64.7503L74.5029 75.9894L74.3417 75.8711M74.8316 61.9858L77.0894 49.1773L77.0895 49.1769C77.3392 47.7416 77.8709 46.3701 78.6539 45.1416C79.4369 43.9131 80.4557 42.852 81.6513 42.0196L81.6518 42.0193L83.6869 40.5935L83.7547 40.546L83.7691 40.4644L85.5269 30.5039M85.5269 30.5039C85.7676 29.1547 86.5334 27.9561 87.6565 27.1707C88.7796 26.3854 90.1682 26.0773 91.5181 26.3142M77.6334 78.5909L77.6333 78.5908C77.4831 78.6975 77.3002 78.748 77.1165 78.7336C76.9328 78.7192 76.7601 78.6406 76.6284 78.5118C76.4967 78.3829 76.4145 78.2119 76.3961 78.0285C76.3777 77.8452 76.4243 77.6613 76.5277 77.5088L76.5327 77.5016L76.5328 77.5017L84.898 66.2615C86.181 64.5374 86.8445 62.4307 86.7809 60.2826C86.7174 58.1345 85.9306 56.0708 84.548 54.4256L83.931 53.6914C83.9309 53.6913 83.9309 53.6913 83.9308 53.6913C83.812 53.5503 83.6638 53.437 83.4966 53.3592C83.3295 53.2815 83.1474 53.2411 82.9631 53.241C82.8899 53.2413 82.8168 53.2476 82.7447 53.2596C82.5268 53.2982 82.3228 53.393 82.1529 53.5345C81.9827 53.6763 81.8526 53.86 81.7753 54.0676C81.7753 54.0677 81.7753 54.0677 81.7752 54.0678L78.5646 62.7643C78.5317 62.8538 78.4793 62.9348 78.4113 63.0015C78.3433 63.0682 78.2613 63.119 78.1713 63.1502C78.0813 63.1814 77.9854 63.1922 77.8907 63.1818C77.7962 63.1715 77.7052 63.1404 77.6242 63.0907C77.5134 63.0234 77.4254 62.9242 77.3718 62.806C77.3182 62.6877 77.3017 62.556 77.3244 62.4281L77.3244 62.4281L77.6334 78.5909ZM77.6334 78.5909L77.6403 78.5856L87.3121 71.0563C87.3121 71.0563 87.3122 71.0563 87.3122 71.0563C89.1737 69.6088 90.4308 67.5212 90.8394 65.1988C90.8394 65.1988 90.8394 65.1987 90.8394 65.1987L97.0347 30.0484L97.0695 29.8514L96.8725 29.8167L91.0795 28.7952L91.0794 28.7952C90.3896 28.6742 89.68 28.8318 89.1063 29.2336C88.5327 29.6353 88.1419 30.2482 88.0198 30.9378L88.0197 30.9379L86.6096 38.9301L86.5477 39.2807L86.8793 39.1511L89.7035 38.0476C90.0167 37.9253 90.3657 37.9323 90.6737 38.0672C90.9817 38.2022 91.2235 38.4539 91.3458 38.7671L91.5321 38.6943L91.3458 38.7671C91.4682 39.0803 91.4611 39.4293 91.3262 39.7373C91.1913 40.0453 90.9395 40.2871 90.6263 40.4094L90.6263 40.4094L85.5345 42.3997L85.5122 42.4084L85.4925 42.4222L83.1045 44.0956L77.6334 78.5909ZM79.5841 49.6222L77.3245 62.4279L79.5841 49.6222ZM80.7898 46.5057C80.1855 47.4543 79.7757 48.5135 79.5841 49.6218L83.1039 44.096L83.104 44.0959C82.1806 44.738 81.394 45.5571 80.7898 46.5057Z" fill="#373435" stroke="#FADC5A" stroke-width="0.4"/>
<path id="Vector_3" d="M1.21887 27.3867C0.836339 27.4543 0.496336 27.6711 0.273642 27.9894C0.0509476 28.3077 -0.0361994 28.7014 0.0313683 29.084L6.47668 65.666C7.00096 68.6545 8.61821 71.3411 11.0138 73.2031L20.6857 80.7324C21.3004 81.2131 22.0576 81.4756 22.838 81.4785M1.21887 27.3867L1.25363 27.5837C0.92335 27.6421 0.629792 27.8293 0.437515 28.1041C0.245226 28.3789 0.169977 28.7189 0.22832 29.0492L0.228335 29.0493L6.67365 65.6313L6.67367 65.6315C7.18937 68.571 8.78016 71.2137 11.1365 73.0452L11.1366 73.0453L20.8085 80.5746L20.8089 80.5749C21.3884 81.028 22.1021 81.2755 22.8378 81.2785M1.21887 27.3867L8.44543 26.1113M1.21887 27.3867L8.44543 26.1113M22.8378 81.2785C22.8377 81.2785 22.8377 81.2785 22.8377 81.2785L22.838 81.4785M22.8378 81.2785C22.8381 81.2785 22.8384 81.2785 22.8388 81.2785L22.838 81.4785M22.8378 81.2785C23.4515 81.2775 24.0528 81.1062 24.5749 80.7836C25.097 80.461 25.5194 79.9999 25.7949 79.4515C26.0704 78.9031 26.1884 78.2889 26.1355 77.6775C26.0827 77.0662 25.8613 76.4815 25.4959 75.9885M22.838 81.4785C23.4888 81.4774 24.1264 81.2958 24.68 80.9537C25.2337 80.6117 25.6815 80.1227 25.9736 79.5412C26.2658 78.9598 26.3908 78.3086 26.3348 77.6603C26.2788 77.0119 26.0439 76.3919 25.6564 75.8691L25.4959 75.9885M25.4959 75.9885C25.4959 75.9884 25.4958 75.9883 25.4957 75.9883M25.4959 75.9885L25.4957 75.9883M25.4957 75.9883L17.1307 64.7483C17.1307 64.7483 17.1307 64.7483 17.1307 64.7483C16.3653 63.7201 15.8963 62.5019 15.7747 61.2258C15.6531 59.9498 15.8836 58.6649 16.4411 57.5107L16.6459 57.0867L16.8088 57.5284L19.0626 63.6374C19.0626 63.6375 19.0627 63.6375 19.0627 63.6376C19.3383 64.3802 19.8817 64.993 20.586 65.3556C21.2903 65.7182 22.1048 65.8044 22.8695 65.5972C23.6341 65.39 24.2937 64.9045 24.7187 64.2359C25.1437 63.5674 25.3034 62.7641 25.1664 61.9838L22.9086 49.1851L22.9085 49.1847C22.6589 47.7494 22.1272 46.3779 21.3442 45.1494C20.5612 43.9209 19.5424 42.8598 18.3468 42.0274L18.3459 42.0268L16.3107 40.5932L16.2433 40.5457L16.2289 40.4644L14.4712 30.5037C14.2317 29.1535 13.4665 27.9535 12.3432 27.1669C11.22 26.3804 9.83069 26.0716 8.48009 26.3083C8.48005 26.3083 8.48 26.3083 8.47996 26.3083L1.25369 27.5837L25.4957 75.9883ZM8.44543 26.1113C9.84826 25.8654 11.2913 26.1862 12.4579 27.0031C13.6246 27.82 14.4194 29.0664 14.6681 30.4687L8.44543 26.1113ZM9.12308 64.9641L2.96527 30.0582L2.93052 29.8612L3.1275 29.8265L8.92047 28.805L8.92064 28.805C9.61042 28.6839 10.32 28.8416 10.8937 29.2433C11.4673 29.645 11.8581 30.258 11.9803 30.9475L11.9803 30.9477L13.3904 38.9399L13.4523 39.2905L13.1207 39.1609L10.2965 38.0574C9.98328 37.935 9.6343 37.9421 9.32631 38.077C9.01832 38.2119 8.77655 38.4637 8.65418 38.7769C8.53181 39.0901 8.53887 39.4391 8.6738 39.747C8.80873 40.055 9.06049 40.2968 9.37368 40.4192L9.37371 40.4192L14.4655 42.4094L14.4878 42.4181L14.5075 42.4319L16.8955 44.1053C16.8956 44.1054 16.8957 44.1054 16.8958 44.1055C17.8192 44.7476 18.6059 45.5668 19.2102 46.5155C19.8145 47.4642 20.2244 48.5234 20.4159 49.6318C20.4159 49.6319 20.4159 49.6319 20.4159 49.6319L22.6755 62.4376C22.6983 62.5656 22.6818 62.6974 22.6282 62.8158C22.5745 62.9342 22.4863 63.0335 22.3751 63.1008C22.2943 63.1503 22.2035 63.1813 22.1093 63.1916C22.0146 63.202 21.9188 63.1912 21.8287 63.16C21.7387 63.1288 21.6567 63.078 21.5887 63.0113C21.5207 62.9445 21.4683 62.8635 21.4355 62.7741L18.2246 54.0613C18.148 53.8535 18.0181 53.6694 17.848 53.5275C17.6778 53.3856 17.4734 53.2909 17.2552 53.2528C17.037 53.2147 16.8126 53.2346 16.6044 53.3105C16.3964 53.3864 16.2119 53.5155 16.0695 53.685C16.0694 53.6851 16.0693 53.6852 16.0693 53.6853L15.4526 54.4249L15.452 54.4256C14.0683 56.0707 13.2808 58.1349 13.2172 60.2836C13.1537 62.4322 13.8178 64.5394 15.1019 66.2633L15.102 66.2634L23.4672 77.5056L23.4678 77.5064C23.5569 77.6274 23.6095 77.7715 23.6192 77.9214C23.629 78.0714 23.5955 78.2211 23.5228 78.3526L23.5216 78.3547C23.4662 78.4523 23.3905 78.5368 23.2996 78.6026C23.2088 78.6684 23.1049 78.714 22.9949 78.7364C22.885 78.7587 22.7715 78.7573 22.6622 78.7321C22.5529 78.7069 22.4502 78.6587 22.3611 78.5905L22.3596 78.5894L12.6879 71.0563L9.12308 64.9641ZM9.12308 64.9641H9.11928L9.16057 65.1987C9.56916 67.5211 10.8263 69.6087 12.6878 71.0562L9.12308 64.9641Z" fill="#373435" stroke="#FADC5A" stroke-width="0.4"/>
<path id="Vector_4" d="M62.5 88.0527H58.2325C58.1321 88.0527 58.0342 88.0217 57.9521 87.9641C57.87 87.9064 57.8076 87.8248 57.7735 87.7305L56.4551 84.0742C56.393 83.8894 56.2946 83.7189 56.1657 83.5726C56.0367 83.4263 55.8799 83.3072 55.7044 83.2223C55.5288 83.1374 55.3381 83.0884 55.1434 83.0782C54.9487 83.068 54.7539 83.0968 54.5704 83.1628C54.387 83.2289 54.2186 83.3309 54.075 83.4629C53.9315 83.5948 53.8158 83.7542 53.7347 83.9315C53.6535 84.1088 53.6086 84.3005 53.6025 84.4954C53.5964 84.6903 53.6293 84.8844 53.6993 85.0664L55.0176 88.7246C55.257 89.3854 55.6939 89.9565 56.269 90.3605C56.8441 90.7644 57.5297 90.9815 58.2325 90.9824H62.5C62.8885 90.9824 63.2611 90.8281 63.5358 90.5534C63.8106 90.2787 63.9649 89.9061 63.9649 89.5176C63.9649 89.1291 63.8106 88.7565 63.5358 88.4818C63.2611 88.2071 62.8885 88.0527 62.5 88.0527Z" fill="#C43340"/>
<path id="Vector_5" d="M45.4199 83.1914C45.0542 83.0602 44.6514 83.0795 44.2998 83.245C43.9483 83.4105 43.6768 83.7087 43.5449 84.0742L42.2266 87.7305C42.1924 87.8248 42.1301 87.9064 42.048 87.9641C41.9658 88.0217 41.8679 88.0527 41.7676 88.0527H37.5C37.1115 88.0527 36.7389 88.2071 36.4642 88.4818C36.1895 88.7565 36.0352 89.1291 36.0352 89.5176C36.0352 89.9061 36.1895 90.2787 36.4642 90.5534C36.7389 90.8281 37.1115 90.9824 37.5 90.9824H41.7695C42.4723 90.9815 43.1578 90.7644 43.733 90.3605C44.3081 89.9565 44.745 89.3854 44.9844 88.7246L46.3027 85.0664C46.368 84.8853 46.3969 84.6932 46.3878 84.5009C46.3787 84.3087 46.3319 84.1201 46.2499 83.946C46.1679 83.7718 46.0524 83.6156 45.91 83.4861C45.7676 83.3566 45.601 83.2565 45.4199 83.1914Z" fill="#C43340"/>
</g>
<defs>
<clipPath id="clip0_180_3060">
<rect width="100" height="100" fill="white"/>
</clipPath>
</defs>
</svg>
