<svg width="100" height="100" viewBox="0 0 100 100" fill="none" xmlns="http://www.w3.org/2000/svg">
<g id="meditation_1092298 1" clip-path="url(#clip0_180_3072)">
<path id="Vector" d="M98.334 96.666C97.9709 96.3028 97.4673 96.0938 96.9531 96.0938C96.4397 96.0938 95.9361 96.3028 95.5722 96.666C95.209 97.0291 95 97.5334 95 98.0469C95 98.5603 95.209 99.0646 95.5722 99.4278C95.9361 99.791 96.4397 100 96.9531 100C97.4673 100 97.9709 99.791 98.334 99.4278C98.6972 99.0646 98.9062 98.5603 98.9062 98.0469C98.9062 97.5334 98.6972 97.0291 98.334 96.666Z" fill="#373435"/>
<g id="Vector_2">
<mask id="path-2-inside-1_180_3072" fill="white">
<path d="M91.0156 96.0938H78.2318C78.5034 95.6673 78.743 95.2118 78.9421 94.7266C80.6587 90.5533 78.8116 85.762 74.7383 83.8196L63.0424 78.2448C61.5822 77.5482 60.64 76.0521 60.6438 74.4339L60.6682 63.7131C60.6728 61.7912 61.4594 59.9136 62.8242 58.5617L69.4435 52.0103C72.6402 48.8594 74.4736 44.4778 74.4736 39.9887C74.4736 34.7626 71.994 29.7478 67.8406 26.5739C67.8406 26.5739 59.1698 19.9593 54.4113 16.3391C53.2402 15.448 51.6937 15.3008 50.3754 15.9538C50.3128 15.9851 50.251 16.0179 50.1907 16.0522C50.1297 16.0179 50.0687 15.9851 50.0053 15.9538C48.6877 15.3008 47.1413 15.448 45.9694 16.3391C41.2117 19.9593 32.5409 26.5739 32.5394 26.5747C28.3867 29.7478 25.9071 34.7626 25.9071 39.9887C25.9071 44.4771 27.7405 48.8594 30.9334 52.0065L37.5847 58.5983C38.9503 59.9518 39.7354 61.8317 39.7369 63.755L39.7484 74.4362C39.7499 76.0529 38.8084 77.5467 37.3489 78.2417L25.5409 83.8715C21.5279 85.7849 19.709 90.5045 21.3997 94.6159C21.6148 95.1393 21.8788 95.6337 22.1855 96.0938H2.14844C1.06964 96.0938 0.195312 96.9681 0.195312 98.0469C0.195312 99.1257 1.06964 100 2.14844 100H91.0156C92.0944 100 92.9688 99.1257 92.9688 98.0469C92.9688 96.9681 92.0944 96.0938 91.0156 96.0938ZM61.3762 43.8271L59.2606 45.9122C59.3498 45.3987 59.3994 44.8708 59.3994 44.3321V43.1099C59.3994 38.0341 55.2696 33.9043 50.1938 33.9043C45.118 33.9043 40.9882 38.0341 40.9882 43.1099V44.3321C40.9882 44.8738 41.0378 45.4048 41.1285 45.9213L39.0038 43.8271C37.9829 42.8207 37.3978 41.4215 37.3978 39.9887C37.3978 38.3194 38.1897 36.7188 39.5157 35.7056L48.1194 29.1313C48.9166 28.5225 49.6117 27.8015 50.19 26.9997C50.769 27.8015 51.4641 28.5217 52.2614 29.1313L60.865 35.7056C62.191 36.718 62.9829 38.3194 62.9829 39.9879C62.9829 41.4215 62.397 42.8207 61.3762 43.8271ZM55.4932 44.3321C55.4932 47.2534 53.1158 49.6307 50.1938 49.6307C47.2717 49.6307 44.8944 47.2542 44.8944 44.3321V43.1099C44.8944 40.1878 47.2717 37.8105 50.1938 37.8105C53.1158 37.8105 55.4932 40.1878 55.4932 43.1099V44.3321ZM27.2224 87.3978L39.0297 81.768C41.8419 80.4276 43.6577 77.5482 43.6546 74.4324L43.6432 63.7505C43.6401 60.7941 42.4339 57.9048 40.3336 55.8235L33.6792 49.2287C31.2225 46.8063 29.8134 43.4387 29.8134 39.9887C29.8134 35.9718 31.7192 32.1175 34.9098 29.6799C34.9098 29.6799 43.4601 23.156 48.2407 19.519C48.2552 19.7594 48.3139 19.9875 48.4077 20.1965C48.2986 20.4399 48.2368 20.7085 48.2368 20.9923C48.2368 22.9546 47.3068 24.8367 45.7481 26.0277L37.1437 32.6019C34.8572 34.3491 33.4915 37.1101 33.4915 39.9887C33.4915 42.4606 34.5016 44.8738 36.2617 46.6087L39.1228 49.4286C42.0914 52.3552 46.022 53.9665 50.19 53.9665C54.3587 53.9665 58.2893 52.3552 61.2579 49.4286L64.119 46.6087C65.8791 44.8738 66.8892 42.4606 66.8892 39.9887C66.8892 37.1101 65.5235 34.3491 63.2362 32.6019L54.6326 26.0277C53.0739 24.836 52.1431 22.9546 52.1431 20.9923C52.1431 20.7085 52.0813 20.4399 51.973 20.1965C52.066 19.9875 52.1255 19.7594 52.14 19.519C56.916 23.1522 65.4709 29.6791 65.4694 29.6783C68.6615 32.1175 70.5673 35.9711 70.5673 39.9887C70.5673 43.4387 69.1582 46.8063 66.6985 49.231L60.0769 55.7854C57.9773 57.8629 56.7688 60.7491 56.7619 63.7032L56.7375 74.4247C56.7307 77.5444 58.5457 80.4276 61.3617 81.7703L73.0568 87.3459C75.2586 88.3957 76.2573 90.9851 75.3296 93.2411C74.382 95.546 71.8102 96.6698 69.4748 95.7993L54.4655 90.2039H59.8488C60.9276 90.2039 61.8019 89.3288 61.8019 88.2507C61.8019 87.1719 60.9276 86.2976 59.8488 86.2976H53.463C53.2051 86.2976 52.9495 86.3487 52.7115 86.4479L30.8647 95.5559C29.7592 96.0167 28.5408 96.0182 27.4345 95.5597C26.3275 95.1004 25.4677 94.2383 25.0122 93.1305C24.1096 90.937 25.0801 88.4186 27.2224 87.3978ZM48.864 92.2844L59.082 96.0938H39.7263L48.864 92.2844Z"/>
</mask>
<path d="M91.0156 96.0938H78.2318C78.5034 95.6673 78.743 95.2118 78.9421 94.7266C80.6587 90.5533 78.8116 85.762 74.7383 83.8196L63.0424 78.2448C61.5822 77.5482 60.64 76.0521 60.6438 74.4339L60.6682 63.7131C60.6728 61.7912 61.4594 59.9136 62.8242 58.5617L69.4435 52.0103C72.6402 48.8594 74.4736 44.4778 74.4736 39.9887C74.4736 34.7626 71.994 29.7478 67.8406 26.5739C67.8406 26.5739 59.1698 19.9593 54.4113 16.3391C53.2402 15.448 51.6937 15.3008 50.3754 15.9538C50.3128 15.9851 50.251 16.0179 50.1907 16.0522C50.1297 16.0179 50.0687 15.9851 50.0053 15.9538C48.6877 15.3008 47.1413 15.448 45.9694 16.3391C41.2117 19.9593 32.5409 26.5739 32.5394 26.5747C28.3867 29.7478 25.9071 34.7626 25.9071 39.9887C25.9071 44.4771 27.7405 48.8594 30.9334 52.0065L37.5847 58.5983C38.9503 59.9518 39.7354 61.8317 39.7369 63.755L39.7484 74.4362C39.7499 76.0529 38.8084 77.5467 37.3489 78.2417L25.5409 83.8715C21.5279 85.7849 19.709 90.5045 21.3997 94.6159C21.6148 95.1393 21.8788 95.6337 22.1855 96.0938H2.14844C1.06964 96.0938 0.195312 96.9681 0.195312 98.0469C0.195312 99.1257 1.06964 100 2.14844 100H91.0156C92.0944 100 92.9688 99.1257 92.9688 98.0469C92.9688 96.9681 92.0944 96.0938 91.0156 96.0938ZM61.3762 43.8271L59.2606 45.9122C59.3498 45.3987 59.3994 44.8708 59.3994 44.3321V43.1099C59.3994 38.0341 55.2696 33.9043 50.1938 33.9043C45.118 33.9043 40.9882 38.0341 40.9882 43.1099V44.3321C40.9882 44.8738 41.0378 45.4048 41.1285 45.9213L39.0038 43.8271C37.9829 42.8207 37.3978 41.4215 37.3978 39.9887C37.3978 38.3194 38.1897 36.7188 39.5157 35.7056L48.1194 29.1313C48.9166 28.5225 49.6117 27.8015 50.19 26.9997C50.769 27.8015 51.4641 28.5217 52.2614 29.1313L60.865 35.7056C62.191 36.718 62.9829 38.3194 62.9829 39.9879C62.9829 41.4215 62.397 42.8207 61.3762 43.8271ZM55.4932 44.3321C55.4932 47.2534 53.1158 49.6307 50.1938 49.6307C47.2717 49.6307 44.8944 47.2542 44.8944 44.3321V43.1099C44.8944 40.1878 47.2717 37.8105 50.1938 37.8105C53.1158 37.8105 55.4932 40.1878 55.4932 43.1099V44.3321ZM27.2224 87.3978L39.0297 81.768C41.8419 80.4276 43.6577 77.5482 43.6546 74.4324L43.6432 63.7505C43.6401 60.7941 42.4339 57.9048 40.3336 55.8235L33.6792 49.2287C31.2225 46.8063 29.8134 43.4387 29.8134 39.9887C29.8134 35.9718 31.7192 32.1175 34.9098 29.6799C34.9098 29.6799 43.4601 23.156 48.2407 19.519C48.2552 19.7594 48.3139 19.9875 48.4077 20.1965C48.2986 20.4399 48.2368 20.7085 48.2368 20.9923C48.2368 22.9546 47.3068 24.8367 45.7481 26.0277L37.1437 32.6019C34.8572 34.3491 33.4915 37.1101 33.4915 39.9887C33.4915 42.4606 34.5016 44.8738 36.2617 46.6087L39.1228 49.4286C42.0914 52.3552 46.022 53.9665 50.19 53.9665C54.3587 53.9665 58.2893 52.3552 61.2579 49.4286L64.119 46.6087C65.8791 44.8738 66.8892 42.4606 66.8892 39.9887C66.8892 37.1101 65.5235 34.3491 63.2362 32.6019L54.6326 26.0277C53.0739 24.836 52.1431 22.9546 52.1431 20.9923C52.1431 20.7085 52.0813 20.4399 51.973 20.1965C52.066 19.9875 52.1255 19.7594 52.14 19.519C56.916 23.1522 65.4709 29.6791 65.4694 29.6783C68.6615 32.1175 70.5673 35.9711 70.5673 39.9887C70.5673 43.4387 69.1582 46.8063 66.6985 49.231L60.0769 55.7854C57.9773 57.8629 56.7688 60.7491 56.7619 63.7032L56.7375 74.4247C56.7307 77.5444 58.5457 80.4276 61.3617 81.7703L73.0568 87.3459C75.2586 88.3957 76.2573 90.9851 75.3296 93.2411C74.382 95.546 71.8102 96.6698 69.4748 95.7993L54.4655 90.2039H59.8488C60.9276 90.2039 61.8019 89.3288 61.8019 88.2507C61.8019 87.1719 60.9276 86.2976 59.8488 86.2976H53.463C53.2051 86.2976 52.9495 86.3487 52.7115 86.4479L30.8647 95.5559C29.7592 96.0167 28.5408 96.0182 27.4345 95.5597C26.3275 95.1004 25.4677 94.2383 25.0122 93.1305C24.1096 90.937 25.0801 88.4186 27.2224 87.3978ZM48.864 92.2844L59.082 96.0938H39.7263L48.864 92.2844Z" fill="#C43340" stroke="#FADC5A" stroke-width="1.6" mask="url(#path-2-inside-1_180_3072)"/>
</g>
<path id="Vector_3" d="M50.1953 13.0859C51.2741 13.0859 52.1484 12.2116 52.1484 11.1328V1.95312C52.1484 0.874328 51.2741 0 50.1953 0C49.1165 0 48.2422 0.874328 48.2422 1.95312V11.1328C48.2422 12.2116 49.1165 13.0859 50.1953 13.0859Z" fill="#373435"/>
<path id="Vector_4" d="M25.9872 18.235C26.3687 18.6165 26.8684 18.8072 27.3681 18.8072C27.8678 18.8072 28.3676 18.6165 28.749 18.235C29.512 17.4721 29.512 16.2353 28.749 15.4732L21.5797 8.30306C20.8167 7.54089 19.5808 7.54089 18.8171 8.30306C18.0541 9.066 18.0541 10.3027 18.8171 11.0657L25.9872 18.235Z" fill="#373435"/>
<path id="Vector_5" d="M15.3884 6.82831C15.9042 6.82831 16.4062 6.61926 16.7693 6.2561C17.1348 5.89294 17.3416 5.38864 17.3416 4.87518C17.3416 4.36096 17.1348 3.85742 16.7693 3.49426C16.4062 3.1311 15.9042 2.92206 15.3884 2.92206C14.875 2.92206 14.3707 3.1311 14.0075 3.49426C13.6443 3.85742 13.4353 4.36096 13.4353 4.87518C13.4353 5.39093 13.6443 5.89294 14.0075 6.2561C14.3714 6.61926 14.875 6.82831 15.3884 6.82831Z" fill="#373435"/>
<path id="Vector_6" d="M72.2839 19.5457C72.7837 19.5457 73.2841 19.355 73.6649 18.9735L84.1026 8.53577C84.8656 7.77359 84.8656 6.53687 84.1026 5.77393C83.3397 5.01099 82.103 5.01099 81.34 5.77393L70.903 16.2117C70.1401 16.9739 70.1401 18.2106 70.903 18.9735C71.2845 19.355 71.7842 19.5457 72.2839 19.5457Z" fill="#373435"/>
<path id="Vector_7" d="M6.33081 41.6344H19.0597C20.1377 41.6344 21.0128 40.76 21.0128 39.6812C21.0128 38.6024 20.1377 37.7281 19.0597 37.7281H6.33081C5.25278 37.7281 4.37769 38.6024 4.37769 39.6812C4.37769 40.76 5.25278 41.6344 6.33081 41.6344Z" fill="#373435"/>
<path id="Vector_8" d="M94.0597 37.7281H81.3308C80.2528 37.7281 79.3777 38.6024 79.3777 39.6812C79.3777 40.76 80.2528 41.6344 81.3308 41.6344H94.0597C95.1377 41.6344 96.0128 40.76 96.0128 39.6812C96.0128 38.6024 95.1377 37.7281 94.0597 37.7281Z" fill="#373435"/>
</g>
<defs>
<clipPath id="clip0_180_3072">
<rect width="100" height="100" fill="white"/>
</clipPath>
</defs>
</svg>
