<svg width="100" height="100" viewBox="0 0 100 100" fill="none" xmlns="http://www.w3.org/2000/svg">
<g id="Opulent terrace amenities">
<path id="Vector" d="M22.4609 76.8984H22.2109V77.1484V81.6403C22.2098 82.6616 21.8036 83.6406 21.0815 84.3627C20.3594 85.0848 19.3805 85.4909 18.3594 85.4922C17.3383 85.4909 16.3593 85.0848 15.6373 84.3627C14.9152 83.6406 14.509 82.6616 14.5078 81.6405V53.9062C14.508 53.61 14.6258 53.326 14.8353 53.1165C15.0447 52.9071 15.3287 52.7893 15.6249 52.7891C17.371 52.7911 19.045 53.4857 20.2797 54.7203C21.5144 55.9551 22.2089 57.6291 22.2109 59.3753V68.9453V69.1953H22.4609H39.0622C39.7728 69.1961 40.454 69.4787 40.9564 69.9811C41.4588 70.4835 41.7414 71.1647 41.7422 71.8753V81.6406C41.7422 82.6621 41.3364 83.6418 40.6141 84.3641C39.8918 85.0864 38.9121 85.4922 37.8906 85.4922C36.8691 85.4922 35.8895 85.0864 35.1672 84.3641C34.4449 83.6418 34.0391 82.6621 34.0391 81.6406V77.1484V76.8984H33.7891H22.4609ZM17.0758 55.2722L16.7422 55.1539V55.5078V81.6406C16.7422 82.0695 16.9126 82.4809 17.2159 82.7841C17.5191 83.0874 17.9305 83.2578 18.3594 83.2578C18.7883 83.2578 19.1996 83.0874 19.5029 82.7841C19.8062 82.4809 19.9766 82.0695 19.9766 81.6406V75.7814C19.9767 75.4851 20.0945 75.201 20.304 74.9915C20.5135 74.782 20.7976 74.6642 21.0939 74.6641H35.1561C35.4524 74.6642 35.7365 74.782 35.946 74.9915C36.1555 75.201 36.2733 75.4851 36.2734 75.7814V81.6406C36.2734 82.0695 36.4438 82.4809 36.7471 82.7841C37.0504 83.0874 37.4617 83.2578 37.8906 83.2578C38.3195 83.2578 38.7309 83.0874 39.0342 82.7841C39.3374 82.4809 39.5078 82.0695 39.5078 81.6406V71.875C39.5078 71.7569 39.4609 71.6436 39.3774 71.5601C39.2939 71.4766 39.1806 71.4297 39.0625 71.4297H21.0939C20.7976 71.4295 20.5135 71.3117 20.304 71.1022C20.0945 70.8927 19.9767 70.6086 19.9766 70.3124V59.375V59.3747C19.9756 58.4751 19.6963 57.5979 19.177 56.8633C18.6576 56.1288 17.9236 55.573 17.0758 55.2722Z" fill="#373435" stroke="#FADC5A" stroke-width="0.5"/>
<path id="Vector_2" d="M77.5391 69.1953H77.7891V68.9453V59.3753C77.7911 57.6291 78.4856 55.9551 79.7203 54.7203C80.955 53.4857 82.629 52.7911 84.3751 52.7891C84.6713 52.7893 84.9553 52.9071 85.1647 53.1165C85.3742 53.326 85.492 53.6101 85.4922 53.9064V81.6406C85.4922 82.6621 85.0864 83.6418 84.3641 84.3641C83.6418 85.0864 82.6621 85.4922 81.6406 85.4922C80.6191 85.4922 79.6395 85.0864 78.9172 84.3641C78.1949 83.6418 77.7891 82.6621 77.7891 81.6406V77.1484V76.8984H77.5391H66.2109H65.9609V77.1484V81.6406C65.9609 82.6621 65.5551 83.6418 64.8328 84.3641C64.1105 85.0864 63.1309 85.4922 62.1094 85.4922C61.0879 85.4922 60.1082 85.0864 59.3859 84.3641C58.6636 83.6418 58.2578 82.6621 58.2578 81.6406V71.8751C58.2586 71.1646 58.5412 70.4835 59.0436 69.9811C59.546 69.4787 60.2272 69.1961 60.9378 69.1953H77.5391ZM80.0234 59.3747V59.375V70.3124C80.0233 70.6086 79.9055 70.8927 79.696 71.1022C79.4865 71.3117 79.2024 71.4295 78.9061 71.4297H60.9375C60.8194 71.4297 60.7061 71.4766 60.6226 71.5601C60.5391 71.6436 60.4922 71.7569 60.4922 71.875V81.6406C60.4922 82.0695 60.6626 82.4809 60.9659 82.7841C61.2691 83.0874 61.6805 83.2578 62.1094 83.2578C62.5383 83.2578 62.9496 83.0874 63.2529 82.7841C63.5562 82.4809 63.7266 82.0695 63.7266 81.6406V75.7814C63.7267 75.4851 63.8445 75.201 64.054 74.9915C64.2635 74.782 64.5476 74.6642 64.8439 74.6641H78.9061C79.2024 74.6642 79.4865 74.782 79.696 74.9915C79.9055 75.201 80.0233 75.4851 80.0234 75.7814V81.6406C80.0234 82.0695 80.1938 82.4809 80.4971 82.7841C80.8004 83.0874 81.2117 83.2578 81.6406 83.2578C82.0695 83.2578 82.4809 83.0874 82.7841 82.7841C83.0874 82.4809 83.2578 82.0695 83.2578 81.6406V55.5078V55.1539L82.9242 55.2722C82.0764 55.573 81.3424 56.1288 80.823 56.8633C80.3037 57.5979 80.0244 58.4751 80.0234 59.3747Z" fill="#373435" stroke="#FADC5A" stroke-width="0.5"/>
<path id="Vector_3" d="M20.0111 43.7198C20.0081 43.7674 20.0148 43.8151 20.0307 43.8601C20.0467 43.9052 20.0717 43.9467 20.1042 43.9819C20.1367 44.0171 20.1761 44.0453 20.2199 44.0648C20.2637 44.0843 20.311 44.0947 20.3589 44.0953H20.3609H29.907H30.0517L30.0569 43.9507C30.4605 32.6798 35.9679 23.4905 44.6177 17.3795L44.5105 17.1085C37.976 18.019 31.9606 21.1705 27.4921 26.0244C23.0237 30.8781 20.3794 37.1328 20.0111 43.7198ZM20.0111 43.7198C20.0111 43.7196 20.0112 43.7193 20.0112 43.7191L20.1609 43.7289L20.0111 43.7205C20.0111 43.7203 20.0111 43.7201 20.0111 43.7198ZM45.2671 46.6797V46.5297H45.1171H20.3612C19.9823 46.5289 19.6077 46.4511 19.2599 46.3009C18.9122 46.1506 18.5987 45.9312 18.3385 45.6559C18.0783 45.3805 17.8769 45.0551 17.7465 44.6995C17.6161 44.3438 17.5595 43.9654 17.5802 43.5872C18.0207 35.7015 21.4638 28.2837 27.2023 22.8572C32.9409 17.4307 40.5394 14.4072 48.4374 14.4078H51.5624C59.4607 14.4063 67.0598 17.4294 72.7985 22.8562C78.5373 28.2829 81.98 35.7011 82.4197 43.5871C82.4404 43.9654 82.3839 44.3439 82.2536 44.6996C82.1233 45.0553 81.9218 45.3808 81.6616 45.6561C81.4014 45.9314 81.0879 46.1509 80.7401 46.3011C80.3923 46.4513 80.0176 46.529 79.6387 46.5297H54.8827H54.7327V46.6797V57.2266V57.3766H54.8827H67.578C68.6261 57.3766 69.6312 57.7929 70.3722 58.534C71.1133 59.275 71.5296 60.2801 71.5296 61.3281C71.5296 62.3761 71.1133 63.3812 70.3722 64.1223C69.6312 64.8634 68.6261 65.2797 67.578 65.2797H54.8827H54.7327V65.4297V80.8594C54.7327 82.1146 54.2341 83.3184 53.3465 84.206C52.459 85.0936 51.2551 85.5922 49.9999 85.5922C48.7447 85.5922 47.5409 85.0936 46.6533 84.206C45.7657 83.3184 45.2671 82.1146 45.2671 80.8594V65.4297V65.2797H45.1171H32.4218C31.3738 65.2797 30.3687 64.8634 29.6276 64.1223C28.8866 63.3812 28.4702 62.3761 28.4702 61.3281C28.4702 60.2801 28.8866 59.275 29.6276 58.534C30.3687 57.7929 31.3738 57.3766 32.4218 57.3766H45.1171H45.2671V57.2266V46.6797ZM48.7827 17.8367V17.575L48.5569 17.7073C38.3505 23.6865 32.9168 32.9279 32.5063 43.9397L32.5005 44.0953H32.6562H48.6327H48.7827V43.9453V17.8367ZM67.3476 44.0953H67.5033L67.4975 43.9397C67.061 32.3364 60.9306 23.0969 51.4412 17.7063L51.2171 17.579V17.8367V43.9453V44.0953H51.3671H67.3476ZM47.8515 65.2797H47.7015V65.4297V80.8594C47.7015 81.469 47.9436 82.0536 48.3747 82.4846C48.8057 82.9156 49.3903 83.1578 49.9999 83.1578C50.6095 83.1578 51.1941 82.9156 51.6252 82.4846C52.0562 82.0536 52.2984 81.469 52.2984 80.8594V65.4297V65.2797H52.1484H47.8515ZM69.0952 61.329V61.328C69.0948 60.9258 68.9348 60.5402 68.6504 60.2558C68.366 59.9714 67.9804 59.8114 67.5782 59.8109H67.578H32.4218C32.0194 59.8109 31.6335 59.9708 31.349 60.2553C31.0645 60.5398 30.9046 60.9257 30.9046 61.3281C30.9046 61.7305 31.0645 62.1164 31.349 62.4009C31.6335 62.6855 32.0194 62.8453 32.4218 62.8453H67.578L67.5789 62.8453C67.9804 62.843 68.3647 62.6825 68.6486 62.3987C68.9325 62.1148 69.093 61.7304 69.0952 61.329ZM52.1484 57.3766H52.2984V57.2266V46.6797V46.5297H52.1484H47.8515H47.7015V46.6797V57.2266V57.3766H47.8515H52.1484ZM79.639 44.0953L79.641 44.0953C79.6889 44.0947 79.7362 44.0843 79.78 44.0648C79.8237 44.0453 79.8631 44.0171 79.8956 43.9819C79.9282 43.9467 79.9532 43.9052 79.9692 43.8601C79.985 43.8153 79.9917 43.7679 79.9888 43.7205C79.6211 37.1334 76.9769 30.8785 72.5082 26.025C68.0395 21.1716 62.0238 18.0209 55.4893 17.1116L55.3822 17.3827C64.7185 23.9742 69.5712 33.4673 69.943 43.9506L69.9481 44.0953H70.0929L79.639 44.0953Z" fill="#C43340" stroke="#FADC5A" stroke-width="0.3"/>
</g>
</svg>
