<svg width="100" height="100" viewBox="0 0 100 100" fill="none" xmlns="http://www.w3.org/2000/svg">
<g id="pepicons-pencil:building">
<g id="Group">
<path id="Vector" d="M8.19932 88.4137C7.70441 88.4137 7.22977 88.2171 6.87981 87.8671C6.52986 87.5172 6.33325 87.0425 6.33325 86.5476C6.33325 86.0527 6.52986 85.5781 6.87981 85.2281C7.22977 84.8782 7.70441 84.6815 8.19932 84.6815H84.3005C84.7954 84.6815 85.2701 84.8782 85.62 85.2281C85.97 85.5781 86.1666 86.0527 86.1666 86.5476C86.1666 87.0425 85.97 87.5172 85.62 87.8671C85.2701 88.2171 84.7954 88.4137 84.3005 88.4137H8.19932Z" fill="#C43340" stroke="#FADC5A"/>
<path id="Vector_2" d="M34.6149 36.8601C34.6149 37.3816 34.4077 37.8816 34.039 38.2504C33.6703 38.6191 33.1702 38.8262 32.6488 38.8262C32.1274 38.8262 31.6273 38.6191 31.2586 38.2504C30.8899 37.8816 30.6827 37.3816 30.6827 36.8601V24.1212C30.6827 17.0252 35.7638 11.2333 42.1131 11.2333H65.7738C72.123 11.2333 77.2041 17.0252 77.2041 24.1212V81.6815C77.2041 82.203 76.997 82.7031 76.6283 83.0718C76.2596 83.4405 75.7595 83.6476 75.2381 83.6476C74.7166 83.6476 74.2166 83.4405 73.8478 83.0718C73.4791 82.7031 73.272 82.203 73.272 81.6815V24.1212C73.272 19.1743 69.8946 15.1655 65.7738 15.1655H42.1131C37.9923 15.1655 34.6149 19.1743 34.6149 24.1212V36.8601Z" fill="#C43340" stroke="#FADC5A" stroke-width="0.8"/>
<path id="Vector_3" d="M44.4791 23.1637H49.2113C49.7062 23.1637 50.1808 23.3603 50.5308 23.7103C50.8807 24.0602 51.0773 24.5349 51.0773 25.0298V29.7619C51.0773 30.2568 50.8807 30.7315 50.5308 31.0814C50.1808 31.4314 49.7062 31.628 49.2113 31.628H44.4791C43.9842 31.628 43.5096 31.4314 43.1596 31.0814C42.8096 30.7315 42.613 30.2568 42.613 29.7619V25.0298C42.613 24.5349 42.8096 24.0602 43.1596 23.7103C43.5096 23.3603 43.9842 23.1637 44.4791 23.1637ZM58.6755 23.1637H63.4077C63.9026 23.1637 64.3772 23.3603 64.7272 23.7103C65.0771 24.0602 65.2738 24.5349 65.2738 25.0298V29.7619C65.2738 30.2568 65.0771 30.7315 64.7272 31.0814C64.3772 31.4314 63.9026 31.628 63.4077 31.628H58.6755C58.1806 31.628 57.706 31.4314 57.356 31.0814C57.0061 30.7315 56.8095 30.2568 56.8095 29.7619V25.0298C56.8095 24.5349 57.0061 24.0602 57.356 23.7103C57.706 23.3603 58.1806 23.1637 58.6755 23.1637ZM58.6755 37.3601H63.4077C63.9026 37.3601 64.3772 37.5567 64.7272 37.9067C65.0771 38.2566 65.2738 38.7313 65.2738 39.2262V43.9583C65.2738 44.4533 65.0771 44.9279 64.7272 45.2779C64.3772 45.6278 63.9026 45.8244 63.4077 45.8244H58.6755C58.1806 45.8244 57.706 45.6278 57.356 45.2779C57.0061 44.9279 56.8095 44.4533 56.8095 43.9583V39.2262C56.8095 38.7313 57.0061 38.2566 57.356 37.9067C57.706 37.5567 58.1806 37.3601 58.6755 37.3601ZM58.6755 51.5566H63.4077C63.9026 51.5566 64.3772 51.7532 64.7272 52.1031C65.0771 52.4531 65.2738 52.9277 65.2738 53.4226V58.1548C65.2738 58.6497 65.0771 59.1243 64.7272 59.4743C64.3772 59.8242 63.9026 60.0208 63.4077 60.0208H58.6755C58.1806 60.0208 57.706 59.8242 57.356 59.4743C57.0061 59.1243 56.8095 58.6497 56.8095 58.1548V53.4226C56.8095 52.9277 57.0061 52.4531 57.356 52.1031C57.706 51.7532 58.1806 51.5566 58.6755 51.5566ZM58.6755 65.753H63.4077C63.9026 65.753 64.3772 65.9496 64.7272 66.2995C65.0771 66.6495 65.2738 67.1241 65.2738 67.6191V72.3512C65.2738 72.8461 65.0771 73.3208 64.7272 73.6707C64.3772 74.0207 63.9026 74.2173 63.4077 74.2173H58.6755C58.1806 74.2173 57.706 74.0207 57.356 73.6707C57.0061 73.3208 56.8095 72.8461 56.8095 72.3512V67.6191C56.8095 67.1241 57.0061 66.6495 57.356 66.2995C57.706 65.9496 58.1806 65.753 58.6755 65.753ZM44.4791 37.3601H49.2113C49.7062 37.3601 50.1808 37.5567 50.5308 37.9067C50.8807 38.2566 51.0773 38.7313 51.0773 39.2262V43.9583C51.0773 44.4533 50.8807 44.9279 50.5308 45.2779C50.1808 45.6278 49.7062 45.8244 49.2113 45.8244H44.4791C43.9842 45.8244 43.5096 45.6278 43.1596 45.2779C42.8096 44.9279 42.613 44.4533 42.613 43.9583V39.2262C42.613 38.7313 42.8096 38.2566 43.1596 37.9067C43.5096 37.5567 43.9842 37.3601 44.4791 37.3601Z" stroke="#373435"/>
</g>
<path id="Vector_4" d="M35.1873 46.3331L35.1873 46.3331L53.0028 60.2568C54.1943 61.1885 53.5305 63.0978 52.0348 63.0978H49.9162H49.3662V63.6478V80.7295C49.3662 81.7171 48.9757 82.6637 48.2816 83.3612C47.5875 84.0587 46.6467 84.45 45.6663 84.45H20.1668C19.1864 84.45 18.2456 84.0587 17.5515 83.3612C16.8573 82.6637 16.4669 81.7171 16.4669 80.7295V63.6478V63.0978H15.9169H13.7983C12.3033 63.0978 11.6383 61.19 12.8306 60.2544C12.8307 60.2543 12.8308 60.2543 12.8309 60.2542L30.6457 46.3331L30.6458 46.3331C31.2953 45.8254 32.0944 45.55 32.9165 45.55C33.7387 45.55 34.5378 45.8254 35.1873 46.3331ZM34.4915 80.7295V81.2795H35.0415H45.6663H46.2163V80.7295V61.5339V61.5336C46.2162 61.2939 46.2695 61.0572 46.3722 60.8411C46.4749 60.625 46.6244 60.435 46.8095 60.2849L47.3462 59.8498L46.8018 59.4244L33.2552 48.8379L32.9165 48.5733L32.5779 48.8379L19.0313 59.4244L18.4872 59.8496L19.0233 60.2847C19.386 60.5792 19.6168 61.0288 19.6168 61.5339V80.7295V81.2795H20.1668H30.7916H31.3416V80.7295V67.9182C31.3416 67.4969 31.5082 67.0934 31.8038 66.7963C32.0994 66.4993 32.4997 66.333 32.9165 66.333C33.3334 66.333 33.7337 66.4993 34.0293 66.7963C34.3249 67.0934 34.4915 67.4969 34.4915 67.9182V80.7295Z" fill="#373435" stroke="#FADC5A" stroke-width="1.1"/>
</g>
</svg>
