<svg width="100" height="100" viewBox="0 0 100 100" fill="none" xmlns="http://www.w3.org/2000/svg">
<g id="pepicons-pencil:person">
<path id="Vector 5" d="M7 75H21" stroke="#C43340" stroke-width="2"/>
<path id="Vector 6" d="M43 75H57" stroke="#C43340" stroke-width="2"/>
<path id="Vector 7" d="M79 75H93" stroke="#C43340" stroke-width="2"/>
<g id="Group">
<path id="Vector" d="M35.4999 25.3636C38.3618 25.3636 40.6818 23.0437 40.6818 20.1818C40.6818 17.32 38.3618 15 35.4999 15C32.6381 15 30.3181 17.32 30.3181 20.1818C30.3181 23.0437 32.6381 25.3636 35.4999 25.3636Z" stroke="#373435" stroke-width="2" stroke-linecap="round"/>
<path id="Vector_2" d="M45 39.1818V35.7273C45 30.3762 40.6905 25.3636 35.5 25.3636C30.3078 25.3636 26 30.3762 26 35.7273V39.1818" stroke="#373435" stroke-width="2" stroke-linecap="round"/>
</g>
<g id="Group_2">
<path id="Vector_3" d="M31.9023 66.9351C35.4743 66.9351 38.3699 64.0395 38.3699 60.4675C38.3699 56.8956 35.4743 54 31.9023 54C28.3304 54 25.4348 56.8956 25.4348 60.4675C25.4348 64.0395 28.3304 66.9351 31.9023 66.9351Z" stroke="#373435" stroke-width="2" stroke-linecap="round"/>
<path id="Vector_4" d="M43.7595 84.1818V79.8701C43.7595 73.1913 38.3806 66.9351 31.9023 66.9351C25.4218 66.9351 20.0452 73.1913 20.0452 79.8701V84.1818" stroke="#373435" stroke-width="2" stroke-linecap="round"/>
</g>
<path id="Vector 4" d="M7 75V85.5H93.5V75L83 40H17.5L7.07752 74.7416L7 75Z" stroke="#C43340" stroke-width="2"/>
<g id="Group_3">
<path id="Vector_5" d="M64.4999 25.3636C67.3618 25.3636 69.6818 23.0437 69.6818 20.1818C69.6818 17.32 67.3618 15 64.4999 15C61.6381 15 59.3181 17.32 59.3181 20.1818C59.3181 23.0437 61.6381 25.3636 64.4999 25.3636Z" stroke="#373435" stroke-width="2" stroke-linecap="round"/>
<path id="Vector_6" d="M74 39.1818V35.7273C74 30.3762 69.6905 25.3636 64.5 25.3636C59.3078 25.3636 55 30.3762 55 35.7273V39.1818" stroke="#373435" stroke-width="2" stroke-linecap="round"/>
</g>
<g id="Group_4">
<path id="Vector_7" d="M68.0979 66.9351C71.6698 66.9351 74.5654 64.0395 74.5654 60.4675C74.5654 56.8956 71.6698 54 68.0979 54C64.526 54 61.6304 56.8956 61.6304 60.4675C61.6304 64.0395 64.526 66.9351 68.0979 66.9351Z" stroke="#373435" stroke-width="2" stroke-linecap="round"/>
<path id="Vector_8" d="M79.955 84.1818V79.8701C79.955 73.1913 74.5762 66.9351 68.0979 66.9351C61.6174 66.9351 56.2407 73.1913 56.2407 79.8701V84.1818" stroke="#373435" stroke-width="2" stroke-linecap="round"/>
</g>
</g>
</svg>
