<svg width="100" height="100" viewBox="0 0 100 100" fill="none" xmlns="http://www.w3.org/2000/svg">
<path d="M61.0444 86.5625C61.0444 87.6878 60.1322 88.6 59.0069 88.6H18.0139C13.2592 88.6 9.4 84.7686 9.4 80.0625V19.9375C9.4 15.2314 13.2592 11.4 18.0139 11.4H58.9861C63.7408 11.4 67.6 15.2314 67.6 19.9375V44.2917C67.6 45.4285 66.6785 46.35 65.5417 46.35C64.4049 46.35 63.4833 45.4285 63.4833 44.2917V19.9375C63.4833 17.4741 61.4622 15.475 58.9861 15.475H18.0139C15.5378 15.475 13.5167 17.4741 13.5167 19.9375V80.0625C13.5167 82.5259 15.5378 84.525 18.0139 84.525H59.0069C60.1322 84.525 61.0444 85.4372 61.0444 86.5625Z" fill="#C43340" stroke="#FADC5A" stroke-width="0.8"/>
<path d="M12 37H66V40H12V37Z" fill="#C43340"/>
<path d="M11 62H58.5C59.3284 62 60 62.6716 60 63.5C60 64.3284 59.3284 65 58.5 65H11V62Z" fill="#C43340"/>
<path d="M52 30C53.6569 30 55 28.6569 55 27C55 25.3431 53.6569 24 52 24C50.3431 24 49 25.3431 49 27C49 28.6569 50.3431 30 52 30Z" fill="#373435"/>
<path d="M39 30C40.6569 30 42 28.6569 42 27C42 25.3431 40.6569 24 39 24C37.3431 24 36 25.3431 36 27C36 28.6569 37.3431 30 39 30Z" fill="#373435"/>
<path d="M26 30C27.6569 30 29 28.6569 29 27C29 25.3431 27.6569 24 26 24C24.3431 24 23 25.3431 23 27C23 28.6569 24.3431 30 26 30Z" fill="#373435"/>
<path d="M91 48H73.2845L62 67.5H73.2845L63.6229 87L89.3847 62.625H76.5L91 48Z" fill="#373435"/>
</svg>
