<svg width="70" height="70" viewBox="0 0 70 70" fill="none" xmlns="http://www.w3.org/2000/svg">
<path d="M34.3913 59.3633C34.3913 59.6394 34.6152 59.8633 34.8913 59.8633C35.1675 59.8633 35.3913 59.6394 35.3913 59.3633H34.3913ZM34.8913 6.28613H35.3913C35.3913 6.00999 35.1675 5.78613 34.8913 5.78613V6.28613ZM7.69995 6.28613V5.78613C7.42381 5.78613 7.19995 6.00999 7.19995 6.28613H7.69995ZM7.69995 63.7139H7.19995V64.2139H7.69995V63.7139ZM62.3 63.7139V64.2139H62.8V63.7139H62.3ZM62.3 32.8247H62.8C62.8 32.5486 62.5761 32.3247 62.3 32.3247V32.8247ZM38.8068 32.3247C38.5307 32.3247 38.3068 32.5486 38.3068 32.8247C38.3068 33.1008 38.5307 33.3247 38.8068 33.3247V32.3247ZM35.3913 59.3633V6.28613H34.3913V59.3633H35.3913ZM34.8913 5.78613H7.69995V6.78613H34.8913V5.78613ZM7.19995 6.28613V63.7139H8.19995V6.28613H7.19995ZM7.69995 64.2139H62.3V63.2139H7.69995V64.2139ZM62.8 63.7139V32.8247H61.8V63.7139H62.8ZM62.3 32.3247H50.5534V33.3247H62.3V32.3247ZM50.5534 32.3247H38.8068V33.3247H50.5534V32.3247Z" fill="#C43340"/>
<path d="M40.3218 60.5496V51.7318H56.6775V60.5496" stroke="#C43340" stroke-miterlimit="22.9256" stroke-linecap="round"/>
<path d="M57.5221 38.5419H50.9492C50.8845 38.5419 50.832 38.5943 50.832 38.6591V45.2319C50.832 45.2967 50.8845 45.3491 50.9492 45.3491H57.5221C57.5868 45.3491 57.6393 45.2967 57.6393 45.2319V38.6591C57.6393 38.5943 57.5868 38.5419 57.5221 38.5419Z" stroke="#373435" stroke-miterlimit="22.9256"/>
<path d="M46.7137 38.5419H40.1409C40.0762 38.5419 40.0237 38.5943 40.0237 38.6591V45.2319C40.0237 45.2967 40.0762 45.3491 40.1409 45.3491H46.7137C46.7785 45.3491 46.8309 45.2967 46.8309 45.2319V38.6591C46.8309 38.5943 46.7785 38.5419 46.7137 38.5419Z" stroke="#373435" stroke-miterlimit="22.9256"/>
<path d="M30.1705 35.2433H23.5977C23.5329 35.2433 23.4805 35.2958 23.4805 35.3605V41.9333C23.4805 41.9981 23.5329 42.0505 23.5977 42.0505H30.1705C30.2353 42.0505 30.2877 41.9981 30.2877 41.9333V35.3605C30.2877 35.2958 30.2353 35.2433 30.1705 35.2433Z" stroke="#373435" stroke-miterlimit="22.9256"/>
<path d="M19.3622 35.2433H12.7893C12.7246 35.2433 12.6721 35.2958 12.6721 35.3605V41.9333C12.6721 41.9981 12.7246 42.0505 12.7893 42.0505H19.3622C19.4269 42.0505 19.4794 41.9981 19.4794 41.9333V35.3605C19.4794 35.2958 19.4269 35.2433 19.3622 35.2433Z" stroke="#373435" stroke-miterlimit="22.9256"/>
<path d="M30.1705 23.4208H23.5977C23.5329 23.4208 23.4805 23.4732 23.4805 23.538V30.1108C23.4805 30.1756 23.5329 30.228 23.5977 30.228H30.1705C30.2353 30.228 30.2877 30.1756 30.2877 30.1108V23.538C30.2877 23.4732 30.2353 23.4208 30.1705 23.4208Z" stroke="#373435" stroke-miterlimit="22.9256"/>
<path d="M30.1705 11.5983H23.5977C23.5329 11.5983 23.4805 11.6507 23.4805 11.7155V18.2883C23.4805 18.3531 23.5329 18.4055 23.5977 18.4055H30.1705C30.2353 18.4055 30.2877 18.3531 30.2877 18.2883V11.7155C30.2877 11.6507 30.2353 11.5983 30.1705 11.5983Z" stroke="#373435" stroke-miterlimit="22.9256"/>
<path d="M19.3622 23.4208H12.7893C12.7246 23.4208 12.6721 23.4732 12.6721 23.538V30.1108C12.6721 30.1756 12.7246 30.228 12.7893 30.228H19.3622C19.4269 30.228 19.4794 30.1756 19.4794 30.1108V23.538C19.4794 23.4732 19.4269 23.4208 19.3622 23.4208Z" stroke="#373435" stroke-miterlimit="22.9256"/>
<path d="M19.3622 11.5983H12.7893C12.7246 11.5983 12.6721 11.6507 12.6721 11.7155V18.2883C12.6721 18.3531 12.7246 18.4055 12.7893 18.4055H19.3622C19.4269 18.4055 19.4794 18.3531 19.4794 18.2883V11.7155C19.4794 11.6507 19.4269 11.5983 19.3622 11.5983Z" stroke="#373435" stroke-miterlimit="22.9256"/>
<path d="M12.8162 60.5496V51.7318H29.1719V60.5496" stroke="#C43340" stroke-miterlimit="22.9256" stroke-linecap="round"/>
</svg>
