<svg width="100" height="100" viewBox="0 0 100 100" fill="none" xmlns="http://www.w3.org/2000/svg">
<g id="sculpture_5830297 1">
<g id="Group">
<path id="Vector" d="M74.7672 76.2344H71.7269C72.7251 75.2599 73.5159 74.0596 74.0079 72.6944L77.7793 62.2286C78.8476 59.2645 77.3247 55.9317 74.3845 54.7991L69.8645 53.0581C69.1698 52.7913 68.3899 53.1368 68.1226 53.8313C67.855 54.5258 68.2013 55.3058 68.8958 55.5734L73.4158 57.3144C74.9988 57.9242 75.8189 59.7188 75.2438 61.3147L71.4723 71.7805C71.2119 72.503 70.8339 73.1606 70.366 73.7364C66.4236 69.6201 60.9929 67.2739 55.2458 67.254L50.1472 67.236C47.6892 67.2444 44.9785 66.4184 42.9341 65.0327C41.4785 64.0559 40.2182 62.7819 39.2434 61.2657H41.9827C42.6571 61.2657 43.2896 61.5645 43.7179 62.0854L44.4367 62.9596C44.7032 63.2838 45.0891 63.4514 45.4785 63.4514C45.7797 63.4514 46.0828 63.351 46.3335 63.1449C46.9085 62.6721 46.9913 61.8231 46.5187 61.2479L45.8 60.3737C44.8577 59.2275 43.4666 58.5702 41.9827 58.5702H37.7812C37.3583 57.7736 36.0647 55.2131 35.7071 54.5903L41.2884 51.8481C42.5843 51.2115 43.5343 50.0446 43.8946 48.6464L44.6442 45.7373L45.5624 46.3644C46.9286 47.2973 48.4946 47.764 50.0604 47.764C51.6263 47.764 53.1923 47.2973 54.5585 46.3644L55.4772 45.7371L56.1773 48.4543C56.5748 49.9971 57.6996 51.2601 59.1863 51.833L62.9918 53.2987C63.1511 53.36 63.3148 53.3891 63.4758 53.3891C64.0171 53.3891 64.5276 53.0608 64.7337 52.5253C65.0012 51.8308 64.6549 51.051 63.9605 50.7834L60.1552 49.3177C59.4794 49.0575 58.9682 48.4833 58.7874 47.7819L57.8444 44.1206L59.2065 43.1906C60.152 42.5448 60.9971 41.7877 61.7314 40.9448C63.5872 41.2941 66.372 40.575 68.073 39.229C70.4145 37.3761 71.6744 34.1873 70.9548 31.2796C73.2767 28.4857 73.55 24.5451 71.6577 21.4644C71.7366 21.1122 71.7886 20.7499 71.8099 20.3798C71.9501 17.9502 70.7582 15.6351 68.6992 14.3372L66.8391 13.1651C66.3559 11.0127 64.5231 8.68032 62.284 7.74684L61.4048 7.35602C60.079 6.76683 58.6626 6.45813 57.2418 6.41734C55.0589 4.83555 52.5853 4 50.0602 4C47.5365 4 45.0618 4.83609 42.8802 6.41752C41.4593 6.4583 40.0423 6.76701 38.7162 7.3562L37.8373 7.74702C35.7229 8.7292 33.8522 10.6768 33.2821 13.1653L31.4219 14.3374C29.1282 15.8326 27.8271 18.5978 28.4632 21.4644C26.5709 24.5451 26.8442 28.4853 29.1661 31.2793C28.4821 34.1289 29.4901 37.1662 31.8074 39.0347C33.6005 40.4981 35.8616 41.3197 38.3897 40.9446C39.1241 41.7876 39.9691 42.5446 40.9146 43.1904L42.277 44.1208L41.2843 47.9735C41.1204 48.609 40.6888 49.1395 40.0998 49.429L33.5426 52.6508C32.2582 52.061 30.7334 52.0305 29.3517 52.6899L25.2074 54.6686C22.4882 55.9671 21.208 59.0836 22.2295 61.9187L23.3126 64.9247C23.5651 65.6247 24.3372 65.9879 25.0375 65.7356C25.7377 65.4833 26.1007 64.7112 25.8484 64.0108L24.7652 61.0048C24.2152 59.4783 24.9045 57.8001 26.3688 57.1011L26.7784 56.9054L29.9453 63.1704C30.1824 63.6395 30.6566 63.9103 31.149 63.9103C31.3535 63.9103 31.561 63.8636 31.7558 63.765C32.4201 63.4293 32.6864 62.6186 32.3506 61.9543L29.2112 55.7437L30.5129 55.1223C31.2643 54.7635 32.1092 54.8541 32.7482 55.2922C32.957 55.4415 33.2768 55.7389 33.475 56.1164L36.2302 61.4377C37.0896 63.0974 38.2156 64.5576 39.5397 65.7791L39.5296 65.7828C38.7719 66.0605 38.1085 66.4955 37.5692 67.043L32.2699 66.6252C31.5305 66.5658 30.8789 67.1206 30.8205 67.8627C30.7619 68.6048 31.3161 69.2537 32.058 69.3121L36.1752 69.6368C36.108 69.9505 36.0649 70.2725 36.0552 70.6022L36.0063 72.241C35.984 72.9851 36.5693 73.6061 37.3132 73.6284C37.3268 73.6287 37.3405 73.6289 37.3541 73.6289C38.0799 73.6289 38.6788 73.0516 38.7005 72.3215L38.7494 70.6828C38.7812 69.6122 39.4516 68.6823 40.4572 68.3138L42.1162 67.7059C44.4933 69.1281 47.2488 69.9212 50.1375 69.9313L55.2361 69.9493C60.1775 69.9665 64.8514 71.9548 68.2764 75.4511C67.3264 75.9539 66.252 76.2344 65.1327 76.2344H34.9875C32.1558 76.2344 29.6082 74.4445 28.6483 71.7805L27.9841 69.9376C27.7319 69.2375 26.9596 68.8744 26.2595 69.1267C25.5593 69.3789 25.1963 70.1511 25.4486 70.8515L26.1127 72.6944C26.6047 74.0596 27.3955 75.2599 28.3937 76.2344H25.3533C23.6195 76.2344 22.2088 77.6451 22.2088 79.3789V92.8555C22.2088 94.5893 23.6195 96 25.3533 96H74.7674C76.5012 96 77.9119 94.5893 77.9119 92.8555V79.3789C77.9118 77.6451 76.5012 76.2344 74.7672 76.2344ZM57.6858 40.965L53.0382 44.1388C51.2292 45.3741 48.8913 45.3743 47.0821 44.1388L42.6824 41.1342L43.583 41.0129C45.09 40.8102 46.2668 39.6701 46.5513 38.2166L50.8336 36.734C51.5369 36.4907 51.9097 35.7231 51.6662 35.0196C51.4228 34.3163 50.6548 33.9438 49.9518 34.1871L46.7178 35.3068L46.7843 33.7439C46.8159 33.0003 46.2388 32.3718 45.4952 32.3401C44.7454 32.3076 44.1231 32.8857 44.0915 33.6294C44.0761 33.9924 43.9318 37.3863 43.9237 37.5748C43.907 37.9669 43.6126 38.2894 43.2236 38.3419L40.0814 38.7649C38.6344 36.9241 37.8201 34.6295 37.8201 32.2253V31.2834C38.4899 30.3242 38.8378 29.1523 38.7661 27.9541L38.6303 25.7057C39.6859 25.0768 40.582 24.1652 41.2011 23.0255L42.3038 20.9912C45.0059 20.8613 48.3909 19.5112 50.0604 16.9882C51.6366 19.337 54.7885 20.8351 57.8191 20.9912L58.9202 23.0264C59.5418 24.1706 60.4425 25.0853 61.504 25.7143L61.3545 27.9547C61.2828 29.1523 61.6306 30.324 62.3005 31.2832V32.225C62.3003 35.7244 60.5753 38.9914 57.6858 40.965ZM66.6206 36.9374L66.3801 37.1313C65.5543 37.7972 64.5549 38.1996 63.5191 38.3102C64.3211 36.7549 64.8154 35.0403 64.9541 33.2587C65.4892 33.4346 66.0438 33.5245 66.597 33.5245C67.234 33.5245 67.8683 33.4091 68.4663 33.1839C68.4307 34.6168 67.7792 36.0031 66.6206 36.9374ZM68.7746 29.6842L68.5292 29.963C67.6818 30.9258 66.2396 31.1125 65.1748 30.3979C64.4237 29.8933 63.9908 29.019 64.0444 28.1252L64.1443 26.628C64.5646 26.6886 65.4725 26.7344 66.3796 26.5648C67.8311 26.2895 69.0997 25.5582 70.0468 24.5329C70.4774 26.3143 70.0443 28.2413 68.7746 29.6842ZM69.1184 20.2249C69.0127 22.0566 67.68 23.575 65.8772 23.9167C64.0291 24.2668 62.1859 23.3924 61.2896 21.742L60.7297 20.7072C62.2872 20.3291 63.7675 19.592 65.0393 18.5076C65.7773 17.8783 66.316 17.0883 66.6342 16.2225L67.2615 16.6177C68.4906 17.3925 69.2021 18.7746 69.1184 20.2249ZM61.1884 10.2102C62.5763 10.827 63.6478 12.0072 64.1281 13.4483C64.49 14.5336 64.1612 15.7145 63.2906 16.4568C61.2195 18.2226 58.4056 18.7545 55.8689 17.9258C57.7136 16.845 58.552 14.2086 57.4294 12.2243L57.2006 11.8096C56.8411 11.158 56.0213 10.9214 55.3698 11.2806C54.7181 11.6401 54.4812 12.4599 54.8408 13.1116L55.0695 13.5263C55.4449 14.2066 55.2503 15.059 54.6169 15.509L53.2083 16.5098C52.0763 15.5314 51.408 14.108 51.408 12.5578C51.408 11.5812 51.9354 10.6747 52.7841 10.1919C54.0561 9.46843 55.4862 9.10259 56.9192 9.10259C58.0744 9.10259 59.2314 9.34013 60.3092 9.81918L61.1884 10.2102ZM52.8994 7.16555C52.404 7.35818 51.9189 7.58297 51.4513 7.84873C50.92 8.15096 50.4521 8.53693 50.06 8.98417C49.6679 8.53693 49.2002 8.15096 48.6689 7.84873C48.2015 7.58297 47.7163 7.358 47.2209 7.16555C48.1474 6.85595 49.1012 6.69513 50.06 6.69513C51.0195 6.69531 51.9731 6.85613 52.8994 7.16555ZM35.9925 13.4481C36.4728 12.0071 37.5442 10.8269 38.9323 10.21L39.8114 9.81918C40.8893 9.34013 42.0461 9.10259 43.2013 9.10259C44.6343 9.10259 46.0647 9.46825 47.3365 10.1919C48.1853 10.6747 48.7127 11.5812 48.7127 12.5578C48.7127 14.5674 47.5929 16.3675 45.7901 17.2557L45.2735 17.5103C42.4984 18.8774 39.1841 18.4641 36.8302 16.4568C35.9594 15.7144 35.6307 14.5335 35.9925 13.4481ZM32.8589 16.618L33.4864 16.2227C33.8046 17.0884 34.3433 17.8785 35.0813 18.5078C36.3534 19.5926 37.8339 20.3296 39.3918 20.7077L38.8321 21.7402C37.9345 23.3922 36.0906 24.268 34.2432 23.9166C32.4406 23.5748 31.1077 22.0566 31.002 20.2249C30.9184 18.7746 31.6298 17.3925 32.8589 16.618ZM33.741 26.5646C34.4272 26.6999 34.7869 26.7535 35.9856 26.627L36.0757 28.116C36.1297 29.019 35.6969 29.8935 34.9458 30.3977C33.8845 31.1152 32.3064 30.8708 31.3459 29.6842C30.1395 28.1937 29.643 26.3143 30.0739 24.5329C31.0209 25.5582 32.2963 26.25 33.741 26.5646ZM33.7404 37.1315C32.654 36.2135 31.6712 34.6921 31.6539 33.1839C32.2521 33.4093 32.8866 33.5245 33.5237 33.5243C34.0768 33.5243 34.6313 33.4344 35.1664 33.2585C35.305 35.0403 35.7995 36.7549 36.6014 38.3102C35.5657 38.1996 34.5665 37.7974 33.7404 37.1315ZM75.2164 92.8555C75.2164 93.1033 75.0148 93.3047 74.7672 93.3047H25.3532C25.1056 93.3047 24.9039 93.1033 24.9039 92.8555V79.3789C24.9039 79.1311 25.1056 78.9297 25.3532 78.9297H74.7672C75.0148 78.9297 75.2164 79.1311 75.2164 79.3789V92.8555Z" fill="#C43340" stroke="#FADC5A"/>
<path id="Vector_2" d="M71.1733 82.0742H62.9075C62.1633 82.0742 61.5599 82.6774 61.5599 83.4219C61.5599 84.1663 62.1633 84.7695 62.9075 84.7695H69.8257V87.4648H30.2944V84.7695H56.607C57.3512 84.7695 57.9546 84.1663 57.9546 83.4219C57.9546 82.6774 57.3512 82.0742 56.607 82.0742H28.9468C28.2025 82.0742 27.5991 82.6774 27.5991 83.4219V88.8125C27.5991 89.5569 28.2025 90.1602 28.9468 90.1602H71.1733C71.9176 90.1602 72.521 89.5569 72.521 88.8125V83.4219C72.521 82.6774 71.9176 82.0742 71.1733 82.0742Z" fill="#373435" stroke="#FADC5A"/>
<path id="Vector_3" d="M58.2997 58.5704C56.8162 58.5704 55.4247 59.2277 54.4824 60.3739L53.7638 61.2481C53.2913 61.8231 53.3743 62.6725 53.9493 63.145C54.2001 63.3511 54.5031 63.4516 54.8042 63.4516C55.1936 63.4516 55.5796 63.2838 55.846 62.9598L56.5646 62.0856C56.993 61.5647 57.6255 61.2659 58.2999 61.2659H65.2441C65.9883 61.2659 66.5917 60.6627 66.5917 59.9182C66.5917 59.1738 65.9883 58.5706 65.2441 58.5706L58.2997 58.5704Z" fill="#373435" stroke="#FADC5A"/>
</g>
</g>
</svg>
